<?xml-stylesheet href="https://s3.amazonaws.com/maker.works.boards/css/blackpcb.css" type="text/css"?><svg xmlns="http://www.w3.org/2000/svg" version="1.1" xmlns:xlink="http://www.w3.org/1999/xlink" stroke-width="0" stroke-linecap="round" stroke-linejoin="round" width="1.1251in" height="1.0110000000000001in" id="pcb_bottom" viewBox="0 0 1125.1 1011"><defs><circle cx="0" cy="0" r="7" id="tool-T10-pad-1000"/><circle cx="0" cy="0" r="11" id="tool-T11-pad-1001"/><circle cx="0" cy="0" r="20" id="tool-T12-pad-1002"/><circle cx="0" cy="0" r="37" id="tool-D10-pad-1003"/><rect x="-23.6" y="-20.1" width="47.2" height="40.2" id="tool-D11-pad-1004"/><circle cx="0" cy="0" r="25" id="tool-D12-pad-1005"/><rect x="-85" y="-30" width="170" height="60" id="tool-D14-pad-1007"/><circle cx="0" cy="0" r="14" id="tool-D16-pad-1009"/><circle cx="0" cy="0" r="40" id="tool-D10-pad-1017"/><rect x="-26.6" y="-23.1" width="53.2" height="46.2" id="tool-D11-pad-1018"/><circle cx="0" cy="0" r="28" id="tool-D12-pad-1019"/><rect x="-88" y="-33" width="176" height="66" id="tool-D14-pad-1021"/><g id="pcb_bottom-cu" fill="currentColor" stroke="currentColor"><use x="355.5" y="55.5" xlink:href="#tool-D10-pad-1003"/><use x="455.5" y="55.5" xlink:href="#tool-D10-pad-1003"/><use x="555.5" y="55.5" xlink:href="#tool-D10-pad-1003"/><use x="655.5" y="55.5" xlink:href="#tool-D10-pad-1003"/><use x="755.5" y="55.5" xlink:href="#tool-D10-pad-1003"/><use x="855.5" y="55.5" xlink:href="#tool-D10-pad-1003"/><use x="955.5" y="55.5" xlink:href="#tool-D10-pad-1003"/><use x="1055.5" y="55.5" xlink:href="#tool-D10-pad-1003"/><use x="1055.5" y="955.5" xlink:href="#tool-D10-pad-1003"/><use x="955.5" y="955.5" xlink:href="#tool-D10-pad-1003"/><use x="855.5" y="955.5" xlink:href="#tool-D10-pad-1003"/><use x="755.5" y="955.5" xlink:href="#tool-D10-pad-1003"/><use x="655.5" y="955.5" xlink:href="#tool-D10-pad-1003"/><use x="555.5" y="955.5" xlink:href="#tool-D10-pad-1003"/><use x="455.5" y="955.5" xlink:href="#tool-D10-pad-1003"/><use x="355.5" y="955.5" xlink:href="#tool-D10-pad-1003"/><use x="391.1" y="385.5" xlink:href="#tool-D11-pad-1004"/><use x="391.1" y="305.5" xlink:href="#tool-D11-pad-1004"/><use x="391.1" y="230.5" xlink:href="#tool-D11-pad-1004"/><use x="519.9" y="230.5" xlink:href="#tool-D11-pad-1004"/><use x="519.9" y="305.5" xlink:href="#tool-D11-pad-1004"/><use x="519.9" y="385.5" xlink:href="#tool-D11-pad-1004"/><use x="205.5" y="855.5" xlink:href="#tool-D12-pad-1005"/><path stroke-width="4.5" fill="none" d="M 184.5 875.8 L 109 875.8 M 184.5 875.8 L 184.5 835.3 M 184.5 835.3 L 109 835.3 M 109 835.3 L 109 875.8 M 109 839.7 L 184.5 839.7 M 184.5 844.2 L 109 844.2 M 109 848.7 L 184.5 848.7 M 184.5 853.2 L 109 853.2 M 109 857.7 L 184.5 857.7 M 184.5 862.2 L 109 862.2 M 109 866.7 L 184.5 866.7 M 184.5 871.2 L 109 871.2 M 109 875.7 L 184.5 875.7"/><use x="98" y="955.5" xlink:href="#tool-D14-pad-1007"/><use x="98" y="755.5" xlink:href="#tool-D14-pad-1007"/><path stroke-width="10" fill="none" d="M 35.2 101.4 L 46.8 96.6 M 46.8 96.6 L 53 96 M 53 96 L 261.5 96 M 261.5 96 L 273.5 84 M 273.5 84 L 301.5 56 M 301.5 56 L 301.5 66.2 M 301.5 66.2 L 309.7 86.1 M 309.7 86.1 L 324.9 101.3 M 324.9 101.3 L 344.8 109.5 M 344.8 109.5 L 366.2 109.5 M 366.2 109.5 L 386.1 101.3 M 386.1 101.3 L 401.3 86.1 M 401.3 86.1 L 405.5 75.9 M 405.5 75.9 L 409.7 86.1 M 409.7 86.1 L 424.9 101.3 M 424.9 101.3 L 432.5 104.4 M 432.5 104.4 L 432.5 175.7 M 432.5 175.7 L 479.2 222.4 M 479.2 222.4 L 479.2 257.6 M 479.2 257.6 L 489.2 267.6 M 489.2 267.6 L 496.9 267.6 M 496.9 267.6 L 496.9 268.4 M 496.9 268.4 L 489.2 268.4 M 489.2 268.4 L 479.2 278.4 M 479.2 278.4 L 479.2 332.6 M 479.2 332.6 L 489.2 342.6 M 489.2 342.6 L 496.9 342.6 M 496.9 342.6 L 496.9 348.4 M 496.9 348.4 L 489.2 348.4 M 489.2 348.4 L 479.2 358.4 M 479.2 358.4 L 479.2 412.6 M 479.2 412.6 L 489.2 422.6 M 489.2 422.6 L 550.5 422.6 M 550.5 422.6 L 560.5 412.6 M 560.5 412.6 L 560.5 358.4 M 560.5 358.4 L 550.5 348.4 M 550.5 348.4 L 542.9 348.4 M 542.9 348.4 L 542.9 342.6 M 542.9 342.6 L 550.5 342.6 M 550.5 342.6 L 560.5 332.6 M 560.5 332.6 L 560.5 278.4 M 560.5 278.4 L 550.5 268.4 M 550.5 268.4 L 542.9 268.4 M 542.9 268.4 L 542.9 267.6 M 542.9 267.6 L 550.5 267.6 M 550.5 267.6 L 560.5 257.6 M 560.5 257.6 L 560.5 203.4 M 560.5 203.4 L 550.5 193.4 M 550.5 193.4 L 515.3 193.4 M 515.3 193.4 L 478.5 156.6 M 478.5 156.6 L 478.5 104.4 M 478.5 104.4 L 486.1 101.3 M 486.1 101.3 L 501.3 86.1 M 501.3 86.1 L 505.5 75.9 M 505.5 75.9 L 509.7 86.1 M 509.7 86.1 L 524.9 101.3 M 524.9 101.3 L 544.8 109.5 M 544.8 109.5 L 566.2 109.5 M 566.2 109.5 L 586.1 101.3 M 586.1 101.3 L 601.3 86.1 M 601.3 86.1 L 605.5 75.9 M 605.5 75.9 L 609.7 86.1 M 609.7 86.1 L 624.9 101.3 M 624.9 101.3 L 644.8 109.5 M 644.8 109.5 L 666.2 109.5 M 666.2 109.5 L 686.1 101.3 M 686.1 101.3 L 701.3 86.1 M 701.3 86.1 L 705.5 75.9 M 705.5 75.9 L 709.7 86.1 M 709.7 86.1 L 724.9 101.3 M 724.9 101.3 L 732.5 104.4 M 732.5 104.4 L 732.5 409.7 M 732.5 409.7 L 729.2 412.9 M 729.2 412.9 L 724.5 424.3 M 724.5 424.3 L 724.5 436.7 M 724.5 436.7 L 729.2 448.1 M 729.2 448.1 L 737.9 456.8 M 737.9 456.8 L 749.3 461.5 M 749.3 461.5 L 761.7 461.5 M 761.7 461.5 L 773.1 456.8 M 773.1 456.8 L 781.8 448.1 M 781.8 448.1 L 786.5 436.7 M 786.5 436.7 L 786.5 424.3 M 786.5 424.3 L 781.8 412.9 M 781.8 412.9 L 778.5 409.7 M 778.5 409.7 L 778.5 104.4 M 778.5 104.4 L 786.1 101.3 M 786.1 101.3 L 801.3 86.1 M 801.3 86.1 L 805.5 75.9 M 805.5 75.9 L 809.7 86.1 M 809.7 86.1 L 824.9 101.3 M 824.9 101.3 L 844.8 109.5 M 844.8 109.5 L 866.2 109.5 M 866.2 109.5 L 886.1 101.3 M 886.1 101.3 L 901.3 86.1 M 901.3 86.1 L 905.5 75.9 M 905.5 75.9 L 909.7 86.1 M 909.7 86.1 L 924.9 101.3 M 924.9 101.3 L 944.8 109.5 M 944.8 109.5 L 966.2 109.5 M 966.2 109.5 L 986.1 101.3 M 986.1 101.3 L 1001.3 86.1 M 1001.3 86.1 L 1005.5 75.9 M 1005.5 75.9 L 1009.7 86.1 M 1009.7 86.1 L 1024.9 101.3 M 1024.9 101.3 L 1044.8 109.5 M 1044.8 109.5 L 1066.2 109.5 M 1066.2 109.5 L 1086.1 101.3 M 1086.1 101.3 L 1101.3 86.1 M 1101.3 86.1 L 1102.5 83.1 M 1102.5 83.1 L 1102.5 927.9 M 1102.5 927.9 L 1101.3 924.9 M 1101.3 924.9 L 1086.1 909.7 M 1086.1 909.7 L 1066.2 901.5 M 1066.2 901.5 L 1044.8 901.5 M 1044.8 901.5 L 1024.9 909.7 M 1024.9 909.7 L 1009.7 924.9 M 1009.7 924.9 L 1005.5 935.1 M 1005.5 935.1 L 1001.3 924.9 M 1001.3 924.9 L 986.1 909.7 M 986.1 909.7 L 966.2 901.5 M 966.2 901.5 L 944.8 901.5 M 944.8 901.5 L 924.9 909.7 M 924.9 909.7 L 909.7 924.9 M 909.7 924.9 L 905.5 935.1 M 905.5 935.1 L 901.3 924.9 M 901.3 924.9 L 886.1 909.7 M 886.1 909.7 L 878.5 906.6 M 878.5 906.6 L 878.5 871 M 878.5 871 L 865 857.5 M 865 857.5 L 802.5 795 M 802.5 795 L 602.5 795 M 602.5 795 L 563.5 756 M 563.5 756 L 563.5 601 M 563.5 601 L 550 587.5 M 550 587.5 L 543 580.5 M 543 580.5 L 524 580.5 M 524 580.5 L 510.5 594 M 510.5 594 L 510.5 613 M 510.5 613 L 517.5 620 M 517.5 620 L 517.5 772.5 M 517.5 772.5 L 496 751 M 496 751 L 477 751 M 477 751 L 463.5 764.5 M 463.5 764.5 L 463.5 783.5 M 463.5 783.5 L 558.5 878.5 M 558.5 878.5 L 708.5 878.5 M 708.5 878.5 L 732.5 902.5 M 732.5 902.5 L 732.5 906.6 M 732.5 906.6 L 724.9 909.7 M 724.9 909.7 L 709.7 924.9 M 709.7 924.9 L 705.5 935.1 M 705.5 935.1 L 701.3 924.9 M 701.3 924.9 L 686.1 909.7 M 686.1 909.7 L 666.2 901.5 M 666.2 901.5 L 644.8 901.5 M 644.8 901.5 L 624.9 909.7 M 624.9 909.7 L 609.7 924.9 M 609.7 924.9 L 605.5 935.1 M 605.5 935.1 L 601.3 924.9 M 601.3 924.9 L 586.1 909.7 M 586.1 909.7 L 566.2 901.5 M 566.2 901.5 L 544.8 901.5 M 544.8 901.5 L 524.9 909.7 M 524.9 909.7 L 509.7 924.9 M 509.7 924.9 L 504.4 937.7 M 504.4 937.7 L 503.7 935.5 M 503.7 935.5 L 500 928.3 M 500 928.3 L 495.2 921.6 M 495.2 921.6 L 489.4 915.8 M 489.4 915.8 L 482.8 911 M 482.8 911 L 475.5 907.3 M 475.5 907.3 L 467.7 904.8 M 467.7 904.8 L 460.5 903.6 M 460.5 903.6 L 460.5 950.5 M 460.5 950.5 L 450.5 950.5 M 450.5 950.5 L 450.5 903.6 M 450.5 903.6 L 443.3 904.8 M 443.3 904.8 L 435.5 907.3 M 435.5 907.3 L 428.3 911 M 428.3 911 L 421.6 915.8 M 421.6 915.8 L 415.8 921.6 M 415.8 921.6 L 411 928.3 M 411 928.3 L 407.3 935.5 M 407.3 935.5 L 406.6 937.7 M 406.6 937.7 L 401.3 924.9 M 401.3 924.9 L 386.1 909.7 M 386.1 909.7 L 366.2 901.5 M 366.2 901.5 L 344.8 901.5 M 344.8 901.5 L 324.9 909.7 M 324.9 909.7 L 309.7 924.9 M 309.7 924.9 L 301.5 944.8 M 301.5 944.8 L 301.5 966.2 M 301.5 966.2 L 309.7 986.1 M 309.7 986.1 L 313.6 990 M 313.6 990 L 200 990 M 200 990 L 200 918.5 M 200 918.5 L 190 908.5 M 190 908.5 L 21 908.5 M 21 908.5 L 21 802.5 M 21 802.5 L 190 802.5 M 190 802.5 L 200 792.5 M 200 792.5 L 200 718.5 M 200 718.5 L 190 708.5 M 190 708.5 L 21 708.5 M 21 708.5 L 21 128 M 21 128 L 21.6 121.8 M 21.6 121.8 L 26.4 110.2 M 26.4 110.2 L 35.2 101.4 M 31.3 105.4 L 334.7 105.4 M 319 95.4 L 262.1 95.4 M 272.1 85.4 L 309.4 85.4 M 305.3 75.4 L 282.1 75.4 M 292.1 65.4 L 301.5 65.4 M 376.3 105.4 L 432.5 105.4 M 432.5 115.3 L 24.3 115.3 M 21.3 125.3 L 432.5 125.3 M 432.5 135.3 L 21 135.3 M 21 145.3 L 432.5 145.3 M 432.5 155.3 L 21 155.3 M 21 165.3 L 432.5 165.3 M 432.5 175.3 L 21 175.3 M 21 185.2 L 442.1 185.2 M 452.1 195.2 L 423.6 195.2 M 421.8 193.4 L 431.8 203.4 M 431.8 203.4 L 431.8 257.6 M 431.8 257.6 L 421.8 267.6 M 421.8 267.6 L 360.5 267.6 M 360.5 267.6 L 353.6 260.7 M 353.6 260.7 L 351.7 261.5 M 351.7 261.5 L 339.3 261.5 M 339.3 261.5 L 327.9 256.8 M 327.9 256.8 L 319.2 248.1 M 319.2 248.1 L 314.5 236.7 M 314.5 236.7 L 314.5 224.3 M 314.5 224.3 L 319.2 212.9 M 319.2 212.9 L 327.9 204.2 M 327.9 204.2 L 339.3 199.5 M 339.3 199.5 L 351.7 199.5 M 351.7 199.5 L 353.6 200.3 M 353.6 200.3 L 360.5 193.4 M 360.5 193.4 L 421.8 193.4 M 431.8 205.2 L 462.1 205.2 M 472 215.2 L 431.8 215.2 M 431.8 225.2 L 479.2 225.2 M 479.2 235.2 L 431.8 235.2 M 431.8 245.1 L 479.2 245.1 M 479.2 255.1 L 431.8 255.1 M 424.3 265.1 L 486.7 265.1 M 482.5 275.1 L 428.5 275.1 M 431.8 278.4 L 431.8 332.6 M 431.8 332.6 L 421.8 342.6 M 421.8 342.6 L 360.5 342.6 M 360.5 342.6 L 353.6 335.7 M 353.6 335.7 L 351.7 336.5 M 351.7 336.5 L 339.3 336.5 M 339.3 336.5 L 327.9 331.8 M 327.9 331.8 L 319.2 323.1 M 319.2 323.1 L 314.5 311.7 M 314.5 311.7 L 314.5 299.3 M 314.5 299.3 L 319.2 287.9 M 319.2 287.9 L 327.9 279.2 M 327.9 279.2 L 339.3 274.5 M 339.3 274.5 L 351.7 274.5 M 351.7 274.5 L 353.6 275.3 M 353.6 275.3 L 360.5 268.4 M 360.5 268.4 L 421.8 268.4 M 421.8 268.4 L 431.8 278.4 M 431.8 285.1 L 479.2 285.1 M 479.2 295.1 L 431.8 295.1 M 431.8 305.1 L 479.2 305.1 M 479.2 315 L 431.8 315 M 431.8 325 L 479.2 325 M 481.6 335 L 429.4 335 M 421.8 348.4 L 431.8 358.4 M 431.8 358.4 L 431.8 412.6 M 431.8 412.6 L 421.8 422.6 M 421.8 422.6 L 360.5 422.6 M 360.5 422.6 L 353.6 415.7 M 353.6 415.7 L 351.7 416.5 M 351.7 416.5 L 339.3 416.5 M 339.3 416.5 L 327.9 411.8 M 327.9 411.8 L 319.2 403.1 M 319.2 403.1 L 314.5 391.7 M 314.5 391.7 L 314.5 379.3 M 314.5 379.3 L 319.2 367.9 M 319.2 367.9 L 327.9 359.2 M 327.9 359.2 L 339.3 354.5 M 339.3 354.5 L 351.7 354.5 M 351.7 354.5 L 353.6 355.3 M 353.6 355.3 L 360.5 348.4 M 360.5 348.4 L 421.8 348.4 M 428.4 355 L 482.7 355 M 479.2 365 L 431.8 365 M 431.8 375 L 479.2 375 M 479.2 384.9 L 431.8 384.9 M 431.8 394.9 L 479.2 394.9 M 479.2 404.9 L 431.8 404.9 M 429.5 414.9 L 481.5 414.9 M 496.9 345 L 21 345 M 21 335 L 335.7 335 M 321.2 325 L 21 325 M 21 315 L 315.9 315 M 314.5 305.1 L 21 305.1 M 21 295.1 L 316.3 295.1 M 322.1 285.1 L 21 285.1 M 21 275.1 L 337.9 275.1 M 353.1 275.1 L 353.8 275.1 M 358 265.1 L 21 265.1 M 21 255.1 L 326.3 255.1 M 318 245.1 L 21 245.1 M 21 235.2 L 314.5 235.2 M 314.5 225.2 L 21 225.2 M 21 215.2 L 318.3 215.2 M 327 205.2 L 21 205.2 M 21 195.2 L 358.7 195.2 M 392 95.4 L 419 95.4 M 409.4 85.4 L 401.6 85.4 M 478.5 105.4 L 534.7 105.4 M 519 95.4 L 492 95.4 M 501.6 85.4 L 509.4 85.4 M 478.5 115.3 L 732.5 115.3 M 732.5 125.3 L 478.5 125.3 M 478.5 135.3 L 732.5 135.3 M 732.5 145.3 L 478.5 145.3 M 478.5 155.3 L 732.5 155.3 M 732.5 165.3 L 487.2 165.3 M 497.1 175.3 L 732.5 175.3 M 732.5 185.2 L 507.1 185.2 M 552.3 195.2 L 732.5 195.2 M 732.5 205.2 L 560.5 205.2 M 560.5 215.2 L 732.5 215.2 M 732.5 225.2 L 560.5 225.2 M 560.5 235.2 L 732.5 235.2 M 732.5 245.1 L 560.5 245.1 M 560.5 255.1 L 732.5 255.1 M 732.5 265.1 L 553 265.1 M 557.2 275.1 L 732.5 275.1 M 732.5 285.1 L 560.5 285.1 M 560.5 295.1 L 732.5 295.1 M 732.5 305.1 L 560.5 305.1 M 560.5 315 L 732.5 315 M 732.5 325 L 560.5 325 M 558.1 335 L 732.5 335 M 732.5 345 L 542.9 345 M 557.1 355 L 732.5 355 M 732.5 365 L 560.5 365 M 560.5 375 L 732.5 375 M 732.5 384.9 L 560.5 384.9 M 560.5 394.9 L 732.5 394.9 M 732.5 404.9 L 560.5 404.9 M 558.2 414.9 L 728.4 414.9 M 724.5 424.9 L 21 424.9 M 21 414.9 L 335.5 414.9 M 321.1 404.9 L 21 404.9 M 21 394.9 L 315.9 394.9 M 314.5 384.9 L 21 384.9 M 21 375 L 316.3 375 M 322.2 365 L 21 365 M 21 355 L 338.2 355 M 352.8 355 L 353.9 355 M 519.8 584.6 L 21 584.6 M 21 594.6 L 510.5 594.6 M 510.5 604.6 L 21 604.6 M 21 614.6 L 512.1 614.6 M 517.5 624.6 L 21 624.6 M 21 634.6 L 517.5 634.6 M 517.5 644.5 L 21 644.5 M 21 654.5 L 517.5 654.5 M 517.5 664.5 L 21 664.5 M 21 674.5 L 517.5 674.5 M 517.5 684.5 L 21 684.5 M 21 694.5 L 517.5 694.5 M 517.5 704.5 L 21 704.5 M 21 804.3 L 484.3 804.3 M 474.3 794.3 L 198.2 794.3 M 200 784.3 L 464.3 784.3 M 463.5 774.4 L 200 774.4 M 200 764.4 L 463.6 764.4 M 473.6 754.4 L 200 754.4 M 200 744.4 L 517.5 744.4 M 517.5 754.4 L 499.4 754.4 M 509.4 764.4 L 517.5 764.4 M 517.5 734.4 L 200 734.4 M 200 724.4 L 517.5 724.4 M 517.5 714.4 L 196 714.4 M 197.2 813.5 L 213.9 813.5 M 213.9 813.5 L 229.3 819.9 M 229.3 819.9 L 241.1 831.7 M 241.1 831.7 L 247.5 847.2 M 247.5 847.2 L 247.5 863.9 M 247.5 863.9 L 241.1 879.3 M 241.1 879.3 L 229.3 891.1 M 229.3 891.1 L 213.9 897.5 M 213.9 897.5 L 197.2 897.5 M 197.2 897.5 L 191.1 895 M 191.1 895 L 101.1 895 M 101.1 895 L 89.8 883.7 M 89.8 883.7 L 89.8 827.3 M 89.8 827.3 L 101.1 816 M 101.1 816 L 191.1 816 M 191.1 816 L 197.2 813.5 M 195.2 814.3 L 21 814.3 M 21 824.3 L 92.8 824.3 M 89.8 834.3 L 21 834.3 M 21 844.3 L 89.8 844.3 M 89.8 854.2 L 21 854.2 M 21 864.2 L 89.8 864.2 M 89.8 874.2 L 21 874.2 M 21 884.2 L 90.3 884.2 M 100.2 894.2 L 21 894.2 M 21 904.2 L 338.3 904.2 M 320.5 914.2 L 195.7 914.2 M 200 924.1 L 310.5 924.1 M 305.9 934.1 L 200 934.1 M 200 944.1 L 301.8 944.1 M 301.5 954.1 L 200 954.1 M 200 964.1 L 301.5 964.1 M 304.7 974.1 L 200 974.1 M 200 984 L 308.9 984 M 372.7 904.2 L 447.2 904.2 M 450.5 904.2 L 460.5 904.2 M 463.8 904.2 L 538.3 904.2 M 520.5 914.2 L 487.1 914.2 M 497 924.1 L 510.5 924.1 M 505.9 934.1 L 503 934.1 M 460.5 934.1 L 450.5 934.1 M 450.5 944.1 L 460.5 944.1 M 460.5 924.1 L 450.5 924.1 M 450.5 914.2 L 460.5 914.2 M 424 914.2 L 390.5 914.2 M 400.5 924.1 L 414 924.1 M 408 934.1 L 405.1 934.1 M 514.2 834.3 L 242.2 834.3 M 246.3 844.3 L 524.2 844.3 M 534.2 854.2 L 247.5 854.2 M 247.4 864.2 L 544.2 864.2 M 554.2 874.2 L 243.2 874.2 M 236.2 884.2 L 714.2 884.2 M 724.2 894.2 L 221.9 894.2 M 233.7 824.3 L 504.3 824.3 M 494.3 814.3 L 215.8 814.3 M 21 574.7 L 1102.5 574.7 M 1102.5 564.7 L 21 564.7 M 21 554.7 L 1102.5 554.7 M 1102.5 544.7 L 21 544.7 M 21 534.7 L 1102.5 534.7 M 1102.5 524.7 L 21 524.7 M 21 514.7 L 1102.5 514.7 M 1102.5 504.8 L 21 504.8 M 21 494.8 L 1102.5 494.8 M 1102.5 484.8 L 21 484.8 M 21 474.8 L 1102.5 474.8 M 1102.5 464.8 L 21 464.8 M 21 454.8 L 736 454.8 M 727.9 444.8 L 21 444.8 M 21 434.9 L 724.5 434.9 M 775 454.8 L 1102.5 454.8 M 1102.5 444.8 L 783.1 444.8 M 786.5 434.9 L 1102.5 434.9 M 1102.5 424.9 L 786.5 424.9 M 782.6 414.9 L 1102.5 414.9 M 1102.5 404.9 L 778.5 404.9 M 778.5 394.9 L 1102.5 394.9 M 1102.5 384.9 L 778.5 384.9 M 778.5 375 L 1102.5 375 M 1102.5 365 L 778.5 365 M 778.5 355 L 1102.5 355 M 1102.5 345 L 778.5 345 M 778.5 335 L 1102.5 335 M 1102.5 325 L 778.5 325 M 778.5 315 L 1102.5 315 M 1102.5 305.1 L 778.5 305.1 M 778.5 295.1 L 1102.5 295.1 M 1102.5 285.1 L 778.5 285.1 M 778.5 275.1 L 1102.5 275.1 M 1102.5 265.1 L 778.5 265.1 M 778.5 255.1 L 1102.5 255.1 M 1102.5 245.1 L 778.5 245.1 M 778.5 235.2 L 1102.5 235.2 M 1102.5 225.2 L 778.5 225.2 M 778.5 215.2 L 1102.5 215.2 M 1102.5 205.2 L 778.5 205.2 M 778.5 195.2 L 1102.5 195.2 M 1102.5 185.2 L 778.5 185.2 M 778.5 175.3 L 1102.5 175.3 M 1102.5 165.3 L 778.5 165.3 M 778.5 155.3 L 1102.5 155.3 M 1102.5 145.3 L 778.5 145.3 M 778.5 135.3 L 1102.5 135.3 M 1102.5 125.3 L 778.5 125.3 M 778.5 115.3 L 1102.5 115.3 M 1102.5 105.4 L 1076.3 105.4 M 1092 95.4 L 1102.5 95.4 M 1102.5 85.4 L 1101.6 85.4 M 1034.7 105.4 L 976.3 105.4 M 992 95.4 L 1019 95.4 M 1009.4 85.4 L 1001.6 85.4 M 934.7 105.4 L 876.3 105.4 M 892 95.4 L 919 95.4 M 909.4 85.4 L 901.6 85.4 M 834.7 105.4 L 778.5 105.4 M 792 95.4 L 819 95.4 M 809.4 85.4 L 801.6 85.4 M 732.5 105.4 L 676.3 105.4 M 692 95.4 L 719 95.4 M 709.4 85.4 L 701.6 85.4 M 634.7 105.4 L 576.3 105.4 M 592 95.4 L 619 95.4 M 609.4 85.4 L 601.6 85.4 M 547.2 584.6 L 1102.5 584.6 M 1102.5 594.6 L 557.2 594.6 M 563.5 604.6 L 1102.5 604.6 M 1102.5 614.6 L 563.5 614.6 M 563.5 624.6 L 1102.5 624.6 M 1102.5 634.6 L 563.5 634.6 M 563.5 644.5 L 1102.5 644.5 M 1102.5 654.5 L 563.5 654.5 M 563.5 664.5 L 1102.5 664.5 M 1102.5 674.5 L 563.5 674.5 M 563.5 684.5 L 1102.5 684.5 M 1102.5 694.5 L 563.5 694.5 M 563.5 704.5 L 1102.5 704.5 M 1102.5 714.4 L 563.5 714.4 M 563.5 724.4 L 1102.5 724.4 M 1102.5 734.4 L 563.5 734.4 M 563.5 744.4 L 1102.5 744.4 M 1102.5 754.4 L 563.5 754.4 M 571.9 764.4 L 1102.5 764.4 M 1102.5 774.4 L 581.9 774.4 M 591.9 784.3 L 1102.5 784.3 M 1102.5 794.3 L 601.9 794.3 M 572.7 904.2 L 638.3 904.2 M 620.5 914.2 L 590.5 914.2 M 600.5 924.1 L 610.5 924.1 M 605.9 934.1 L 605.1 934.1 M 672.7 904.2 L 732.5 904.2 M 720.5 914.2 L 690.5 914.2 M 700.5 924.1 L 710.5 924.1 M 705.9 934.1 L 705.1 934.1 M 821.8 814.3 L 1102.5 814.3 M 1102.5 804.3 L 811.8 804.3 M 831.8 824.3 L 1102.5 824.3 M 1102.5 834.3 L 841.8 834.3 M 851.8 844.3 L 1102.5 844.3 M 1102.5 854.2 L 861.8 854.2 M 871.8 864.2 L 1102.5 864.2 M 1102.5 874.2 L 878.5 874.2 M 878.5 884.2 L 1102.5 884.2 M 1102.5 894.2 L 878.5 894.2 M 878.5 904.2 L 938.3 904.2 M 920.5 914.2 L 890.5 914.2 M 900.5 924.1 L 910.5 924.1 M 905.9 934.1 L 905.1 934.1 M 972.7 904.2 L 1038.3 904.2 M 1020.5 914.2 L 990.5 914.2 M 1000.5 924.1 L 1010.5 924.1 M 1005.9 934.1 L 1005.1 934.1 M 1072.7 904.2 L 1102.5 904.2 M 1102.5 914.2 L 1090.5 914.2 M 1100.5 924.1 L 1102.5 924.1"/><use x="1035.5" y="753" xlink:href="#tool-D16-pad-1009"/><use x="815.5" y="688" xlink:href="#tool-D16-pad-1009"/><use x="755.5" y="430.5" xlink:href="#tool-D16-pad-1009"/><use x="993" y="415.5" xlink:href="#tool-D16-pad-1009"/><use x="828" y="185.5" xlink:href="#tool-D16-pad-1009"/><use x="613" y="165.5" xlink:href="#tool-D16-pad-1009"/><use x="345.5" y="230.5" xlink:href="#tool-D16-pad-1009"/><use x="345.5" y="305.5" xlink:href="#tool-D16-pad-1009"/><use x="345.5" y="385.5" xlink:href="#tool-D16-pad-1009"/><use x="253" y="138" xlink:href="#tool-D16-pad-1009"/><use x="213" y="678" xlink:href="#tool-D16-pad-1009"/><use x="210.5" y="710.5" xlink:href="#tool-D16-pad-1009"/><use x="210.5" y="750.5" xlink:href="#tool-D16-pad-1009"/><use x="210.5" y="790.5" xlink:href="#tool-D16-pad-1009"/><use x="270.5" y="850.5" xlink:href="#tool-D16-pad-1009"/><use x="250.5" y="885.5" xlink:href="#tool-D16-pad-1009"/><use x="210.5" y="905.5" xlink:href="#tool-D16-pad-1009"/><use x="265.5" y="950.5" xlink:href="#tool-D16-pad-1009"/><use x="305.5" y="830.5" xlink:href="#tool-D16-pad-1009"/><use x="345.5" y="825.5" xlink:href="#tool-D16-pad-1009"/><use x="365.5" y="780.5" xlink:href="#tool-D16-pad-1009"/><use x="355.5" y="735.5" xlink:href="#tool-D16-pad-1009"/><use x="350.5" y="675.5" xlink:href="#tool-D16-pad-1009"/><path stroke-width="12" fill="none" d="M 486.5 774 L 568 855.5 M 568 855.5 L 718 855.5 M 718 855.5 L 755.5 893 M 755.5 893 L 755.5 955.5 M 855.5 955.5 L 855.5 880.5 M 855.5 880.5 L 793 818 M 793 818 L 593 818 M 593 818 L 540.5 765.5 M 540.5 765.5 L 540.5 610.5 M 540.5 610.5 L 533.5 603.5 M 755.5 430.5 L 755.5 55.5 M 519.9 230.5 L 455.5 166.1 M 455.5 166.1 L 455.5 55.5 M 391.1 230.5 L 345.5 230.5 M 345.5 305.5 L 391.1 305.5 M 391.1 385.5 L 345.5 385.5 M 519.9 385.5 L 519.9 305.5 M 519.9 305.5 L 519.9 230.5"/><path stroke-width="24" fill="none" d="M 205.5 855.5 L 146.8 855.5"/></g><mask id="pcb_bottom_mech-mask"><rect x="0" y="0" width="1125.1" height="1011" fill="#fff"/><g id="pcb_bottom-drl" fill="#000" stroke="#000"><use x="253" y="138" xlink:href="#tool-T10-pad-1000"/><use x="345.5" y="230.5" xlink:href="#tool-T10-pad-1000"/><use x="345.5" y="305.5" xlink:href="#tool-T10-pad-1000"/><use x="345.5" y="385.5" xlink:href="#tool-T10-pad-1000"/><use x="613" y="165.5" xlink:href="#tool-T10-pad-1000"/><use x="828" y="185.5" xlink:href="#tool-T10-pad-1000"/><use x="993" y="415.5" xlink:href="#tool-T10-pad-1000"/><use x="755.5" y="430.5" xlink:href="#tool-T10-pad-1000"/><use x="815.5" y="688" xlink:href="#tool-T10-pad-1000"/><use x="1035.5" y="753" xlink:href="#tool-T10-pad-1000"/><use x="365.5" y="780.5" xlink:href="#tool-T10-pad-1000"/><use x="355.5" y="735.5" xlink:href="#tool-T10-pad-1000"/><use x="350.5" y="675.5" xlink:href="#tool-T10-pad-1000"/><use x="213" y="678" xlink:href="#tool-T10-pad-1000"/><use x="210.5" y="710.5" xlink:href="#tool-T10-pad-1000"/><use x="210.5" y="750.5" xlink:href="#tool-T10-pad-1000"/><use x="210.5" y="790.5" xlink:href="#tool-T10-pad-1000"/><use x="270.5" y="850.5" xlink:href="#tool-T10-pad-1000"/><use x="250.5" y="885.5" xlink:href="#tool-T10-pad-1000"/><use x="210.5" y="905.5" xlink:href="#tool-T10-pad-1000"/><use x="265.5" y="950.5" xlink:href="#tool-T10-pad-1000"/><use x="305.5" y="830.5" xlink:href="#tool-T10-pad-1000"/><use x="345.5" y="825.5" xlink:href="#tool-T10-pad-1000"/><use x="205.5" y="855.5" xlink:href="#tool-T11-pad-1001"/><use x="355.5" y="955.5" xlink:href="#tool-T12-pad-1002"/><use x="455.5" y="955.5" xlink:href="#tool-T12-pad-1002"/><use x="555.5" y="955.5" xlink:href="#tool-T12-pad-1002"/><use x="655.5" y="955.5" xlink:href="#tool-T12-pad-1002"/><use x="755.5" y="955.5" xlink:href="#tool-T12-pad-1002"/><use x="855.5" y="955.5" xlink:href="#tool-T12-pad-1002"/><use x="955.5" y="955.5" xlink:href="#tool-T12-pad-1002"/><use x="1055.5" y="955.5" xlink:href="#tool-T12-pad-1002"/><use x="1055.5" y="55.5" xlink:href="#tool-T12-pad-1002"/><use x="955.5" y="55.5" xlink:href="#tool-T12-pad-1002"/><use x="855.5" y="55.5" xlink:href="#tool-T12-pad-1002"/><use x="755.5" y="55.5" xlink:href="#tool-T12-pad-1002"/><use x="655.5" y="55.5" xlink:href="#tool-T12-pad-1002"/><use x="555.5" y="55.5" xlink:href="#tool-T12-pad-1002"/><use x="455.5" y="55.5" xlink:href="#tool-T12-pad-1002"/><use x="355.5" y="55.5" xlink:href="#tool-T12-pad-1002"/></g></mask></defs><g mask="url(#pcb_bottom_mech-mask)" transform="translate(1125.1,1011) scale(-1,-1)"><rect x="0" y="0" width="1125.1" height="1011" fill="currentColor" class="pcb_board-fr4"/><use class="pcb_board-cu" xlink:href="#pcb_bottom-cu"/><g><defs><g id="pcb_bottom-sm" fill="currentColor" stroke="currentColor"><use x="355.5" y="55.5" xlink:href="#tool-D10-pad-1017"/><use x="455.5" y="55.5" xlink:href="#tool-D10-pad-1017"/><use x="555.5" y="55.5" xlink:href="#tool-D10-pad-1017"/><use x="655.5" y="55.5" xlink:href="#tool-D10-pad-1017"/><use x="755.5" y="55.5" xlink:href="#tool-D10-pad-1017"/><use x="855.5" y="55.5" xlink:href="#tool-D10-pad-1017"/><use x="955.5" y="55.5" xlink:href="#tool-D10-pad-1017"/><use x="1055.5" y="55.5" xlink:href="#tool-D10-pad-1017"/><use x="1055.5" y="955.5" xlink:href="#tool-D10-pad-1017"/><use x="955.5" y="955.5" xlink:href="#tool-D10-pad-1017"/><use x="855.5" y="955.5" xlink:href="#tool-D10-pad-1017"/><use x="755.5" y="955.5" xlink:href="#tool-D10-pad-1017"/><use x="655.5" y="955.5" xlink:href="#tool-D10-pad-1017"/><use x="555.5" y="955.5" xlink:href="#tool-D10-pad-1017"/><use x="455.5" y="955.5" xlink:href="#tool-D10-pad-1017"/><use x="355.5" y="955.5" xlink:href="#tool-D10-pad-1017"/><use x="391.1" y="385.5" xlink:href="#tool-D11-pad-1018"/><use x="391.1" y="305.5" xlink:href="#tool-D11-pad-1018"/><use x="391.1" y="230.5" xlink:href="#tool-D11-pad-1018"/><use x="519.9" y="230.5" xlink:href="#tool-D11-pad-1018"/><use x="519.9" y="305.5" xlink:href="#tool-D11-pad-1018"/><use x="519.9" y="385.5" xlink:href="#tool-D11-pad-1018"/><use x="205.5" y="855.5" xlink:href="#tool-D12-pad-1019"/><path stroke-width="5.1" fill="none" d="M 187.2 878.5 L 106.3 878.5 M 187.2 878.5 L 187.2 832.6 M 187.2 832.6 L 106.3 832.6 M 106.3 832.6 L 106.3 878.5 M 106.3 837.6 L 187.2 837.6 M 187.2 842.7 L 106.3 842.7 M 106.3 847.8 L 187.2 847.8 M 187.2 852.9 L 106.3 852.9 M 106.3 858 L 187.2 858 M 187.2 863.1 L 106.3 863.1 M 106.3 868.2 L 187.2 868.2 M 187.2 873.3 L 106.3 873.3 M 106.3 878.4 L 187.2 878.4"/><use x="98" y="955.5" xlink:href="#tool-D14-pad-1021"/><use x="98" y="755.5" xlink:href="#tool-D14-pad-1021"/></g><mask id="pcb_bottom-sm_mask" color="#000"><rect x="0" y="0" width="1125.1" height="1011" fill="#fff"/><use xlink:href="#pcb_bottom-sm"/></mask><mask id="pcb_bottom-cu_finish-mask" color="#fff"><use xlink:href="#pcb_bottom-cu"/></mask></defs><g mask="url(#pcb_bottom-sm_mask)"><rect x="0" y="0" width="1125.1" height="1011" fill="currentColor" class="pcb_board-sm"/><g id="pcb_bottom-ss" class="pcb_board-ss" fill="currentColor" stroke="currentColor"><path stroke-width="8" fill="none" d="M 305.5 30.5 L 305.5 130.5 M 305.5 130.5 L 330.5 155.5 M 330.5 155.5 L 380.5 155.5 M 380.5 155.5 L 405.5 130.5 M 405.5 130.5 L 405.5 5.5 M 505.5 5.5 L 505.5 130.5 M 505.5 130.5 L 480.5 155.5 M 480.5 155.5 L 430.5 155.5 M 430.5 155.5 L 405.5 130.5 M 505.5 130.5 L 530.5 155.5 M 530.5 155.5 L 580.5 155.5 M 580.5 155.5 L 605.5 130.5 M 605.5 130.5 L 605.5 5.5 M 705.5 5.5 L 705.5 130.5 M 705.5 130.5 L 680.5 155.5 M 680.5 155.5 L 630.5 155.5 M 630.5 155.5 L 605.5 130.5 M 705.5 130.5 L 730.5 155.5 M 730.5 155.5 L 780.5 155.5 M 780.5 155.5 L 805.5 130.5 M 805.5 130.5 L 805.5 5.5 M 905.5 5.5 L 905.5 130.5 M 905.5 130.5 L 880.5 155.5 M 880.5 155.5 L 830.5 155.5 M 830.5 155.5 L 805.5 130.5 M 905.5 130.5 L 930.5 155.5 M 930.5 155.5 L 980.5 155.5 M 980.5 155.5 L 1005.5 130.5 M 1005.5 130.5 L 1005.5 5.5 M 1105.5 30.5 L 1105.5 130.5 M 1105.5 130.5 L 1080.5 155.5 M 1080.5 155.5 L 1030.5 155.5 M 1030.5 155.5 L 1005.5 130.5 M 994.5 272 L 994.5 320 M 994.5 320 L 1010.5 304 M 1010.5 304 L 1026.5 320 M 1026.5 320 L 1026.5 272 M 974.9 272 L 958.9 272 M 966.9 272 L 966.9 304 M 966.9 304 L 974.9 304 M 966.9 320 L 966.9 328.1 M 966.9 356 L 950.9 356 M 950.9 356 L 942.9 364 M 942.9 364 L 942.9 380 M 942.9 380 L 950.9 388 M 950.9 388 L 966.9 388 M 966.9 388 L 974.9 380 M 974.9 380 L 974.9 364 M 974.9 364 L 966.9 356 M 994.5 356 L 994.5 404 M 1026.5 404 L 994.5 356 M 1026.5 356 L 1026.5 404 M 1026.5 440 L 994.5 440 M 974.9 448 L 966.9 440 M 966.9 440 L 950.9 440 M 950.9 440 L 942.9 448 M 942.9 448 L 942.9 464 M 942.9 464 L 950.9 472 M 950.9 472 L 966.9 472 M 966.9 472 L 974.9 464 M 974.9 464 L 974.9 448 M 1026.5 440 L 1026.5 488 M 923.4 472 L 923.4 440 M 923.4 456 L 907.4 472 M 907.4 472 L 899.4 472 M 872.4 472 L 856.4 472 M 856.4 472 L 848.4 464 M 848.4 464 L 848.4 440 M 848.4 440 L 872.4 440 M 872.4 440 L 880.4 448 M 880.4 448 L 872.4 456 M 872.4 456 L 848.4 456 M 891.3 404 L 891.3 356 M 891.3 356 L 915.4 356 M 915.4 356 L 923.4 364 M 923.4 364 L 923.4 380 M 923.4 380 L 915.4 388 M 915.4 388 L 891.3 388 M 871.8 380 L 871.8 364 M 871.8 364 L 863.8 356 M 863.8 356 L 847.8 356 M 839.8 372 L 871.8 372 M 871.8 380 L 863.8 388 M 863.8 388 L 847.8 388 M 847.8 388 L 839.8 380 M 839.8 380 L 839.8 372 M 838 304 L 822 304 M 822 304 L 814 296 M 814 296 L 814 280 M 814 280 L 822 272 M 822 272 L 838 272 M 838 272 L 846 280 M 846 280 L 846 296 M 846 296 L 838 304 M 865 304 L 873 304 M 873 304 L 889 288 M 889 272 L 889 304 M 908.5 304 L 932.6 304 M 932.6 304 L 940.6 296 M 940.6 296 L 940.6 280 M 940.6 280 L 932.6 272 M 932.6 272 L 908.5 272 M 930.5 855.5 L 980.5 855.5 M 980.5 855.5 L 1005.5 880.5 M 1005.5 880.5 L 1005.5 1005.5 M 905.5 1005.5 L 905.5 880.5 M 905.5 880.5 L 930.5 855.5 M 905.5 880.5 L 880.5 855.5 M 880.5 855.5 L 830.5 855.5 M 830.5 855.5 L 805.5 880.5 M 805.5 880.5 L 805.5 1005.5 M 705.5 1005.5 L 705.5 880.5 M 705.5 880.5 L 730.5 855.5 M 730.5 855.5 L 780.5 855.5 M 780.5 855.5 L 805.5 880.5 M 705.5 880.5 L 680.5 855.5 M 680.5 855.5 L 630.5 855.5 M 630.5 855.5 L 605.5 880.5 M 605.5 880.5 L 605.5 1005.5 M 505.5 1005.5 L 505.5 880.5 M 505.5 880.5 L 530.5 855.5 M 530.5 855.5 L 580.5 855.5 M 580.5 855.5 L 605.5 880.5 M 505.5 880.5 L 480.5 855.5 M 480.5 855.5 L 430.5 855.5 M 430.5 855.5 L 405.5 880.5 M 405.5 880.5 L 380.5 855.5 M 380.5 855.5 L 330.5 855.5 M 330.5 855.5 L 305.5 880.5 M 305.5 880.5 L 305.5 1005.5 M 405.5 1005.5 L 405.5 880.5 M 1005.5 880.5 L 1030.5 855.5 M 1030.5 855.5 L 1080.5 855.5 M 1080.5 855.5 L 1105.5 880.5 M 1105.5 880.5 L 1105.5 993"/><path stroke-width="1" fill="none" d="M 253 75.5 L 53 75.5 M 53 75.5 L 51.6 75.5 M 51.6 75.5 L 50.2 75.6 M 50.2 75.6 L 48.7 75.7 M 48.7 75.7 L 47.3 75.8 M 47.3 75.8 L 45.9 76 M 45.9 76 L 44.5 76.2 M 44.5 76.2 L 43.1 76.4 M 43.1 76.4 L 41.7 76.7 M 41.7 76.7 L 40.3 77.1 M 40.3 77.1 L 39 77.4 M 39 77.4 L 37.6 77.8 M 37.6 77.8 L 36.2 78.3 M 36.2 78.3 L 34.9 78.7 M 34.9 78.7 L 33.6 79.2 M 33.6 79.2 L 32.3 79.8 M 32.3 79.8 L 31 80.4 M 31 80.4 L 29.7 81 M 29.7 81 L 28.4 81.6 M 28.4 81.6 L 27.2 82.3 M 27.2 82.3 L 25.9 83 M 25.9 83 L 24.7 83.8 M 24.7 83.8 L 23.5 84.6 M 23.5 84.6 L 22.4 85.4 M 22.4 85.4 L 21.2 86.2 M 21.2 86.2 L 20.1 87.1 M 20.1 87.1 L 19 88 M 19 88 L 17.9 88.9 M 17.9 88.9 L 16.9 89.9 M 16.9 89.9 L 15.9 90.9 M 15.9 90.9 L 14.9 91.9 M 14.9 91.9 L 13.9 92.9 M 13.9 92.9 L 13 94 M 13 94 L 12.1 95.1 M 12.1 95.1 L 11.2 96.2 M 11.2 96.2 L 10.4 97.4 M 10.4 97.4 L 9.6 98.5 M 9.6 98.5 L 8.8 99.7 M 8.8 99.7 L 8 100.9 M 8 100.9 L 7.3 102.2 M 7.3 102.2 L 6.6 103.4 M 6.6 103.4 L 6 104.7 M 6 104.7 L 5.4 106 M 5.4 106 L 4.8 107.3 M 4.8 107.3 L 4.2 108.6 M 4.2 108.6 L 3.7 109.9 M 3.7 109.9 L 3.3 111.2 M 3.3 111.2 L 2.8 112.6 M 2.8 112.6 L 2.4 114 M 2.4 114 L 2.1 115.3 M 2.1 115.3 L 1.7 116.7 M 1.7 116.7 L 1.4 118.1 M 1.4 118.1 L 1.2 119.5 M 1.2 119.5 L 1 120.9 M 1 120.9 L 0.8 122.3 M 0.8 122.3 L 0.7 123.7 M 0.7 123.7 L 0.6 125.2 M 0.6 125.2 L 0.5 126.6 M 0.5 126.6 L 0.5 128 M 0.5 128 L 0.5 125.5 M 0.5 128 L 0.5 955.5 M 0.5 955.5 L 0.5 957 M 0.5 957 L 0.6 958.4 M 0.6 958.4 L 0.7 959.9 M 0.7 959.9 L 0.8 961.4 M 0.8 961.4 L 1 962.8 M 1 962.8 L 1.2 964.3 M 1.2 964.3 L 1.5 965.7 M 1.5 965.7 L 1.7 967.1 M 1.7 967.1 L 2.1 968.5 M 2.1 968.5 L 2.4 970 M 2.4 970 L 2.8 971.4 M 2.8 971.4 L 3.3 972.8 M 3.3 972.8 L 3.8 974.2 M 3.8 974.2 L 4.3 975.5 M 4.3 975.5 L 4.8 976.9 M 4.8 976.9 L 5.4 978.2 M 5.4 978.2 L 6 979.6 M 6 979.6 L 6.7 980.9 M 6.7 980.9 L 7.4 982.2 M 7.4 982.2 L 8.1 983.4 M 8.1 983.4 L 8.9 984.7 M 8.9 984.7 L 9.7 985.9 M 9.7 985.9 L 10.5 987.1 M 10.5 987.1 L 11.4 988.3 M 11.4 988.3 L 12.2 989.5 M 12.2 989.5 L 13.2 990.6 M 13.2 990.6 L 14.1 991.7 M 14.1 991.7 L 15.1 992.8 M 15.1 992.8 L 16.1 993.9 M 16.1 993.9 L 17.1 994.9 M 17.1 994.9 L 18.2 995.9 M 18.2 995.9 L 19.3 996.9 M 19.3 996.9 L 20.4 997.8 M 20.4 997.8 L 21.5 998.8 M 21.5 998.8 L 22.7 999.7 M 22.7 999.7 L 23.9 1000.5 M 23.9 1000.5 L 25.1 1001.3 M 25.1 1001.3 L 26.3 1002.1 M 26.3 1002.1 L 27.6 1002.9 M 27.6 1002.9 L 28.9 1003.6 M 28.9 1003.6 L 30.1 1004.3 M 30.1 1004.3 L 31.5 1005 M 31.5 1005 L 32.8 1005.6 M 32.8 1005.6 L 34.1 1006.2 M 34.1 1006.2 L 35.5 1006.7 M 35.5 1006.7 L 36.8 1007.2 M 36.8 1007.2 L 38.2 1007.7 M 38.2 1007.7 L 39.6 1008.2 M 39.6 1008.2 L 41 1008.6 M 41 1008.6 L 42.5 1008.9 M 42.5 1008.9 L 43.9 1009.3 M 43.9 1009.3 L 45.3 1009.6 M 45.3 1009.6 L 46.8 1009.8 M 46.8 1009.8 L 48.2 1010 M 48.2 1010 L 49.7 1010.2 M 49.7 1010.2 L 51.1 1010.3 M 51.1 1010.3 L 52.6 1010.4 M 52.6 1010.4 L 54 1010.5 M 54 1010.5 L 55.5 1010.5 M 55.5 1010.5 L 54.3 1010.5 M 55.5 1010.5 L 1091.8 1010.5 M 1091.7 1010.5 L 1093 1010.1 M 1093 1010.1 L 1094.3 1009.7 M 1094.3 1009.7 L 1095.5 1009.3 M 1095.5 1009.3 L 1096.8 1008.8 M 1096.8 1008.8 L 1098 1008.3 M 1098 1008.3 L 1099.2 1007.7 M 1099.2 1007.7 L 1100.4 1007.1 M 1100.4 1007.1 L 1101.5 1006.5 M 1101.5 1006.5 L 1102.7 1005.8 M 1102.7 1005.8 L 1103.8 1005.2 M 1103.8 1005.2 L 1104.9 1004.4 M 1104.9 1004.4 L 1106 1003.7 M 1106 1003.7 L 1107.1 1002.9 M 1107.1 1002.9 L 1108.1 1002.1 M 1108.1 1002.1 L 1109.1 1001.2 M 1109.1 1001.2 L 1110.1 1000.3 M 1110.1 1000.3 L 1111.1 999.4 M 1111.1 999.4 L 1112 998.5 M 1112 998.5 L 1112.9 997.5 M 1112.9 997.5 L 1113.8 996.5 M 1113.8 996.5 L 1114.7 995.5 M 1114.7 995.5 L 1115.5 994.4 M 1115.5 994.4 L 1116.3 993.4 M 1116.3 993.4 L 1117 992.3 M 1117 992.3 L 1117.7 991.2 M 1117.7 991.2 L 1118.4 990 M 1118.4 990 L 1119.1 988.9 M 1119.1 988.9 L 1119.7 987.7 M 1119.7 987.7 L 1120.3 986.5 M 1120.3 986.5 L 1120.8 985.3 M 1120.8 985.3 L 1121.4 984.1 M 1121.4 984.1 L 1121.8 982.9 M 1121.8 982.9 L 1122.3 981.6 M 1122.3 981.6 L 1122.7 980.4 M 1122.7 980.4 L 1123 979.1 M 1123 979.1 L 1123.4 977.8 M 1123.4 977.8 L 1123.7 976.5 M 1123.7 976.5 L 1123.9 975.2 M 1123.9 975.2 L 1124.1 973.9 M 1124.1 973.9 L 1124.3 972.6 M 1124.3 972.6 L 1124.4 971.3 M 1124.4 971.3 L 1124.5 969.9 M 1124.5 969.9 L 1124.6 968.6 M 1124.6 968.6 L 1124.6 967.3 M 1124.6 967.3 L 1124.6 966 M 1124.6 966 L 1124.5 964.6 M 1124.5 964.6 L 1124.4 963.3 M 1124.4 963.3 L 1124.3 962 M 1124.3 962 L 1124.1 960.7 M 1124.1 960.7 L 1123.9 959.4 M 1123.9 959.4 L 1123.6 958.1 M 1123.6 958.1 L 1123.3 956.8 M 1123.3 956.8 L 1123 955.5 M 1123 955.5 L 1123 55.5 M 1123 55.5 L 1123.2 54.1 M 1123.2 54.1 L 1123.4 52.8 M 1123.4 52.8 L 1123.5 51.4 M 1123.5 51.4 L 1123.6 50 M 1123.6 50 L 1123.6 48.7 M 1123.6 48.7 L 1123.6 47.3 M 1123.6 47.3 L 1123.5 45.9 M 1123.5 45.9 L 1123.5 44.6 M 1123.5 44.6 L 1123.4 43.2 M 1123.4 43.2 L 1123.2 41.8 M 1123.2 41.8 L 1123 40.5 M 1123 40.5 L 1122.8 39.1 M 1122.8 39.1 L 1122.5 37.8 M 1122.5 37.8 L 1122.2 36.4 M 1122.2 36.4 L 1121.8 35.1 M 1121.8 35.1 L 1121.4 33.8 M 1121.4 33.8 L 1121 32.5 M 1121 32.5 L 1120.6 31.2 M 1120.6 31.2 L 1120.1 29.9 M 1120.1 29.9 L 1119.5 28.6 M 1119.5 28.6 L 1118.9 27.4 M 1118.9 27.4 L 1118.3 26.2 M 1118.3 26.2 L 1117.7 24.9 M 1117.7 24.9 L 1117 23.7 M 1117 23.7 L 1116.3 22.6 M 1116.3 22.6 L 1115.6 21.4 M 1115.6 21.4 L 1114.8 20.3 M 1114.8 20.3 L 1114 19.2 M 1114 19.2 L 1113.2 18.1 M 1113.2 18.1 L 1112.3 17 M 1112.3 17 L 1111.4 16 M 1111.4 16 L 1110.5 15 M 1110.5 15 L 1109.5 14 M 1109.5 14 L 1108.5 13 M 1108.5 13 L 1107.5 12.1 M 1107.5 12.1 L 1106.5 11.2 M 1106.5 11.2 L 1105.4 10.3 M 1105.4 10.3 L 1104.3 9.5 M 1104.3 9.5 L 1103.2 8.7 M 1103.2 8.7 L 1102.1 7.9 M 1102.1 7.9 L 1100.9 7.2 M 1100.9 7.2 L 1099.7 6.5 M 1099.7 6.5 L 1098.5 5.8 M 1098.5 5.8 L 1097.3 5.1 M 1097.3 5.1 L 1096.1 4.5 M 1096.1 4.5 L 1094.8 4 M 1094.8 4 L 1093.6 3.4 M 1093.6 3.4 L 1092.3 2.9 M 1092.3 2.9 L 1091 2.5 M 1091 2.5 L 1089.7 2.1 M 1089.7 2.1 L 1088.4 1.7 M 1088.4 1.7 L 1087 1.3 M 1087 1.3 L 1085.7 1 M 1085.7 1 L 1084.4 0.7 M 1084.4 0.7 L 1083 0.5 M 1083 0.5 L 328 0.5 M 328 0.5 L 253 75.5"/><path stroke-width="2" fill="none" d="M 987.3 244 L 992.7 244 M 990 244 L 990 252 M 990 252 L 992.7 249.3 M 996.5 246.7 L 996.5 252 M 1001.9 252 L 1001.9 246.7 M 1001.9 246.7 L 999.2 244 M 999.2 244 L 996.5 246.7 M 1014.9 244 L 1014.9 252 M 1020.3 252 L 1014.9 244 M 1020.3 244 L 1020.3 252 M 1024.2 250.7 L 1025.5 252 M 1025.5 252 L 1028.2 252 M 1028.2 252 L 1029.5 250.7 M 1029.5 250.7 L 1029.5 245.3 M 1029.5 245.3 L 1028.2 244 M 1028.2 244 L 1025.5 244 M 1025.5 244 L 1024.2 245.3"/><path stroke-width="5" fill="none" d="M 973 133.2 L 963 123.2 M 963 123.2 L 963 103.2 M 950.8 108.2 L 930.8 128.2 M 930.8 128.2 L 930.8 108.2 M 930.8 108.2 L 935.8 103.2 M 935.8 103.2 L 945.8 103.2 M 945.8 103.2 L 950.8 108.2 M 950.8 108.2 L 950.8 128.2 M 950.8 128.2 L 945.8 133.2 M 945.8 133.2 L 935.8 133.2 M 935.8 133.2 L 930.8 128.2 M 963 118.2 L 983 118.2 M 983 123.2 L 983 103.2 M 983 123.2 L 973 133.2 M 1016.1 130.2 L 1034.1 130.2 M 1025.1 130.2 L 1025.1 103.2 M 1045.5 107.7 L 1045.5 112.2 M 1045.5 112.2 L 1050 116.7 M 1050 116.7 L 1059 116.7 M 1059 116.7 L 1063.5 121.2 M 1063.5 121.2 L 1063.5 125.7 M 1063.5 125.7 L 1059 130.2 M 1059 130.2 L 1050 130.2 M 1050 130.2 L 1045.5 125.7 M 1045.5 107.7 L 1050 103.2 M 1050 103.2 L 1059 103.2 M 1059 103.2 L 1063.5 107.7 M 1075 103.2 L 1084 112.2 M 1079.5 112.2 L 1093 112.2 M 1093 103.2 L 1093 130.2 M 1093 130.2 L 1079.5 130.2 M 1079.5 130.2 L 1075 125.7 M 1075 125.7 L 1075 116.7 M 1075 116.7 L 1079.5 112.2 M 884.3 103.2 L 864.3 103.2 M 874.3 103.2 L 874.3 133.2 M 874.3 133.2 L 884.3 123.2 M 852.1 118.2 L 852.1 108.2 M 852.1 108.2 L 847.1 103.2 M 847.1 103.2 L 837.1 103.2 M 837.1 103.2 L 832.1 108.2 M 832.1 108.2 L 832.1 113.2 M 832.1 113.2 L 837.1 118.2 M 837.1 118.2 L 852.1 118.2 M 852.1 118.2 L 842.1 128.2 M 842.1 128.2 L 832.1 133.2 M 784.3 123.2 L 774.3 133.2 M 774.3 133.2 L 774.3 103.2 M 784.3 103.2 L 764.3 103.2 M 752.1 118.2 L 732.1 118.2 M 737.1 103.2 L 737.1 133.2 M 737.1 133.2 L 752.1 118.2 M 684.3 123.2 L 674.3 133.2 M 674.3 133.2 L 674.3 103.2 M 684.3 103.2 L 664.3 103.2 M 652.1 103.2 L 632.1 123.2 M 632.1 123.2 L 632.1 128.2 M 632.1 128.2 L 637.1 133.2 M 637.1 133.2 L 647.1 133.2 M 647.1 133.2 L 652.1 128.2 M 652.1 103.2 L 632.1 103.2 M 584.3 103.2 L 564.3 103.2 M 574.3 103.2 L 574.3 133.2 M 574.3 133.2 L 584.3 123.2 M 552.1 128.2 L 547.1 133.2 M 547.1 133.2 L 537.1 133.2 M 537.1 133.2 L 532.1 128.2 M 532.1 128.2 L 532.1 123.2 M 532.1 123.2 L 537.1 118.2 M 537.1 118.2 L 532.1 113.2 M 532.1 113.2 L 532.1 108.2 M 532.1 108.2 L 537.1 103.2 M 537.1 103.2 L 547.1 103.2 M 547.1 103.2 L 552.1 108.2 M 542.1 118.2 L 537.1 118.2 M 485.5 123 L 475.5 133 M 475.5 133 L 475.5 103 M 485.5 103 L 465.5 103 M 453.3 108 L 448.3 103 M 448.3 103 L 438.3 103 M 438.3 103 L 433.3 108 M 433.3 108 L 433.3 118 M 433.3 118 L 438.3 123 M 438.3 123 L 443.3 123 M 443.3 123 L 453.3 118 M 453.3 118 L 453.3 133 M 453.3 133 L 433.3 133 M 393 125.7 L 388.5 130.2 M 388.5 130.2 L 379.5 130.2 M 379.5 130.2 L 375 125.7 M 375 125.7 L 375 121.2 M 375 121.2 L 379.5 116.7 M 379.5 116.7 L 375 112.2 M 375 112.2 L 375 107.7 M 375 107.7 L 379.5 103.2 M 379.5 103.2 L 388.5 103.2 M 388.5 103.2 L 393 107.7 M 384 116.7 L 379.5 116.7 M 363.5 112.2 L 363.5 130.2 M 363.5 112.2 L 354.5 103.2 M 354.5 103.2 L 345.5 112.2 M 345.5 112.2 L 345.5 130.2 M 334.1 125.7 L 329.6 130.2 M 329.6 130.2 L 320.6 130.2 M 320.6 130.2 L 316.1 125.7 M 316.1 125.7 L 316.1 121.2 M 316.1 121.2 L 320.6 116.7 M 320.6 116.7 L 316.1 112.2 M 316.1 112.2 L 316.1 107.7 M 316.1 107.7 L 320.6 103.2 M 320.6 103.2 L 329.6 103.2 M 329.6 103.2 L 334.1 107.7 M 325.1 116.7 L 320.6 116.7 M 403.3 199 L 507.7 199 M 507.7 199 L 507.7 262 M 507.7 262 L 403.3 262 M 403.3 262 L 403.3 199 M 445.5 210.5 L 475.5 230.5 M 475.5 230.5 L 445.5 250.5 M 445.5 250.5 L 445.5 210.5 M 445.5 214.9 L 452.1 214.9 M 445.5 219.9 L 459.5 219.9 M 467 224.8 L 445.5 224.8 M 445.5 229.8 L 474.5 229.8 M 469 234.8 L 445.5 234.8 M 445.5 239.8 L 461.6 239.8 M 454.1 244.8 L 445.5 244.8 M 445.5 249.8 L 446.6 249.8 M 445.5 285.5 L 475.5 305.5 M 475.5 305.5 L 445.5 325.5 M 445.5 325.5 L 445.5 285.5 M 445.5 289.7 L 451.7 289.7 M 445.5 294.6 L 459.2 294.6 M 466.7 299.6 L 445.5 299.6 M 445.5 304.6 L 474.2 304.6 M 469.4 309.6 L 445.5 309.6 M 445.5 314.6 L 461.9 314.6 M 454.4 319.6 L 445.5 319.6 M 445.5 324.6 L 446.9 324.6 M 403.3 337 L 403.3 274 M 403.3 274 L 507.7 274 M 507.7 274 L 507.7 337 M 507.7 337 L 403.3 337 M 403.3 354 L 507.7 354 M 507.7 354 L 507.7 417 M 507.7 417 L 403.3 417 M 403.3 417 L 403.3 354 M 445.5 365.5 L 475.5 385.5 M 475.5 385.5 L 445.5 405.5 M 445.5 405.5 L 445.5 365.5 M 445.5 369.4 L 451.4 369.4 M 445.5 374.4 L 458.9 374.4 M 466.3 379.4 L 445.5 379.4 M 445.5 384.4 L 473.8 384.4 M 469.7 389.4 L 445.5 389.4 M 445.5 394.3 L 462.2 394.3 M 454.8 399.3 L 445.5 399.3 M 445.5 404.3 L 447.3 404.3 M 568 410.5 L 568 392.5 M 568 392.5 L 586 410.5 M 586 410.5 L 590.5 410.5 M 590.5 410.5 L 595 406 M 595 406 L 595 397 M 595 397 L 590.5 392.5 M 590.5 381 L 595 376.5 M 595 376.5 L 595 363 M 595 363 L 568 363 M 568 363 L 568 376.5 M 568 376.5 L 572.5 381 M 572.5 381 L 590.5 381 M 590.5 325.5 L 586 325.5 M 586 325.5 L 581.5 321 M 581.5 321 L 577 325.5 M 577 325.5 L 572.5 325.5 M 572.5 325.5 L 568 321 M 568 321 L 568 312 M 568 312 L 572.5 307.5 M 572.5 296 L 590.5 296 M 590.5 296 L 595 291.5 M 595 291.5 L 595 278 M 595 278 L 568 278 M 568 278 L 568 291.5 M 568 291.5 L 572.5 296 M 590.5 307.5 L 595 312 M 595 312 L 595 321 M 595 321 L 590.5 325.5 M 581.5 321 L 581.5 316.5 M 581.5 250.5 L 581.5 232.5 M 581.5 232.5 L 595 246 M 595 246 L 568 246 M 572.5 221 L 590.5 221 M 590.5 221 L 595 216.5 M 595 216.5 L 595 203 M 595 203 L 568 203 M 568 203 L 568 216.5 M 568 216.5 L 572.5 221 M 304 228.6 L 277 228.6 M 277 219.6 L 277 237.6 M 277 249.1 L 304 249.1 M 304 249.1 L 277 267.1 M 277 267.1 L 304 267.1 M 290.5 278.5 L 290.5 296.6 M 295 308 L 304 317 M 304 317 L 277 317 M 277 308 L 277 326 M 290.5 337.5 L 290.5 355.5 M 286 366.9 L 290.5 371.4 M 290.5 371.4 L 290.5 380.4 M 290.5 380.4 L 286 385 M 286 385 L 281.5 385 M 281.5 385 L 277 380.4 M 277 380.4 L 277 371.4 M 277 371.4 L 281.5 366.9 M 281.5 366.9 L 286 366.9 M 290.5 371.4 L 295 366.9 M 295 366.9 L 299.5 366.9 M 299.5 366.9 L 304 371.4 M 304 371.4 L 304 380.4 M 304 380.4 L 299.5 385 M 299.5 385 L 295 385 M 295 385 L 290.5 380.4 M 277 351 L 304 351 M 304 351 L 290.5 337.5 M 277 292 L 304 292 M 304 292 L 290.5 278.5 M 304 228.6 L 295 219.6 M 339.6 878.2 L 330.6 887.2 M 330.6 887.2 L 330.6 905.2 M 348.6 905.2 L 348.6 887.2 M 348.6 887.2 L 339.6 878.2 M 360.1 882.7 L 364.6 878.2 M 364.6 878.2 L 373.6 878.2 M 373.6 878.2 L 378.1 882.7 M 378.1 891.7 L 369.1 896.2 M 369.1 896.2 L 364.6 896.2 M 364.6 896.2 L 360.1 891.7 M 360.1 891.7 L 360.1 882.7 M 378.1 891.7 L 378.1 905.2 M 378.1 905.2 L 360.1 905.2 M 416.1 900.7 L 416.1 882.7 M 416.1 882.7 L 420.6 878.2 M 420.6 878.2 L 434.1 878.2 M 434.1 878.2 L 434.1 905.2 M 434.1 905.2 L 420.6 905.2 M 420.6 905.2 L 416.1 900.7 M 445.5 905.2 L 445.5 878.2 M 445.5 878.2 L 463.5 905.2 M 463.5 905.2 L 463.5 878.2 M 475 882.7 L 475 891.7 M 475 891.7 L 484 891.7 M 475 900.7 L 479.5 905.2 M 479.5 905.2 L 488.5 905.2 M 488.5 905.2 L 493 900.7 M 493 900.7 L 493 882.7 M 493 882.7 L 488.5 878.2 M 488.5 878.2 L 479.5 878.2 M 479.5 878.2 L 475 882.7 M 546.8 878.2 L 566.8 878.2 M 566.8 878.2 L 546.8 898.2 M 546.8 898.2 L 546.8 903.2 M 546.8 903.2 L 551.8 908.2 M 551.8 908.2 L 561.8 908.2 M 561.8 908.2 L 566.8 903.2 M 648.1 899.5 L 648.1 879.5 M 648.1 879.5 L 653.1 874.5 M 653.1 874.5 L 663.1 874.5 M 663.1 874.5 L 668.1 879.5 M 668.1 879.5 L 648.1 899.5 M 648.1 899.5 L 653.1 904.5 M 653.1 904.5 L 663.1 904.5 M 663.1 904.5 L 668.1 899.5 M 668.1 899.5 L 668.1 879.5 M 748.1 893.2 L 768.1 893.2 M 768.1 893.2 L 753.1 908.2 M 753.1 908.2 L 753.1 878.2 M 846.8 883.2 L 851.8 878.2 M 851.8 878.2 L 861.8 878.2 M 861.8 878.2 L 866.8 883.2 M 866.8 893.2 L 856.8 898.2 M 856.8 898.2 L 851.8 898.2 M 851.8 898.2 L 846.8 893.2 M 846.8 893.2 L 846.8 883.2 M 866.8 893.2 L 866.8 908.2 M 866.8 908.2 L 846.8 908.2 M 930.8 908.2 L 950.8 878.2 M 963 878.2 L 973 888.2 M 968 888.2 L 983 888.2 M 983 878.2 L 983 908.2 M 983 908.2 L 968 908.2 M 968 908.2 L 963 903.2 M 963 903.2 L 963 893.2 M 963 893.2 L 968 888.2 M 950.8 908.2 L 930.8 878.2 M 1030.8 878.2 L 1050.8 908.2 M 1063 908.2 L 1083 908.2 M 1073 908.2 L 1073 878.2 M 1050.8 878.2 L 1030.8 908.2"/><path stroke-width="10" fill="none" d="M 77.5 872 L 76.9 871.2 M 76.9 871.2 L 76.4 870.3 M 76.4 870.3 L 75.9 869.5 M 75.9 869.5 L 75.5 868.6 M 75.5 868.6 L 75.1 867.7 M 75.1 867.7 L 74.7 866.7 M 74.7 866.7 L 74.3 865.8 M 74.3 865.8 L 74 864.9 M 74 864.9 L 73.7 863.9 M 73.7 863.9 L 73.5 862.9 M 73.5 862.9 L 73.3 862 M 73.3 862 L 73.1 861 M 73.1 861 L 73 860 M 73 860 L 72.9 859 M 72.9 859 L 72.8 858 M 72.8 858 L 72.8 857 M 72.8 857 L 72.8 856 M 72.8 856 L 72.9 855 M 72.9 855 L 73 854 M 73 854 L 73.1 853 M 73.1 853 L 73.3 852 M 73.3 852 L 73.5 851.1 M 73.5 851.1 L 73.7 850.1 M 73.7 850.1 L 74 849.1 M 74 849.1 L 74.3 848.2 M 74.3 848.2 L 74.7 847.3 M 74.7 847.3 L 75.1 846.4 M 75.1 846.4 L 75.5 845.4 M 75.5 845.4 L 75.9 844.6 M 75.9 844.6 L 76.4 843.7 M 76.4 843.7 L 76.9 842.8 M 76.9 842.8 L 77.5 842 M 47.5 809 L 46.4 810.1 M 46.4 810.1 L 45.3 811.3 M 45.3 811.3 L 44.3 812.5 M 44.3 812.5 L 43.2 813.7 M 43.2 813.7 L 42.2 814.9 M 42.2 814.9 L 41.3 816.2 M 41.3 816.2 L 40.4 817.5 M 40.4 817.5 L 39.5 818.8 M 39.5 818.8 L 38.6 820.1 M 38.6 820.1 L 37.8 821.5 M 37.8 821.5 L 37 822.9 M 37 822.9 L 36.2 824.3 M 36.2 824.3 L 35.5 825.7 M 35.5 825.7 L 34.8 827.1 M 34.8 827.1 L 34.2 828.6 M 34.2 828.6 L 33.5 830 M 33.5 830 L 33 831.5 M 33 831.5 L 32.4 833 M 32.4 833 L 31.9 834.5 M 31.9 834.5 L 31.5 836 M 31.5 836 L 31 837.5 M 31 837.5 L 30.6 839.1 M 30.6 839.1 L 30.3 840.6 M 30.3 840.6 L 30 842.2 M 30 842.2 L 29.7 843.7 M 29.7 843.7 L 29.5 845.3 M 29.5 845.3 L 29.3 846.9 M 29.3 846.9 L 29.1 848.5 M 29.1 848.5 L 29 850 M 29 850 L 28.9 851.6 M 28.9 851.6 L 28.9 853.2 M 28.9 853.2 L 28.9 854.8 M 28.9 854.8 L 28.9 856.4 M 28.9 856.4 L 29 858 M 29 858 L 29.1 859.6 M 29.1 859.6 L 29.3 861.1 M 29.3 861.1 L 29.5 862.7 M 29.5 862.7 L 29.7 864.3 M 29.7 864.3 L 30 865.8 M 30 865.8 L 30.3 867.4 M 30.3 867.4 L 30.6 868.9 M 30.6 868.9 L 31 870.5 M 31 870.5 L 31.5 872 M 31.5 872 L 31.9 873.5 M 31.9 873.5 L 32.4 875 M 32.4 875 L 33 876.5 M 33 876.5 L 33.5 878 M 33.5 878 L 34.2 879.5 M 34.2 879.5 L 34.8 880.9 M 34.8 880.9 L 35.5 882.3 M 35.5 882.3 L 36.2 883.7 M 36.2 883.7 L 37 885.1 M 37 885.1 L 37.8 886.5 M 37.8 886.5 L 38.6 887.9 M 38.6 887.9 L 39.5 889.2 M 39.5 889.2 L 40.4 890.5 M 40.4 890.5 L 41.3 891.8 M 41.3 891.8 L 42.2 893.1 M 42.2 893.1 L 43.2 894.3 M 43.2 894.3 L 44.3 895.5 M 44.3 895.5 L 45.3 896.7 M 45.3 896.7 L 46.4 897.9 M 46.4 897.9 L 47.5 899 M 63 886 L 62.1 885 M 62.1 885 L 61.3 884 M 61.3 884 L 60.5 883 M 60.5 883 L 59.7 881.9 M 59.7 881.9 L 58.9 880.8 M 58.9 880.8 L 58.2 879.7 M 58.2 879.7 L 57.5 878.6 M 57.5 878.6 L 56.9 877.5 M 56.9 877.5 L 56.3 876.3 M 56.3 876.3 L 55.7 875.1 M 55.7 875.1 L 55.1 873.9 M 55.1 873.9 L 54.6 872.7 M 54.6 872.7 L 54.1 871.5 M 54.1 871.5 L 53.7 870.2 M 53.7 870.2 L 53.3 869 M 53.3 869 L 52.9 867.7 M 52.9 867.7 L 52.6 866.4 M 52.6 866.4 L 52.3 865.2 M 52.3 865.2 L 52.1 863.9 M 52.1 863.9 L 51.9 862.6 M 51.9 862.6 L 51.7 861.3 M 51.7 861.3 L 51.5 860 M 51.5 860 L 51.4 858.6 M 51.4 858.6 L 51.4 857.3 M 51.4 857.3 L 51.4 856 M 51.4 856 L 51.4 854.7 M 51.4 854.7 L 51.4 853.4 M 51.4 853.4 L 51.5 852.1 M 51.5 852.1 L 51.7 850.7 M 51.7 850.7 L 51.9 849.4 M 51.9 849.4 L 52.1 848.1 M 52.1 848.1 L 52.3 846.9 M 52.3 846.9 L 52.6 845.6 M 52.6 845.6 L 52.9 844.3 M 52.9 844.3 L 53.3 843 M 53.3 843 L 53.7 841.8 M 53.7 841.8 L 54.1 840.5 M 54.1 840.5 L 54.6 839.3 M 54.6 839.3 L 55.1 838.1 M 55.1 838.1 L 55.7 836.9 M 55.7 836.9 L 56.3 835.7 M 56.3 835.7 L 56.9 834.5 M 56.9 834.5 L 57.5 833.4 M 57.5 833.4 L 58.2 832.3 M 58.2 832.3 L 58.9 831.2 M 58.9 831.2 L 59.7 830.1 M 59.7 830.1 L 60.5 829 M 60.5 829 L 61.3 828 M 61.3 828 L 62.1 827 M 62.1 827 L 63 826"/></g></g><use class="pcb_board-cf" mask="url(#pcb_bottom-cu_finish-mask)" xlink:href="#pcb_bottom-sm"/></g><g id="pcb_bottom-out" class="pcb_board-out" fill="currentColor" stroke="currentColor"><path stroke-width="1" fill="none" d="M 53 75.5 L 51.6 75.5 L 50.2 75.6 L 48.7 75.7 L 47.3 75.8 L 45.9 76 L 44.5 76.2 L 43.1 76.4 L 41.7 76.7 L 40.3 77.1 L 39 77.4 L 37.6 77.8 L 36.2 78.3 L 34.9 78.7 L 33.6 79.2 L 32.3 79.8 L 31 80.4 L 29.7 81 L 28.4 81.6 L 27.2 82.3 L 25.9 83 L 24.7 83.8 L 23.5 84.6 L 22.4 85.4 L 21.2 86.2 L 20.1 87.1 L 19 88 L 17.9 88.9 L 16.9 89.9 L 15.9 90.9 L 14.9 91.9 L 13.9 92.9 L 13 94 L 12.1 95.1 L 11.2 96.2 L 10.4 97.4 L 9.6 98.5 L 8.8 99.7 L 8 100.9 L 7.3 102.2 L 6.6 103.4 L 6 104.7 L 5.4 106 L 4.8 107.3 L 4.2 108.6 L 3.7 109.9 L 3.3 111.2 L 2.8 112.6 L 2.4 114 L 2.1 115.3 L 1.7 116.7 L 1.4 118.1 L 1.2 119.5 L 1 120.9 L 0.8 122.3 L 0.7 123.7 L 0.6 125.2 L 0.5 126.6 L 0.5 128 L 0.5 125.5 M 53 75.5 L 253 75.5 L 328 0.5 L 1083 0.5 L 1084.4 0.7 L 1085.7 1 L 1087 1.3 L 1088.4 1.7 L 1089.7 2.1 L 1091 2.5 L 1092.3 2.9 L 1093.6 3.4 L 1094.8 4 L 1096.1 4.5 L 1097.3 5.1 L 1098.5 5.8 L 1099.7 6.5 L 1100.9 7.2 L 1102.1 7.9 L 1103.2 8.7 L 1104.3 9.5 L 1105.4 10.3 L 1106.5 11.2 L 1107.5 12.1 L 1108.5 13 L 1109.5 14 L 1110.5 15 L 1111.4 16 L 1112.3 17 L 1113.2 18.1 L 1114 19.2 L 1114.8 20.3 L 1115.6 21.4 L 1116.3 22.6 L 1117 23.7 L 1117.7 24.9 L 1118.3 26.2 L 1118.9 27.4 L 1119.5 28.6 L 1120.1 29.9 L 1120.6 31.2 L 1121 32.5 L 1121.4 33.8 L 1121.8 35.1 L 1122.2 36.4 L 1122.5 37.8 L 1122.8 39.1 L 1123 40.5 L 1123.2 41.8 L 1123.4 43.2 L 1123.5 44.6 L 1123.5 45.9 L 1123.6 47.3 L 1123.6 48.7 L 1123.6 50 L 1123.5 51.4 L 1123.4 52.8 L 1123.2 54.1 L 1123 55.5 L 1123 955.5 L 1123.3 956.8 L 1123.6 958.1 L 1123.9 959.4 L 1124.1 960.7 L 1124.3 962 L 1124.4 963.3 L 1124.5 964.6 L 1124.6 966 L 1124.6 967.3 L 1124.6 968.6 L 1124.5 969.9 L 1124.4 971.3 L 1124.3 972.6 L 1124.1 973.9 L 1123.9 975.2 L 1123.7 976.5 L 1123.4 977.8 L 1123 979.1 L 1122.7 980.4 L 1122.3 981.6 L 1121.8 982.9 L 1121.4 984.1 L 1120.8 985.3 L 1120.3 986.5 L 1119.7 987.7 L 1119.1 988.9 L 1118.4 990 L 1117.7 991.2 L 1117 992.3 L 1116.3 993.4 L 1115.5 994.4 L 1114.7 995.5 L 1113.8 996.5 L 1112.9 997.5 L 1112 998.5 L 1111.1 999.4 L 1110.1 1000.3 L 1109.1 1001.2 L 1108.1 1002.1 L 1107.1 1002.9 L 1106 1003.7 L 1104.9 1004.4 L 1103.8 1005.2 L 1102.7 1005.8 L 1101.5 1006.5 L 1100.4 1007.1 L 1099.2 1007.7 L 1098 1008.3 L 1096.8 1008.8 L 1095.5 1009.3 L 1094.3 1009.7 L 1093 1010.1 L 1091.7 1010.5 M 1091.8 1010.5 L 55.5 1010.5 L 54 1010.5 L 52.6 1010.4 L 51.1 1010.3 L 49.7 1010.2 L 48.2 1010 L 46.8 1009.8 L 45.3 1009.6 L 43.9 1009.3 L 42.5 1008.9 L 41 1008.6 L 39.6 1008.2 L 38.2 1007.7 L 36.8 1007.2 L 35.5 1006.7 L 34.1 1006.2 L 32.8 1005.6 L 31.5 1005 L 30.1 1004.3 L 28.9 1003.6 L 27.6 1002.9 L 26.3 1002.1 L 25.1 1001.3 L 23.9 1000.5 L 22.7 999.7 L 21.5 998.8 L 20.4 997.8 L 19.3 996.9 L 18.2 995.9 L 17.1 994.9 L 16.1 993.9 L 15.1 992.8 L 14.1 991.7 L 13.2 990.6 L 12.2 989.5 L 11.4 988.3 L 10.5 987.1 L 9.7 985.9 L 8.9 984.7 L 8.1 983.4 L 7.4 982.2 L 6.7 980.9 L 6 979.6 L 5.4 978.2 L 4.8 976.9 L 4.3 975.5 L 3.8 974.2 L 3.3 972.8 L 2.8 971.4 L 2.4 970 L 2.1 968.5 L 1.7 967.1 L 1.5 965.7 L 1.2 964.3 L 1 962.8 L 0.8 961.4 L 0.7 959.9 L 0.6 958.4 L 0.5 957 L 0.5 955.5 L 0.5 128 M 55.5 1010.5 L 54.3 1010.5"/></g></g></svg>