<?xml-stylesheet href="https://s3.amazonaws.com/maker.works.boards/css/blackpcb.css" type="text/css"?><svg xmlns="http://www.w3.org/2000/svg" version="1.1" xmlns:xlink="http://www.w3.org/1999/xlink" stroke-width="0" stroke-linecap="round" stroke-linejoin="round" width="1.1251in" height="1.0110000000000001in" id="pcb_top" viewBox="0 0 1125.1 1011"><defs><circle cx="0" cy="0" r="7" id="tool-T10-pad-1000"/><circle cx="0" cy="0" r="11" id="tool-T11-pad-1001"/><circle cx="0" cy="0" r="20" id="tool-T12-pad-1002"/><circle cx="0" cy="0" r="37" id="tool-D10-pad-1022"/><rect x="-22.75" y="-25.6" width="45.5" height="51.2" id="tool-D11-pad-1023"/><rect x="-39.35" y="-25" width="78.7" height="50" id="tool-D12-pad-1024"/><circle cx="0" cy="0" r="25" id="tool-D14-pad-1026"/><rect x="-85" y="-30" width="170" height="60" id="tool-D15-pad-1027"/><circle cx="0" cy="0" r="14" id="tool-D17-pad-1029"/><circle cx="0" cy="0" r="40" id="tool-D10-pad-1044"/><rect x="-25.75" y="-28.6" width="51.5" height="57.2" id="tool-D11-pad-1045"/><rect x="-42.35" y="-28" width="84.7" height="56" id="tool-D12-pad-1046"/><circle cx="0" cy="0" r="28" id="tool-D14-pad-1048"/><rect x="-88" y="-33" width="176" height="66" id="tool-D15-pad-1049"/><g id="pcb_top-cu" fill="currentColor" stroke="currentColor"><use x="355.5" y="55.5" xlink:href="#tool-D10-pad-1022"/><use x="455.5" y="55.5" xlink:href="#tool-D10-pad-1022"/><use x="555.5" y="55.5" xlink:href="#tool-D10-pad-1022"/><use x="655.5" y="55.5" xlink:href="#tool-D10-pad-1022"/><use x="755.5" y="55.5" xlink:href="#tool-D10-pad-1022"/><use x="855.5" y="55.5" xlink:href="#tool-D10-pad-1022"/><use x="955.5" y="55.5" xlink:href="#tool-D10-pad-1022"/><use x="1055.5" y="55.5" xlink:href="#tool-D10-pad-1022"/><use x="1055.5" y="955.5" xlink:href="#tool-D10-pad-1022"/><use x="955.5" y="955.5" xlink:href="#tool-D10-pad-1022"/><use x="855.5" y="955.5" xlink:href="#tool-D10-pad-1022"/><use x="755.5" y="955.5" xlink:href="#tool-D10-pad-1022"/><use x="655.5" y="955.5" xlink:href="#tool-D10-pad-1022"/><use x="555.5" y="955.5" xlink:href="#tool-D10-pad-1022"/><use x="455.5" y="955.5" xlink:href="#tool-D10-pad-1022"/><use x="355.5" y="955.5" xlink:href="#tool-D10-pad-1022"/><use x="174.9" y="568" xlink:href="#tool-D11-pad-1023"/><use x="86.1" y="568" xlink:href="#tool-D11-pad-1023"/><use x="86.1" y="468" xlink:href="#tool-D11-pad-1023"/><use x="174.9" y="468" xlink:href="#tool-D11-pad-1023"/><use x="278" y="466.1" xlink:href="#tool-D12-pad-1024"/><use x="278" y="387.4" xlink:href="#tool-D12-pad-1024"/><use x="278" y="304.9" xlink:href="#tool-D12-pad-1024"/><use x="278" y="229.9" xlink:href="#tool-D12-pad-1024"/><use x="278" y="702.4" xlink:href="#tool-D12-pad-1024"/><use x="278" y="781.1" xlink:href="#tool-D12-pad-1024"/><use x="908.3" y="781.1" xlink:href="#tool-D12-pad-1024"/><use x="908" y="699.9" xlink:href="#tool-D12-pad-1024"/><use x="908" y="619.9" xlink:href="#tool-D12-pad-1024"/><use x="908" y="544.9" xlink:href="#tool-D12-pad-1024"/><use x="908.3" y="465.7" xlink:href="#tool-D12-pad-1024"/><use x="908" y="387.4" xlink:href="#tool-D12-pad-1024"/><use x="908.3" y="308.7" xlink:href="#tool-D12-pad-1024"/><use x="908" y="229.9" xlink:href="#tool-D12-pad-1024"/><path stroke-width="8" fill="none" d="M 182.8 839.5 L 130.8 839.5 M 130.8 839.5 L 130.8 871.5 M 130.8 871.5 L 182.8 871.5 M 182.8 871.5 L 182.8 839.5 M 182.8 847.5 L 130.8 847.5 M 130.8 855.5 L 182.8 855.5 M 182.8 863.5 L 130.8 863.5 M 130.8 871.5 L 182.8 871.5 M 132.3 897.4 L 53.7 897.4 M 53.7 897.4 L 53.7 929.4 M 53.7 929.4 L 132.3 929.4 M 132.3 929.4 L 132.3 897.4 M 132.3 905.4 L 53.7 905.4 M 53.7 913.4 L 132.3 913.4 M 132.3 921.4 L 53.7 921.4 M 53.7 929.3 L 132.3 929.3 M 132.3 781.6 L 53.7 781.6 M 53.7 781.6 L 53.7 813.6 M 53.7 813.6 L 132.3 813.6 M 132.3 813.6 L 132.3 781.6 M 132.3 789.6 L 53.7 789.6 M 53.7 797.6 L 132.3 797.6 M 132.3 805.6 L 53.7 805.6 M 53.7 813.6 L 132.3 813.6"/><use x="205.5" y="855.5" xlink:href="#tool-D14-pad-1026"/><use x="98" y="955.5" xlink:href="#tool-D15-pad-1027"/><use x="98" y="755.5" xlink:href="#tool-D15-pad-1027"/><path stroke-width="10" fill="none" d="M 35.2 101.4 L 46.8 96.6 M 46.8 96.6 L 53 96 M 53 96 L 261.5 96 M 261.5 96 L 273.5 84 M 273.5 84 L 301.5 56 M 301.5 56 L 301.5 66.2 M 301.5 66.2 L 309.7 86.1 M 309.7 86.1 L 324.9 101.3 M 324.9 101.3 L 344.8 109.5 M 344.8 109.5 L 366.2 109.5 M 366.2 109.5 L 371.8 107.2 M 371.8 107.2 L 380.5 115.9 M 380.5 115.9 L 380.5 443 M 380.5 443 L 334.4 443 M 334.4 443 L 334.4 434.1 M 334.4 434.1 L 327.1 426.8 M 327.1 426.8 L 334.4 419.4 M 334.4 419.4 L 334.4 414.5 M 334.4 414.5 L 339.3 416.5 M 339.3 416.5 L 351.7 416.5 M 351.7 416.5 L 363.1 411.8 M 363.1 411.8 L 371.8 403.1 M 371.8 403.1 L 376.5 391.7 M 376.5 391.7 L 376.5 379.3 M 376.5 379.3 L 371.8 367.9 M 371.8 367.9 L 363.1 359.2 M 363.1 359.2 L 351.7 354.5 M 351.7 354.5 L 339.3 354.5 M 339.3 354.5 L 334.4 356.5 M 334.4 356.5 L 334.4 355.4 M 334.4 355.4 L 325.2 346.1 M 325.2 346.1 L 334.3 337 M 334.3 337 L 334.3 334.4 M 334.3 334.4 L 339.3 336.5 M 339.3 336.5 L 351.7 336.5 M 351.7 336.5 L 363.1 331.8 M 363.1 331.8 L 371.8 323.1 M 371.8 323.1 L 376.5 311.7 M 376.5 311.7 L 376.5 299.3 M 376.5 299.3 L 371.8 287.9 M 371.8 287.9 L 363.1 279.2 M 363.1 279.2 L 351.7 274.5 M 351.7 274.5 L 339.3 274.5 M 339.3 274.5 L 334.3 276.6 M 334.3 276.6 L 334.3 272.9 M 334.3 272.9 L 328.9 267.4 M 328.9 267.4 L 334.3 262 M 334.3 262 L 334.3 259.4 M 334.3 259.4 L 339.3 261.5 M 339.3 261.5 L 351.7 261.5 M 351.7 261.5 L 363.1 256.8 M 363.1 256.8 L 371.8 248.1 M 371.8 248.1 L 376.5 236.7 M 376.5 236.7 L 376.5 224.3 M 376.5 224.3 L 371.8 212.9 M 371.8 212.9 L 363.1 204.2 M 363.1 204.2 L 351.7 199.5 M 351.7 199.5 L 339.3 199.5 M 339.3 199.5 L 334.3 201.6 M 334.3 201.6 L 334.3 197.9 M 334.3 197.9 L 324.4 187.9 M 324.4 187.9 L 231.5 187.9 M 231.5 187.9 L 221.6 197.9 M 221.6 197.9 L 221.6 262 M 221.6 262 L 227.1 267.4 M 227.1 267.4 L 221.6 272.9 M 221.6 272.9 L 221.6 337 M 221.6 337 L 230.8 346.2 M 230.8 346.2 L 221.7 355.4 M 221.7 355.4 L 221.7 419.4 M 221.7 419.4 L 229 426.8 M 229 426.8 L 221.7 434.1 M 221.7 434.1 L 221.7 441.1 M 221.7 441.1 L 214.6 441.1 M 214.6 441.1 L 214.6 435.4 M 214.6 435.4 L 204.7 425.4 M 204.7 425.4 L 145.1 425.4 M 145.1 425.4 L 135.1 435.4 M 135.1 435.4 L 135.1 500.6 M 135.1 500.6 L 145.1 510.6 M 145.1 510.6 L 145.9 510.6 M 145.9 510.6 L 145.9 525.4 M 145.9 525.4 L 145.1 525.4 M 145.1 525.4 L 135.1 535.4 M 135.1 535.4 L 135.1 600.6 M 135.1 600.6 L 145.1 610.6 M 145.1 610.6 L 204.7 610.6 M 204.7 610.6 L 214.6 600.6 M 214.6 600.6 L 214.6 535.4 M 214.6 535.4 L 204.7 525.4 M 204.7 525.4 L 203.9 525.4 M 203.9 525.4 L 203.9 510.6 M 203.9 510.6 L 204.7 510.6 M 204.7 510.6 L 214.6 500.6 M 214.6 500.6 L 214.6 491.1 M 214.6 491.1 L 221.7 491.1 M 221.7 491.1 L 221.7 498.2 M 221.7 498.2 L 231.6 508.1 M 231.6 508.1 L 324.5 508.1 M 324.5 508.1 L 334.4 498.2 M 334.4 498.2 L 334.4 493 M 334.4 493 L 410.5 493 M 410.5 493 L 419.7 489.2 M 419.7 489.2 L 426.7 482.2 M 426.7 482.2 L 430.5 473 M 430.5 473 L 430.5 103.6 M 430.5 103.6 L 444.8 109.5 M 444.8 109.5 L 466.2 109.5 M 466.2 109.5 L 486.1 101.3 M 486.1 101.3 L 501.3 86.1 M 501.3 86.1 L 505.5 75.9 M 505.5 75.9 L 509.7 86.1 M 509.7 86.1 L 524.9 101.3 M 524.9 101.3 L 532.5 104.4 M 532.5 104.4 L 532.5 215 M 532.5 215 L 714.4 396.9 M 714.4 396.9 L 727.9 410.4 M 727.9 410.4 L 731.8 410.4 M 731.8 410.4 L 729.2 412.9 M 729.2 412.9 L 724.5 424.3 M 724.5 424.3 L 724.5 436.7 M 724.5 436.7 L 729.2 448.1 M 729.2 448.1 L 737.9 456.8 M 737.9 456.8 L 749.3 461.5 M 749.3 461.5 L 754 461.5 M 754 461.5 L 781.1 488.7 M 781.1 488.7 L 851.9 488.7 M 851.9 488.7 L 851.9 497.7 M 851.9 497.7 L 859.3 505.1 M 859.3 505.1 L 851.6 512.8 M 851.6 512.8 L 851.6 521.9 M 851.6 521.9 L 546 521.9 M 546 521.9 L 532.5 535.3 M 532.5 535.3 L 532.5 906.6 M 532.5 906.6 L 524.9 909.7 M 524.9 909.7 L 509.7 924.9 M 509.7 924.9 L 504.4 937.7 M 504.4 937.7 L 503.7 935.5 M 503.7 935.5 L 500 928.3 M 500 928.3 L 495.2 921.6 M 495.2 921.6 L 489.4 915.8 M 489.4 915.8 L 482.8 911 M 482.8 911 L 475.5 907.3 M 475.5 907.3 L 467.7 904.8 M 467.7 904.8 L 460.5 903.6 M 460.5 903.6 L 460.5 950.5 M 460.5 950.5 L 450.5 950.5 M 450.5 950.5 L 450.5 903.6 M 450.5 903.6 L 443.3 904.8 M 443.3 904.8 L 435.5 907.3 M 435.5 907.3 L 428.3 911 M 428.3 911 L 421.6 915.8 M 421.6 915.8 L 415.8 921.6 M 415.8 921.6 L 411 928.3 M 411 928.3 L 407.3 935.5 M 407.3 935.5 L 406.6 937.7 M 406.6 937.7 L 401.3 924.9 M 401.3 924.9 L 386.1 909.7 M 386.1 909.7 L 366.2 901.5 M 366.2 901.5 L 344.8 901.5 M 344.8 901.5 L 324.9 909.7 M 324.9 909.7 L 309.7 924.9 M 309.7 924.9 L 301.5 944.8 M 301.5 944.8 L 301.5 966.2 M 301.5 966.2 L 309.7 986.1 M 309.7 986.1 L 313.6 990 M 313.6 990 L 197.3 990 M 197.3 990 L 198 987.5 M 198 987.5 L 198 960.5 M 198 960.5 L 103 960.5 M 103 960.5 L 103 950.5 M 103 950.5 L 198 950.5 M 198 950.5 L 198 923.5 M 198 923.5 L 197 919.7 M 197 919.7 L 195 916.3 M 195 916.3 L 192.2 913.5 M 192.2 913.5 L 188.8 911.5 M 188.8 911.5 L 185 910.5 M 185 910.5 L 103 910.5 M 103 910.5 L 103 918.4 M 103 918.4 L 98 918.4 M 98 918.4 L 98 908.4 M 98 908.4 L 151.3 908.4 M 151.3 908.4 L 151.3 894.9 M 151.3 894.9 L 150.7 892.5 M 150.7 892.5 L 185.1 892.5 M 185.1 892.5 L 197.2 897.5 M 197.2 897.5 L 213.9 897.5 M 213.9 897.5 L 229.3 891.1 M 229.3 891.1 L 241.1 879.3 M 241.1 879.3 L 247.5 863.9 M 247.5 863.9 L 247.5 860.2 M 247.5 860.2 L 282.9 824.8 M 282.9 824.8 L 283.6 823.1 M 283.6 823.1 L 324.5 823.1 M 324.5 823.1 L 334.4 813.1 M 334.4 813.1 L 334.4 749.1 M 334.4 749.1 L 325.4 740.1 M 325.4 740.1 L 326.6 739.3 M 326.6 739.3 L 329.4 736.6 M 329.4 736.6 L 331.4 733.1 M 331.4 733.1 L 332.4 729.3 M 332.4 729.3 L 332.4 707.4 M 332.4 707.4 L 283 707.4 M 283 707.4 L 283 697.4 M 283 697.4 L 332.4 697.4 M 332.4 697.4 L 332.4 675.4 M 332.4 675.4 L 331.4 671.6 M 331.4 671.6 L 329.4 668.1 M 329.4 668.1 L 326.6 665.4 M 326.6 665.4 L 323.2 663.4 M 323.2 663.4 L 319.4 662.4 M 319.4 662.4 L 283 662.4 M 283 662.4 L 283 697.4 M 283 697.4 L 273 697.4 M 273 697.4 L 273 662.4 M 273 662.4 L 236.7 662.4 M 236.7 662.4 L 232.9 663.4 M 232.9 663.4 L 229.5 665.4 M 229.5 665.4 L 226.7 668.1 M 226.7 668.1 L 224.7 671.6 M 224.7 671.6 L 223.7 675.4 M 223.7 675.4 L 223.7 697.4 M 223.7 697.4 L 273 697.4 M 273 697.4 L 273 707.4 M 273 707.4 L 223.7 707.4 M 223.7 707.4 L 223.7 729.3 M 223.7 729.3 L 224.7 733.1 M 224.7 733.1 L 226.7 736.6 M 226.7 736.6 L 229.5 739.3 M 229.5 739.3 L 230.7 740.1 M 230.7 740.1 L 221.7 749.1 M 221.7 749.1 L 221.7 792.7 M 221.7 792.7 L 200.8 813.5 M 200.8 813.5 L 197.2 813.5 M 197.2 813.5 L 185.1 818.5 M 185.1 818.5 L 150.7 818.5 M 150.7 818.5 L 151.3 816.1 M 151.3 816.1 L 151.3 802.6 M 151.3 802.6 L 98 802.6 M 98 802.6 L 98 792.6 M 98 792.6 L 103 792.6 M 103 792.6 L 103 800.5 M 103 800.5 L 185 800.5 M 185 800.5 L 188.8 799.5 M 188.8 799.5 L 192.2 797.5 M 192.2 797.5 L 195 794.7 M 195 794.7 L 197 791.3 M 197 791.3 L 198 787.5 M 198 787.5 L 198 760.5 M 198 760.5 L 103 760.5 M 103 760.5 L 103 750.5 M 103 750.5 L 198 750.5 M 198 750.5 L 198 723.5 M 198 723.5 L 197 719.7 M 197 719.7 L 195 716.3 M 195 716.3 L 192.2 713.5 M 192.2 713.5 L 188.8 711.5 M 188.8 711.5 L 185 710.5 M 185 710.5 L 103 710.5 M 103 710.5 L 103 750.5 M 103 750.5 L 93 750.5 M 93 750.5 L 93 710.5 M 93 710.5 L 21 710.5 M 21 710.5 L 21 128 M 21 128 L 21.6 121.8 M 21.6 121.8 L 26.4 110.2 M 26.4 110.2 L 35.2 101.4 M 31.3 105.4 L 334.7 105.4 M 319 95.4 L 262.1 95.4 M 272.1 85.4 L 309.4 85.4 M 305.3 75.4 L 282.1 75.4 M 292.1 65.4 L 301.5 65.4 M 380 115.3 L 24.3 115.3 M 21.3 125.3 L 380.5 125.3 M 380.5 135.3 L 21 135.3 M 21 145.3 L 380.5 145.3 M 380.5 155.3 L 21 155.3 M 21 165.3 L 380.5 165.3 M 380.5 175.3 L 21 175.3 M 21 185.2 L 380.5 185.2 M 380.5 195.2 L 331.7 195.2 M 364 205.2 L 380.5 205.2 M 380.5 215.2 L 372.7 215.2 M 376.5 225.2 L 380.5 225.2 M 380.5 235.2 L 376.5 235.2 M 373 245.1 L 380.5 245.1 M 380.5 255.1 L 364.7 255.1 M 380.5 265.1 L 331.2 265.1 M 334.3 275.1 L 337.9 275.1 M 353.1 275.1 L 380.5 275.1 M 380.5 285.1 L 368.9 285.1 M 374.7 295.1 L 380.5 295.1 M 380.5 305.1 L 376.5 305.1 M 375.1 315 L 380.5 315 M 380.5 325 L 369.8 325 M 380.5 335 L 355.3 335 M 335.7 335 L 334.3 335 M 326.3 345 L 380.5 345 M 380.5 355 L 352.8 355 M 338.2 355 L 334 355 M 368.8 365 L 380.5 365 M 380.5 375 L 374.7 375 M 376.5 384.9 L 380.5 384.9 M 380.5 394.9 L 375.2 394.9 M 369.9 404.9 L 380.5 404.9 M 380.5 414.9 L 355.6 414.9 M 335.5 414.9 L 334.4 414.9 M 329 424.9 L 380.5 424.9 M 380.5 434.9 L 334.4 434.9 M 334.4 494.8 L 851.9 494.8 M 859 504.8 L 327.8 504.8 M 424.1 484.8 L 777.3 484.8 M 767.3 474.8 L 429.7 474.8 M 430.5 464.8 L 757.3 464.8 M 736 454.8 L 430.5 454.8 M 430.5 444.8 L 727.9 444.8 M 724.5 434.9 L 430.5 434.9 M 430.5 424.9 L 724.5 424.9 M 728.4 414.9 L 430.5 414.9 M 430.5 404.9 L 722.4 404.9 M 712.4 394.9 L 430.5 394.9 M 430.5 384.9 L 702.4 384.9 M 692.4 375 L 430.5 375 M 430.5 365 L 682.4 365 M 672.5 355 L 430.5 355 M 430.5 345 L 662.5 345 M 652.5 335 L 430.5 335 M 430.5 325 L 642.5 325 M 632.5 315 L 430.5 315 M 430.5 305.1 L 622.5 305.1 M 612.5 295.1 L 430.5 295.1 M 430.5 285.1 L 602.6 285.1 M 592.6 275.1 L 430.5 275.1 M 430.5 265.1 L 582.6 265.1 M 572.6 255.1 L 430.5 255.1 M 430.5 245.1 L 562.6 245.1 M 552.6 235.2 L 430.5 235.2 M 430.5 225.2 L 542.7 225.2 M 532.7 215.2 L 430.5 215.2 M 430.5 205.2 L 532.5 205.2 M 532.5 195.2 L 430.5 195.2 M 430.5 185.2 L 532.5 185.2 M 532.5 175.3 L 430.5 175.3 M 430.5 165.3 L 532.5 165.3 M 532.5 155.3 L 430.5 155.3 M 430.5 145.3 L 532.5 145.3 M 532.5 135.3 L 430.5 135.3 M 430.5 125.3 L 532.5 125.3 M 532.5 115.3 L 430.5 115.3 M 430.5 105.4 L 434.7 105.4 M 476.3 105.4 L 532.5 105.4 M 519 95.4 L 492 95.4 M 501.6 85.4 L 509.4 85.4 M 578.5 104.4 L 578.5 196 M 578.5 196 L 746.9 364.4 M 746.9 364.4 L 851.7 364.4 M 851.7 364.4 L 851.7 355.4 M 851.7 355.4 L 859.1 347.9 M 859.1 347.9 L 851.9 340.7 M 851.9 340.7 L 851.9 331.7 M 851.9 331.7 L 749.1 331.7 M 749.1 331.7 L 735.7 318.2 M 735.7 318.2 L 632.5 215 M 632.5 215 L 632.5 104.4 M 632.5 104.4 L 624.9 101.3 M 624.9 101.3 L 609.7 86.1 M 609.7 86.1 L 605.5 75.9 M 605.5 75.9 L 601.3 86.1 M 601.3 86.1 L 586.1 101.3 M 586.1 101.3 L 578.5 104.4 M 578.5 105.4 L 632.5 105.4 M 632.5 115.3 L 578.5 115.3 M 578.5 125.3 L 632.5 125.3 M 632.5 135.3 L 578.5 135.3 M 578.5 145.3 L 632.5 145.3 M 632.5 155.3 L 578.5 155.3 M 578.5 165.3 L 632.5 165.3 M 632.5 175.3 L 578.5 175.3 M 578.5 185.2 L 632.5 185.2 M 632.5 195.2 L 578.5 195.2 M 587.7 205.2 L 632.5 205.2 M 632.7 215.2 L 597.7 215.2 M 607.7 225.2 L 642.7 225.2 M 652.6 235.2 L 617.7 235.2 M 627.7 245.1 L 662.6 245.1 M 672.6 255.1 L 637.7 255.1 M 647.6 265.1 L 682.6 265.1 M 692.6 275.1 L 657.6 275.1 M 667.6 285.1 L 702.6 285.1 M 712.5 295.1 L 677.6 295.1 M 687.6 305.1 L 722.5 305.1 M 732.5 315 L 697.6 315 M 707.6 325 L 742.5 325 M 727.5 345 L 856.2 345 M 852 355 L 737.5 355 M 717.5 335 L 851.9 335 M 851.9 285.7 L 851.9 276.6 M 851.9 276.6 L 860.8 267.7 M 860.8 267.7 L 859.4 266.9 M 859.4 266.9 L 856.6 264.1 M 856.6 264.1 L 854.6 260.7 M 854.6 260.7 L 853.6 256.9 M 853.6 256.9 L 853.6 234.9 M 853.6 234.9 L 903 234.9 M 903 234.9 L 903 224.9 M 903 224.9 L 853.6 224.9 M 853.6 224.9 L 853.6 202.9 M 853.6 202.9 L 854.6 199.1 M 854.6 199.1 L 856.6 195.7 M 856.6 195.7 L 859.4 192.9 M 859.4 192.9 L 862.8 190.9 M 862.8 190.9 L 866.6 189.9 M 866.6 189.9 L 903 189.9 M 903 189.9 L 903 224.9 M 903 224.9 L 913 224.9 M 913 224.9 L 913 234.9 M 913 234.9 L 962.3 234.9 M 962.3 234.9 L 962.3 256.9 M 962.3 256.9 L 961.3 260.7 M 961.3 260.7 L 959.3 264.1 M 959.3 264.1 L 956.5 266.9 M 956.5 266.9 L 955.5 267.5 M 955.5 267.5 L 964.6 276.6 M 964.6 276.6 L 964.6 340.7 M 964.6 340.7 L 957.2 348.1 M 957.2 348.1 L 964.4 355.4 M 964.4 355.4 L 964.4 419.4 M 964.4 419.4 L 957.4 426.4 M 957.4 426.4 L 964.6 433.6 M 964.6 433.6 L 964.6 497.7 M 964.6 497.7 L 956.9 505.4 M 956.9 505.4 L 964.3 512.8 M 964.3 512.8 L 964.3 576.9 M 964.3 576.9 L 958.9 582.4 M 958.9 582.4 L 964.3 587.8 M 964.3 587.8 L 964.3 594.9 M 964.3 594.9 L 1030.5 594.9 M 1030.5 594.9 L 1030.5 103.6 M 1030.5 103.6 L 1024.9 101.3 M 1024.9 101.3 L 1009.7 86.1 M 1009.7 86.1 L 1005.5 75.9 M 1005.5 75.9 L 1001.3 86.1 M 1001.3 86.1 L 986.1 101.3 M 986.1 101.3 L 966.2 109.5 M 966.2 109.5 L 944.8 109.5 M 944.8 109.5 L 924.9 101.3 M 924.9 101.3 L 909.7 86.1 M 909.7 86.1 L 905.5 75.9 M 905.5 75.9 L 901.3 86.1 M 901.3 86.1 L 886.1 101.3 M 886.1 101.3 L 866.2 109.5 M 866.2 109.5 L 844.8 109.5 M 844.8 109.5 L 824.9 101.3 M 824.9 101.3 L 809.7 86.1 M 809.7 86.1 L 805.5 75.9 M 805.5 75.9 L 801.3 86.1 M 801.3 86.1 L 786.1 101.3 M 786.1 101.3 L 766.2 109.5 M 766.2 109.5 L 744.8 109.5 M 744.8 109.5 L 724.9 101.3 M 724.9 101.3 L 709.7 86.1 M 709.7 86.1 L 705.5 75.9 M 705.5 75.9 L 701.3 86.1 M 701.3 86.1 L 686.1 101.3 M 686.1 101.3 L 678.5 104.4 M 678.5 104.4 L 678.5 196 M 678.5 196 L 768.2 285.7 M 768.2 285.7 L 851.9 285.7 M 851.9 285.1 L 767.6 285.1 M 757.6 275.1 L 853.4 275.1 M 857.6 265.1 L 747.6 265.1 M 737.7 255.1 L 853.6 255.1 M 853.6 245.1 L 727.7 245.1 M 717.7 235.2 L 853.6 235.2 M 853.6 215.2 L 697.7 215.2 M 687.7 205.2 L 853.6 205.2 M 857.1 195.2 L 678.5 195.2 M 678.5 185.2 L 1030.5 185.2 M 1030.5 175.3 L 678.5 175.3 M 678.5 165.3 L 1030.5 165.3 M 1030.5 155.3 L 678.5 155.3 M 678.5 145.3 L 1030.5 145.3 M 1030.5 135.3 L 678.5 135.3 M 678.5 125.3 L 1030.5 125.3 M 1030.5 115.3 L 678.5 115.3 M 678.5 105.4 L 734.7 105.4 M 719 95.4 L 692 95.4 M 701.6 85.4 L 709.4 85.4 M 776.3 105.4 L 834.7 105.4 M 819 95.4 L 792 95.4 M 801.6 85.4 L 809.4 85.4 M 876.3 105.4 L 934.7 105.4 M 919 95.4 L 892 95.4 M 901.6 85.4 L 909.4 85.4 M 976.3 105.4 L 1030.5 105.4 M 1019 95.4 L 992 95.4 M 1001.6 85.4 L 1009.4 85.4 M 1080.5 103.6 L 1080.5 624.8 M 1080.5 624.8 L 1076.7 634 M 1076.7 634 L 1069.7 641.1 M 1069.7 641.1 L 1060.5 644.9 M 1060.5 644.9 L 964.3 644.9 M 964.3 644.9 L 964.3 651.9 M 964.3 651.9 L 956.4 659.8 M 956.4 659.8 L 964.4 667.8 M 964.4 667.8 L 964.4 731.9 M 964.4 731.9 L 954.4 741.9 M 954.4 741.9 L 952.4 741.9 M 952.4 741.9 L 953.4 742.1 M 953.4 742.1 L 956.8 744.1 M 956.8 744.1 L 959.6 746.9 M 959.6 746.9 L 961.6 750.3 M 961.6 750.3 L 962.6 754.1 M 962.6 754.1 L 962.6 776.1 M 962.6 776.1 L 913.3 776.1 M 913.3 776.1 L 913.3 786.1 M 913.3 786.1 L 962.6 786.1 M 962.6 786.1 L 962.6 808.1 M 962.6 808.1 L 961.6 811.9 M 961.6 811.9 L 959.6 815.3 M 959.6 815.3 L 956.8 818.1 M 956.8 818.1 L 953.4 820.1 M 953.4 820.1 L 949.6 821.1 M 949.6 821.1 L 913.3 821.1 M 913.3 821.1 L 913.3 786.1 M 913.3 786.1 L 903.3 786.1 M 903.3 786.1 L 903.3 821.1 M 903.3 821.1 L 866.9 821.1 M 866.9 821.1 L 863.1 820.1 M 863.1 820.1 L 859.7 818.1 M 859.7 818.1 L 856.9 815.3 M 856.9 815.3 L 854.9 811.9 M 854.9 811.9 L 853.9 808.1 M 853.9 808.1 L 853.9 786.1 M 853.9 786.1 L 903.3 786.1 M 903.3 786.1 L 903.3 776.1 M 903.3 776.1 L 853.9 776.1 M 853.9 776.1 L 853.9 754.1 M 853.9 754.1 L 854.9 750.3 M 854.9 750.3 L 856.9 746.9 M 856.9 746.9 L 859.7 744.1 M 859.7 744.1 L 863.1 742.1 M 863.1 742.1 L 864.1 741.9 M 864.1 741.9 L 861.6 741.9 M 861.6 741.9 L 851.7 731.9 M 851.7 731.9 L 851.7 667.8 M 851.7 667.8 L 859.6 659.9 M 859.6 659.9 L 851.6 651.9 M 851.6 651.9 L 851.6 587.8 M 851.6 587.8 L 857.1 582.4 M 857.1 582.4 L 851.6 576.9 M 851.6 576.9 L 851.6 567.9 M 851.6 567.9 L 578.5 567.9 M 578.5 567.9 L 578.5 906.6 M 578.5 906.6 L 586.1 909.7 M 586.1 909.7 L 601.3 924.9 M 601.3 924.9 L 605.5 935.1 M 605.5 935.1 L 609.7 924.9 M 609.7 924.9 L 624.9 909.7 M 624.9 909.7 L 644.8 901.5 M 644.8 901.5 L 666.2 901.5 M 666.2 901.5 L 686.1 909.7 M 686.1 909.7 L 701.3 924.9 M 701.3 924.9 L 705.5 935.1 M 705.5 935.1 L 709.7 924.9 M 709.7 924.9 L 724.9 909.7 M 724.9 909.7 L 744.8 901.5 M 744.8 901.5 L 766.2 901.5 M 766.2 901.5 L 786.1 909.7 M 786.1 909.7 L 801.3 924.9 M 801.3 924.9 L 805.5 935.1 M 805.5 935.1 L 809.7 924.9 M 809.7 924.9 L 824.9 909.7 M 824.9 909.7 L 844.8 901.5 M 844.8 901.5 L 866.2 901.5 M 866.2 901.5 L 886.1 909.7 M 886.1 909.7 L 901.3 924.9 M 901.3 924.9 L 905.5 935.1 M 905.5 935.1 L 909.7 924.9 M 909.7 924.9 L 924.9 909.7 M 924.9 909.7 L 944.8 901.5 M 944.8 901.5 L 966.2 901.5 M 966.2 901.5 L 986.1 909.7 M 986.1 909.7 L 1001.3 924.9 M 1001.3 924.9 L 1005.5 935.1 M 1005.5 935.1 L 1009.7 924.9 M 1009.7 924.9 L 1024.9 909.7 M 1024.9 909.7 L 1044.8 901.5 M 1044.8 901.5 L 1066.2 901.5 M 1066.2 901.5 L 1086.1 909.7 M 1086.1 909.7 L 1101.3 924.9 M 1101.3 924.9 L 1102.5 927.9 M 1102.5 927.9 L 1102.5 83.1 M 1102.5 83.1 L 1101.3 86.1 M 1101.3 86.1 L 1086.1 101.3 M 1086.1 101.3 L 1080.5 103.6 M 1080.5 105.4 L 1102.5 105.4 M 1102.5 95.4 L 1092 95.4 M 1101.6 85.4 L 1102.5 85.4 M 1102.5 115.3 L 1080.5 115.3 M 1080.5 125.3 L 1102.5 125.3 M 1102.5 135.3 L 1080.5 135.3 M 1080.5 145.3 L 1102.5 145.3 M 1102.5 155.3 L 1080.5 155.3 M 1080.5 165.3 L 1102.5 165.3 M 1102.5 175.3 L 1080.5 175.3 M 1080.5 185.2 L 1102.5 185.2 M 1102.5 195.2 L 1080.5 195.2 M 1080.5 205.2 L 1102.5 205.2 M 1102.5 215.2 L 1080.5 215.2 M 1080.5 225.2 L 1102.5 225.2 M 1102.5 235.2 L 1080.5 235.2 M 1080.5 245.1 L 1102.5 245.1 M 1102.5 255.1 L 1080.5 255.1 M 1080.5 265.1 L 1102.5 265.1 M 1102.5 275.1 L 1080.5 275.1 M 1080.5 285.1 L 1102.5 285.1 M 1102.5 295.1 L 1080.5 295.1 M 1080.5 305.1 L 1102.5 305.1 M 1102.5 315 L 1080.5 315 M 1080.5 325 L 1102.5 325 M 1102.5 335 L 1080.5 335 M 1080.5 345 L 1102.5 345 M 1102.5 355 L 1080.5 355 M 1080.5 365 L 1102.5 365 M 1102.5 375 L 1080.5 375 M 1080.5 384.9 L 1102.5 384.9 M 1102.5 394.9 L 1080.5 394.9 M 1080.5 404.9 L 1102.5 404.9 M 1102.5 414.9 L 1080.5 414.9 M 1080.5 424.9 L 1102.5 424.9 M 1102.5 434.9 L 1080.5 434.9 M 1080.5 444.8 L 1102.5 444.8 M 1102.5 454.8 L 1080.5 454.8 M 1080.5 464.8 L 1102.5 464.8 M 1102.5 474.8 L 1080.5 474.8 M 1080.5 484.8 L 1102.5 484.8 M 1102.5 494.8 L 1080.5 494.8 M 1080.5 504.8 L 1102.5 504.8 M 1102.5 514.7 L 1080.5 514.7 M 1080.5 524.7 L 1102.5 524.7 M 1102.5 534.7 L 1080.5 534.7 M 1080.5 544.7 L 1102.5 544.7 M 1102.5 554.7 L 1080.5 554.7 M 1080.5 564.7 L 1102.5 564.7 M 1102.5 574.7 L 1080.5 574.7 M 1080.5 584.6 L 1102.5 584.6 M 1102.5 594.6 L 1080.5 594.6 M 1080.5 604.6 L 1102.5 604.6 M 1102.5 614.6 L 1080.5 614.6 M 1080.5 624.6 L 1102.5 624.6 M 1102.5 634.6 L 1076.2 634.6 M 1061.3 644.5 L 1102.5 644.5 M 1102.5 654.5 L 961.7 654.5 M 961.1 664.5 L 1102.5 664.5 M 1102.5 674.5 L 964.4 674.5 M 964.4 684.5 L 1102.5 684.5 M 1102.5 694.5 L 964.4 694.5 M 964.4 704.5 L 1102.5 704.5 M 1102.5 714.4 L 964.4 714.4 M 964.4 724.4 L 1102.5 724.4 M 1102.5 734.4 L 961.9 734.4 M 957.2 744.4 L 1102.5 744.4 M 1102.5 754.4 L 962.6 754.4 M 962.6 764.4 L 1102.5 764.4 M 1102.5 774.4 L 962.6 774.4 M 962.6 794.3 L 1102.5 794.3 M 1102.5 784.3 L 913.3 784.3 M 913.3 794.3 L 903.3 794.3 M 903.3 784.3 L 578.5 784.3 M 578.5 794.3 L 853.9 794.3 M 853.9 804.3 L 578.5 804.3 M 578.5 814.3 L 856.3 814.3 M 853.9 774.4 L 578.5 774.4 M 578.5 764.4 L 853.9 764.4 M 853.9 754.4 L 578.5 754.4 M 578.5 744.4 L 859.4 744.4 M 854.2 734.4 L 578.5 734.4 M 578.5 724.4 L 851.7 724.4 M 851.7 714.4 L 578.5 714.4 M 578.5 704.5 L 851.7 704.5 M 851.7 694.5 L 578.5 694.5 M 578.5 684.5 L 851.7 684.5 M 851.7 674.5 L 578.5 674.5 M 578.5 664.5 L 855 664.5 M 854.2 654.5 L 578.5 654.5 M 578.5 644.5 L 851.6 644.5 M 851.6 634.6 L 578.5 634.6 M 578.5 624.6 L 851.6 624.6 M 851.6 614.6 L 578.5 614.6 M 578.5 604.6 L 851.6 604.6 M 851.6 594.6 L 578.5 594.6 M 578.5 584.6 L 854.8 584.6 M 851.6 574.7 L 578.5 574.7 M 532.5 574.7 L 214.6 574.7 M 214.6 564.7 L 532.5 564.7 M 532.5 554.7 L 214.6 554.7 M 214.6 544.7 L 532.5 544.7 M 533.1 534.7 L 214 534.7 M 203.9 524.7 L 543.1 524.7 M 532.5 584.6 L 214.6 584.6 M 214.6 594.6 L 532.5 594.6 M 532.5 604.6 L 210.6 604.6 M 230.9 664.5 L 21 664.5 M 21 674.5 L 223.9 674.5 M 223.7 684.5 L 21 684.5 M 21 694.5 L 223.7 694.5 M 223.7 714.4 L 193.2 714.4 M 198 724.4 L 223.7 724.4 M 225.4 734.4 L 198 734.4 M 198 744.4 L 226.3 744.4 M 221.7 754.4 L 103 754.4 M 103 744.4 L 93 744.4 M 93 734.4 L 103 734.4 M 103 724.4 L 93 724.4 M 93 714.4 L 103 714.4 M 103 794.3 L 98 794.3 M 151.3 804.3 L 210 804.3 M 220 794.3 L 195.2 794.3 M 198 784.3 L 221.7 784.3 M 221.7 774.4 L 198 774.4 M 198 764.4 L 221.7 764.4 M 195.2 814.3 L 151.3 814.3 M 151.1 894.2 L 189.1 894.2 M 192.9 914.2 L 320.5 914.2 M 310.5 924.1 L 198 924.1 M 198 934.1 L 305.9 934.1 M 301.8 944.1 L 198 944.1 M 198 964.1 L 301.5 964.1 M 301.5 954.1 L 103 954.1 M 103 914.2 L 98 914.2 M 151.3 904.2 L 338.3 904.2 M 372.7 904.2 L 447.2 904.2 M 450.5 904.2 L 460.5 904.2 M 463.8 904.2 L 532.5 904.2 M 532.5 894.2 L 221.9 894.2 M 236.2 884.2 L 532.5 884.2 M 532.5 874.2 L 243.2 874.2 M 247.4 864.2 L 532.5 864.2 M 532.5 854.2 L 253.4 854.2 M 263.4 844.3 L 532.5 844.3 M 532.5 834.3 L 273.4 834.3 M 283.1 824.3 L 532.5 824.3 M 532.5 814.3 L 333.3 814.3 M 334.4 804.3 L 532.5 804.3 M 532.5 794.3 L 334.4 794.3 M 334.4 784.3 L 532.5 784.3 M 532.5 774.4 L 334.4 774.4 M 334.4 764.4 L 532.5 764.4 M 532.5 754.4 L 334.4 754.4 M 329.8 744.4 L 532.5 744.4 M 532.5 734.4 L 330.7 734.4 M 332.4 724.4 L 532.5 724.4 M 532.5 714.4 L 332.4 714.4 M 332.4 694.5 L 532.5 694.5 M 532.5 684.5 L 332.4 684.5 M 332.2 674.5 L 532.5 674.5 M 532.5 664.5 L 325.2 664.5 M 283 664.5 L 273 664.5 M 273 674.5 L 283 674.5 M 283 684.5 L 273 684.5 M 273 694.5 L 283 694.5 M 283 704.5 L 532.5 704.5 M 532.5 654.5 L 21 654.5 M 21 644.5 L 532.5 644.5 M 532.5 634.6 L 21 634.6 M 21 624.6 L 532.5 624.6 M 532.5 614.6 L 21 614.6 M 21 604.6 L 53.2 604.6 M 54.2 605.6 L 51.4 602.8 M 51.4 602.8 L 49.4 599.4 M 49.4 599.4 L 48.4 595.6 M 48.4 595.6 L 48.4 573 M 48.4 573 L 81.1 573 M 81.1 573 L 81.1 608.6 M 81.1 608.6 L 61.4 608.6 M 61.4 608.6 L 57.6 607.6 M 57.6 607.6 L 54.2 605.6 M 48.4 594.6 L 21 594.6 M 21 584.6 L 48.4 584.6 M 48.4 574.7 L 21 574.7 M 21 564.7 L 81.1 564.7 M 81.1 563 L 48.4 563 M 48.4 563 L 48.4 540.4 M 48.4 540.4 L 49.4 536.6 M 49.4 536.6 L 51.4 533.2 M 51.4 533.2 L 54.2 530.4 M 54.2 530.4 L 57.6 528.4 M 57.6 528.4 L 61.4 527.4 M 61.4 527.4 L 81.1 527.4 M 81.1 527.4 L 81.1 563 M 81.1 563 L 91.1 563 M 91.1 563 L 91.1 573 M 91.1 573 L 123.9 573 M 123.9 573 L 123.9 595.6 M 123.9 595.6 L 122.9 599.4 M 122.9 599.4 L 120.9 602.8 M 120.9 602.8 L 118.1 605.6 M 118.1 605.6 L 114.7 607.6 M 114.7 607.6 L 110.9 608.6 M 110.9 608.6 L 91.1 608.6 M 91.1 608.6 L 91.1 573 M 91.1 573 L 81.1 573 M 81.1 573 L 81.1 563 M 81.1 554.7 L 91.1 554.7 M 91.1 563 L 91.1 527.4 M 91.1 527.4 L 110.9 527.4 M 110.9 527.4 L 114.7 528.4 M 114.7 528.4 L 118.1 530.4 M 118.1 530.4 L 120.9 533.2 M 120.9 533.2 L 122.9 536.6 M 122.9 536.6 L 123.9 540.4 M 123.9 540.4 L 123.9 563 M 123.9 563 L 91.1 563 M 91.1 564.7 L 135.1 564.7 M 135.1 574.7 L 123.9 574.7 M 123.9 584.6 L 135.1 584.6 M 135.1 594.6 L 123.9 594.6 M 119.1 604.6 L 139.1 604.6 M 91.1 604.6 L 81.1 604.6 M 81.1 594.6 L 91.1 594.6 M 91.1 584.6 L 81.1 584.6 M 81.1 574.7 L 91.1 574.7 M 123.9 554.7 L 135.1 554.7 M 135.1 544.7 L 123.9 544.7 M 121.8 534.7 L 135.8 534.7 M 145.9 524.7 L 21 524.7 M 21 534.7 L 50.5 534.7 M 48.4 544.7 L 21 544.7 M 21 554.7 L 48.4 554.7 M 81.1 544.7 L 91.1 544.7 M 91.1 534.7 L 81.1 534.7 M 81.1 508.6 L 61.4 508.6 M 61.4 508.6 L 57.6 507.6 M 57.6 507.6 L 54.2 505.6 M 54.2 505.6 L 51.4 502.8 M 51.4 502.8 L 49.4 499.4 M 49.4 499.4 L 48.4 495.6 M 48.4 495.6 L 48.4 473 M 48.4 473 L 81.1 473 M 81.1 473 L 81.1 508.6 M 81.1 504.8 L 91.1 504.8 M 91.1 508.6 L 110.9 508.6 M 110.9 508.6 L 114.7 507.6 M 114.7 507.6 L 118.1 505.6 M 118.1 505.6 L 120.9 502.8 M 120.9 502.8 L 122.9 499.4 M 122.9 499.4 L 123.9 495.6 M 123.9 495.6 L 123.9 473 M 123.9 473 L 91.1 473 M 91.1 473 L 91.1 463 M 91.1 463 L 123.9 463 M 123.9 463 L 123.9 440.4 M 123.9 440.4 L 122.9 436.6 M 122.9 436.6 L 120.9 433.2 M 120.9 433.2 L 118.1 430.4 M 118.1 430.4 L 114.7 428.4 M 114.7 428.4 L 110.9 427.4 M 110.9 427.4 L 91.1 427.4 M 91.1 427.4 L 91.1 463 M 91.1 463 L 81.1 463 M 81.1 463 L 81.1 427.4 M 81.1 427.4 L 61.4 427.4 M 61.4 427.4 L 57.6 428.4 M 57.6 428.4 L 54.2 430.4 M 54.2 430.4 L 51.4 433.2 M 51.4 433.2 L 49.4 436.6 M 49.4 436.6 L 48.4 440.4 M 48.4 440.4 L 48.4 463 M 48.4 463 L 81.1 463 M 81.1 463 L 81.1 473 M 81.1 473 L 91.1 473 M 91.1 473 L 91.1 508.6 M 91.1 494.8 L 81.1 494.8 M 81.1 484.8 L 91.1 484.8 M 91.1 474.8 L 81.1 474.8 M 81.1 464.8 L 21 464.8 M 21 474.8 L 48.4 474.8 M 48.4 484.8 L 21 484.8 M 21 494.8 L 48.4 494.8 M 53.3 504.8 L 21 504.8 M 21 514.7 L 145.9 514.7 M 139.3 504.8 L 118.9 504.8 M 123.9 494.8 L 135.1 494.8 M 135.1 484.8 L 123.9 484.8 M 123.9 474.8 L 135.1 474.8 M 135.1 464.8 L 91.1 464.8 M 91.1 454.8 L 81.1 454.8 M 81.1 444.8 L 91.1 444.8 M 91.1 434.9 L 81.1 434.9 M 50.4 434.9 L 21 434.9 M 21 444.8 L 48.4 444.8 M 48.4 454.8 L 21 454.8 M 21 424.9 L 227.1 424.9 M 221.7 414.9 L 21 414.9 M 21 404.9 L 221.7 404.9 M 221.7 394.9 L 21 394.9 M 21 384.9 L 221.7 384.9 M 221.7 375 L 21 375 M 21 365 L 221.7 365 M 222 355 L 21 355 M 21 345 L 229.6 345 M 221.6 335 L 21 335 M 21 325 L 221.6 325 M 221.6 315 L 21 315 M 21 305.1 L 221.6 305.1 M 221.6 295.1 L 21 295.1 M 21 285.1 L 221.6 285.1 M 221.6 275.1 L 21 275.1 M 21 265.1 L 224.8 265.1 M 221.6 255.1 L 21 255.1 M 21 245.1 L 221.6 245.1 M 221.6 235.2 L 21 235.2 M 21 225.2 L 221.6 225.2 M 221.6 215.2 L 21 215.2 M 21 205.2 L 221.6 205.2 M 224.2 195.2 L 21 195.2 M 121.8 434.9 L 135.6 434.9 M 135.1 444.8 L 123.9 444.8 M 123.9 454.8 L 135.1 454.8 M 210.5 504.8 L 228.3 504.8 M 221.7 494.8 L 214.6 494.8 M 203.9 514.7 L 851.6 514.7 M 957.6 504.8 L 1030.5 504.8 M 1030.5 514.7 L 964.3 514.7 M 964.3 524.7 L 1030.5 524.7 M 1030.5 534.7 L 964.3 534.7 M 964.3 544.7 L 1030.5 544.7 M 1030.5 554.7 L 964.3 554.7 M 964.3 564.7 L 1030.5 564.7 M 1030.5 574.7 L 964.3 574.7 M 961.1 584.6 L 1030.5 584.6 M 1030.5 594.6 L 964.3 594.6 M 964.6 494.8 L 1030.5 494.8 M 1030.5 484.8 L 964.6 484.8 M 964.6 474.8 L 1030.5 474.8 M 1030.5 464.8 L 964.6 464.8 M 964.6 454.8 L 1030.5 454.8 M 1030.5 444.8 L 964.6 444.8 M 964.6 434.9 L 1030.5 434.9 M 1030.5 424.9 L 959 424.9 M 964.4 414.9 L 1030.5 414.9 M 1030.5 404.9 L 964.4 404.9 M 964.4 394.9 L 1030.5 394.9 M 1030.5 384.9 L 964.4 384.9 M 964.4 375 L 1030.5 375 M 1030.5 365 L 964.4 365 M 964 355 L 1030.5 355 M 1030.5 345 L 960.3 345 M 964.6 335 L 1030.5 335 M 1030.5 325 L 964.6 325 M 964.6 315 L 1030.5 315 M 1030.5 305.1 L 964.6 305.1 M 964.6 295.1 L 1030.5 295.1 M 1030.5 285.1 L 964.6 285.1 M 963.1 275.1 L 1030.5 275.1 M 1030.5 265.1 L 958.3 265.1 M 962.3 255.1 L 1030.5 255.1 M 1030.5 245.1 L 962.3 245.1 M 962.3 235.2 L 1030.5 235.2 M 1030.5 225.2 L 913 225.2 M 913 224.9 L 962.3 224.9 M 962.3 224.9 L 962.3 202.9 M 962.3 202.9 L 961.3 199.1 M 961.3 199.1 L 959.3 195.7 M 959.3 195.7 L 956.5 192.9 M 956.5 192.9 L 953.1 190.9 M 953.1 190.9 L 949.3 189.9 M 949.3 189.9 L 913 189.9 M 913 189.9 L 913 224.9 M 913 215.2 L 903 215.2 M 903 225.2 L 707.7 225.2 M 619 95.4 L 592 95.4 M 601.6 85.4 L 609.4 85.4 M 903 195.2 L 913 195.2 M 913 205.2 L 903 205.2 M 958.9 195.2 L 1030.5 195.2 M 1030.5 205.2 L 962.3 205.2 M 962.3 215.2 L 1030.5 215.2 M 962.6 804.3 L 1102.5 804.3 M 1102.5 814.3 L 960.2 814.3 M 913.3 814.3 L 903.3 814.3 M 903.3 804.3 L 913.3 804.3 M 938.3 904.2 L 872.7 904.2 M 890.5 914.2 L 920.5 914.2 M 910.5 924.1 L 900.5 924.1 M 905.1 934.1 L 905.9 934.1 M 838.3 904.2 L 772.7 904.2 M 790.5 914.2 L 820.5 914.2 M 810.5 924.1 L 800.5 924.1 M 805.1 934.1 L 805.9 934.1 M 738.3 904.2 L 672.7 904.2 M 690.5 914.2 L 720.5 914.2 M 710.5 924.1 L 700.5 924.1 M 705.1 934.1 L 705.9 934.1 M 638.3 904.2 L 578.5 904.2 M 578.5 894.2 L 1102.5 894.2 M 1102.5 904.2 L 1072.7 904.2 M 1090.5 914.2 L 1102.5 914.2 M 1102.5 924.1 L 1100.5 924.1 M 1102.5 884.2 L 578.5 884.2 M 578.5 874.2 L 1102.5 874.2 M 1102.5 864.2 L 578.5 864.2 M 578.5 854.2 L 1102.5 854.2 M 1102.5 844.3 L 578.5 844.3 M 578.5 834.3 L 1102.5 834.3 M 1102.5 824.3 L 578.5 824.3 M 590.5 914.2 L 620.5 914.2 M 610.5 924.1 L 600.5 924.1 M 605.1 934.1 L 605.9 934.1 M 520.5 914.2 L 487.1 914.2 M 497 924.1 L 510.5 924.1 M 505.9 934.1 L 503 934.1 M 460.5 934.1 L 450.5 934.1 M 450.5 944.1 L 460.5 944.1 M 460.5 924.1 L 450.5 924.1 M 450.5 914.2 L 460.5 914.2 M 424 914.2 L 390.5 914.2 M 400.5 924.1 L 414 924.1 M 408 934.1 L 405.1 934.1 M 304.7 974.1 L 198 974.1 M 198 984 L 308.9 984 M 273 704.5 L 21 704.5 M 214.1 434.9 L 221.7 434.9 M 972.7 904.2 L 1038.3 904.2 M 1020.5 914.2 L 990.5 914.2 M 1000.5 924.1 L 1010.5 924.1 M 1005.9 934.1 L 1005.1 934.1"/><use x="1035.5" y="753" xlink:href="#tool-D17-pad-1029"/><use x="815.5" y="688" xlink:href="#tool-D17-pad-1029"/><use x="755.5" y="430.5" xlink:href="#tool-D17-pad-1029"/><use x="993" y="415.5" xlink:href="#tool-D17-pad-1029"/><use x="828" y="185.5" xlink:href="#tool-D17-pad-1029"/><use x="613" y="165.5" xlink:href="#tool-D17-pad-1029"/><use x="345.5" y="230.5" xlink:href="#tool-D17-pad-1029"/><use x="345.5" y="305.5" xlink:href="#tool-D17-pad-1029"/><use x="345.5" y="385.5" xlink:href="#tool-D17-pad-1029"/><use x="253" y="138" xlink:href="#tool-D17-pad-1029"/><use x="213" y="678" xlink:href="#tool-D17-pad-1029"/><use x="210.5" y="710.5" xlink:href="#tool-D17-pad-1029"/><use x="210.5" y="750.5" xlink:href="#tool-D17-pad-1029"/><use x="210.5" y="790.5" xlink:href="#tool-D17-pad-1029"/><use x="270.5" y="850.5" xlink:href="#tool-D17-pad-1029"/><use x="250.5" y="885.5" xlink:href="#tool-D17-pad-1029"/><use x="210.5" y="905.5" xlink:href="#tool-D17-pad-1029"/><use x="265.5" y="950.5" xlink:href="#tool-D17-pad-1029"/><use x="305.5" y="830.5" xlink:href="#tool-D17-pad-1029"/><use x="345.5" y="825.5" xlink:href="#tool-D17-pad-1029"/><use x="365.5" y="780.5" xlink:href="#tool-D17-pad-1029"/><use x="355.5" y="735.5" xlink:href="#tool-D17-pad-1029"/><use x="350.5" y="675.5" xlink:href="#tool-D17-pad-1029"/><path stroke-width="12" fill="none" d="M 555.5 544.9 L 555.5 955.5 M 555.5 544.9 L 908 544.9 M 908 544.9 L 908 543 M 908.3 465.7 L 790.7 465.7 M 790.7 465.7 L 755.5 430.5 M 737.4 387.4 L 908 387.4 M 908.3 308.7 L 758.7 308.7 M 758.7 308.7 L 655.5 205.5 M 655.5 205.5 L 655.5 55.5 M 555.5 55.5 L 555.5 205.5 M 555.5 205.5 L 737.4 387.4 M 345.5 385.5 L 343.6 387.4 M 343.6 387.4 L 278 387.4 M 277.4 305.5 L 278 304.9 M 278 304.9 L 344.9 304.9 M 344.9 304.9 L 345.5 305.5 M 345.5 230.5 L 344.9 229.9 M 344.9 229.9 L 278 229.9"/><path stroke-width="24" fill="none" d="M 278 466.1 L 241.1 466.1 M 241.1 466.1 L 318 468 M 174.9 468 L 174.9 568 M 254.9 781.1 L 278 781.1 M 205.5 855.5 L 156.8 855.5"/><path stroke-width="16" fill="none" d="M 174.9 468 L 174.9 466.1 M 174.9 466.1 L 278 466.1 M 278 466.1 L 278 468 M 278 468 L 405.5 468 M 405.5 468 L 405.5 105.5 M 405.5 105.5 L 355.5 55.5 M 908 619.9 L 1055.5 619.9 M 1055.5 619.9 L 1055.5 55.5"/><path stroke-width="32" fill="none" d="M 254.9 781.1 L 254.9 806.1 M 254.9 806.1 L 205.5 855.5"/></g><mask id="pcb_top_mech-mask"><rect x="0" y="0" width="1125.1" height="1011" fill="#fff"/><g id="pcb_top-drl" fill="#000" stroke="#000"><use x="253" y="138" xlink:href="#tool-T10-pad-1000"/><use x="345.5" y="230.5" xlink:href="#tool-T10-pad-1000"/><use x="345.5" y="305.5" xlink:href="#tool-T10-pad-1000"/><use x="345.5" y="385.5" xlink:href="#tool-T10-pad-1000"/><use x="613" y="165.5" xlink:href="#tool-T10-pad-1000"/><use x="828" y="185.5" xlink:href="#tool-T10-pad-1000"/><use x="993" y="415.5" xlink:href="#tool-T10-pad-1000"/><use x="755.5" y="430.5" xlink:href="#tool-T10-pad-1000"/><use x="815.5" y="688" xlink:href="#tool-T10-pad-1000"/><use x="1035.5" y="753" xlink:href="#tool-T10-pad-1000"/><use x="365.5" y="780.5" xlink:href="#tool-T10-pad-1000"/><use x="355.5" y="735.5" xlink:href="#tool-T10-pad-1000"/><use x="350.5" y="675.5" xlink:href="#tool-T10-pad-1000"/><use x="213" y="678" xlink:href="#tool-T10-pad-1000"/><use x="210.5" y="710.5" xlink:href="#tool-T10-pad-1000"/><use x="210.5" y="750.5" xlink:href="#tool-T10-pad-1000"/><use x="210.5" y="790.5" xlink:href="#tool-T10-pad-1000"/><use x="270.5" y="850.5" xlink:href="#tool-T10-pad-1000"/><use x="250.5" y="885.5" xlink:href="#tool-T10-pad-1000"/><use x="210.5" y="905.5" xlink:href="#tool-T10-pad-1000"/><use x="265.5" y="950.5" xlink:href="#tool-T10-pad-1000"/><use x="305.5" y="830.5" xlink:href="#tool-T10-pad-1000"/><use x="345.5" y="825.5" xlink:href="#tool-T10-pad-1000"/><use x="205.5" y="855.5" xlink:href="#tool-T11-pad-1001"/><use x="355.5" y="955.5" xlink:href="#tool-T12-pad-1002"/><use x="455.5" y="955.5" xlink:href="#tool-T12-pad-1002"/><use x="555.5" y="955.5" xlink:href="#tool-T12-pad-1002"/><use x="655.5" y="955.5" xlink:href="#tool-T12-pad-1002"/><use x="755.5" y="955.5" xlink:href="#tool-T12-pad-1002"/><use x="855.5" y="955.5" xlink:href="#tool-T12-pad-1002"/><use x="955.5" y="955.5" xlink:href="#tool-T12-pad-1002"/><use x="1055.5" y="955.5" xlink:href="#tool-T12-pad-1002"/><use x="1055.5" y="55.5" xlink:href="#tool-T12-pad-1002"/><use x="955.5" y="55.5" xlink:href="#tool-T12-pad-1002"/><use x="855.5" y="55.5" xlink:href="#tool-T12-pad-1002"/><use x="755.5" y="55.5" xlink:href="#tool-T12-pad-1002"/><use x="655.5" y="55.5" xlink:href="#tool-T12-pad-1002"/><use x="555.5" y="55.5" xlink:href="#tool-T12-pad-1002"/><use x="455.5" y="55.5" xlink:href="#tool-T12-pad-1002"/><use x="355.5" y="55.5" xlink:href="#tool-T12-pad-1002"/></g></mask></defs><g mask="url(#pcb_top_mech-mask)" transform="translate(0,1011) scale(1,-1)"><rect x="0" y="0" width="1125.1" height="1011" fill="currentColor" class="pcb_board-fr4"/><use class="pcb_board-cu" xlink:href="#pcb_top-cu"/><g><defs><g id="pcb_top-sm" fill="currentColor" stroke="currentColor"><use x="355.5" y="55.5" xlink:href="#tool-D10-pad-1044"/><use x="455.5" y="55.5" xlink:href="#tool-D10-pad-1044"/><use x="555.5" y="55.5" xlink:href="#tool-D10-pad-1044"/><use x="655.5" y="55.5" xlink:href="#tool-D10-pad-1044"/><use x="755.5" y="55.5" xlink:href="#tool-D10-pad-1044"/><use x="855.5" y="55.5" xlink:href="#tool-D10-pad-1044"/><use x="955.5" y="55.5" xlink:href="#tool-D10-pad-1044"/><use x="1055.5" y="55.5" xlink:href="#tool-D10-pad-1044"/><use x="1055.5" y="955.5" xlink:href="#tool-D10-pad-1044"/><use x="955.5" y="955.5" xlink:href="#tool-D10-pad-1044"/><use x="855.5" y="955.5" xlink:href="#tool-D10-pad-1044"/><use x="755.5" y="955.5" xlink:href="#tool-D10-pad-1044"/><use x="655.5" y="955.5" xlink:href="#tool-D10-pad-1044"/><use x="555.5" y="955.5" xlink:href="#tool-D10-pad-1044"/><use x="455.5" y="955.5" xlink:href="#tool-D10-pad-1044"/><use x="355.5" y="955.5" xlink:href="#tool-D10-pad-1044"/><use x="174.9" y="568" xlink:href="#tool-D11-pad-1045"/><use x="86.1" y="568" xlink:href="#tool-D11-pad-1045"/><use x="86.1" y="468" xlink:href="#tool-D11-pad-1045"/><use x="174.9" y="468" xlink:href="#tool-D11-pad-1045"/><use x="278" y="229.9" xlink:href="#tool-D12-pad-1046"/><use x="278" y="304.9" xlink:href="#tool-D12-pad-1046"/><use x="278" y="387.4" xlink:href="#tool-D12-pad-1046"/><use x="278" y="466.1" xlink:href="#tool-D12-pad-1046"/><use x="278" y="702.4" xlink:href="#tool-D12-pad-1046"/><use x="278" y="781.1" xlink:href="#tool-D12-pad-1046"/><use x="908.3" y="781.1" xlink:href="#tool-D12-pad-1046"/><use x="908" y="699.9" xlink:href="#tool-D12-pad-1046"/><use x="908" y="619.9" xlink:href="#tool-D12-pad-1046"/><use x="908" y="544.9" xlink:href="#tool-D12-pad-1046"/><use x="908.3" y="465.7" xlink:href="#tool-D12-pad-1046"/><use x="908" y="387.4" xlink:href="#tool-D12-pad-1046"/><use x="908.3" y="308.7" xlink:href="#tool-D12-pad-1046"/><use x="908" y="229.9" xlink:href="#tool-D12-pad-1046"/><path stroke-width="9.2" fill="none" d="M 185.2 837.1 L 128.4 837.1 M 128.4 837.1 L 128.4 873.9 M 128.4 873.9 L 185.2 873.9 M 185.2 873.9 L 185.2 837.1 M 185.2 846.3 L 128.4 846.3 M 128.4 855.5 L 185.2 855.5 M 185.2 864.7 L 128.4 864.7 M 128.4 873.9 L 185.2 873.9 M 134.7 895 L 51.3 895 M 51.3 895 L 51.3 931.8 M 51.3 931.8 L 134.7 931.8 M 134.7 931.8 L 134.7 895 M 134.7 904.2 L 51.3 904.2 M 51.3 913.4 L 134.7 913.4 M 134.7 922.6 L 51.3 922.6 M 51.3 931.7 L 134.7 931.7 M 134.7 779.2 L 51.3 779.2 M 51.3 779.2 L 51.3 816 M 51.3 816 L 134.7 816 M 134.7 816 L 134.7 779.2 M 134.7 788.4 L 51.3 788.4 M 51.3 797.6 L 134.7 797.6 M 134.7 806.8 L 51.3 806.8 M 51.3 816 L 134.7 816"/><use x="205.5" y="855.5" xlink:href="#tool-D14-pad-1048"/><use x="98" y="955.5" xlink:href="#tool-D15-pad-1049"/><use x="98" y="755.5" xlink:href="#tool-D15-pad-1049"/></g><mask id="pcb_top-sm_mask" color="#000"><rect x="0" y="0" width="1125.1" height="1011" fill="#fff"/><use xlink:href="#pcb_top-sm"/></mask><mask id="pcb_top-cu_finish-mask" color="#fff"><use xlink:href="#pcb_top-cu"/></mask></defs><g mask="url(#pcb_top-sm_mask)"><rect x="0" y="0" width="1125.1" height="1011" fill="currentColor" class="pcb_board-sm"/><g id="pcb_top-ss" class="pcb_board-ss" fill="currentColor" stroke="currentColor"><path stroke-width="5" fill="none" d="M 278 190.5 L 908.3 190.5 M 879.1 133.2 L 869.1 128.2 M 869.1 128.2 L 859.1 118.2 M 859.1 118.2 L 874.1 118.2 M 874.1 118.2 L 879.1 113.2 M 879.1 113.2 L 879.1 108.2 M 879.1 108.2 L 874.1 103.2 M 874.1 103.2 L 864.1 103.2 M 864.1 103.2 L 859.1 108.2 M 859.1 108.2 L 859.1 118.2 M 846.8 103.2 L 826.8 103.2 M 836.8 103.2 L 836.8 133.2 M 836.8 133.2 L 826.8 123.2 M 779.1 118.2 L 759.1 118.2 M 759.1 118.2 L 774.1 133.2 M 774.1 133.2 L 774.1 103.2 M 746.8 103.2 L 726.8 103.2 M 736.8 103.2 L 736.8 133.2 M 736.8 133.2 L 726.8 123.2 M 679.1 123.2 L 679.1 128.2 M 679.1 128.2 L 674.1 133.2 M 674.1 133.2 L 664.1 133.2 M 664.1 133.2 L 659.1 128.2 M 636.8 133.2 L 636.8 103.2 M 626.8 103.2 L 646.8 103.2 M 659.1 103.2 L 679.1 123.2 M 679.1 103.2 L 659.1 103.2 M 636.8 133.2 L 626.8 123.2 M 579.1 123.2 L 574.1 118.2 M 574.1 118.2 L 579.1 113.2 M 579.1 113.2 L 579.1 108.2 M 579.1 108.2 L 574.1 103.2 M 574.1 103.2 L 564.1 103.2 M 564.1 103.2 L 559.1 108.2 M 546.8 103.2 L 526.8 103.2 M 536.8 103.2 L 536.8 133.2 M 536.8 133.2 L 526.8 123.2 M 559.1 128.2 L 564.1 133.2 M 564.1 133.2 L 574.1 133.2 M 574.1 133.2 L 579.1 128.2 M 579.1 128.2 L 579.1 123.2 M 574.1 118.2 L 569.1 118.2 M 480.2 118 L 480.2 108 M 480.2 108 L 475.2 103 M 475.2 103 L 465.2 103 M 465.2 103 L 460.2 108 M 460.2 118 L 470.2 123 M 470.2 123 L 475.2 123 M 475.2 123 L 480.2 118 M 480.2 133 L 460.2 133 M 460.2 133 L 460.2 118 M 448 103 L 428 103 M 438 103 L 438 133 M 438 133 L 428 123 M 393.8 121.2 L 389.3 116.7 M 389.3 116.7 L 393.8 112.2 M 393.8 112.2 L 393.8 107.7 M 393.8 107.7 L 389.3 103.2 M 389.3 103.2 L 380.3 103.2 M 380.3 103.2 L 375.8 107.7 M 364.3 112.2 L 364.3 130.2 M 375.8 125.7 L 380.3 130.2 M 380.3 130.2 L 389.3 130.2 M 389.3 130.2 L 393.8 125.7 M 393.8 125.7 L 393.8 121.2 M 389.3 116.7 L 384.8 116.7 M 364.3 112.2 L 355.3 103.2 M 355.3 103.2 L 346.3 112.2 M 346.3 112.2 L 346.3 130.2 M 334.8 125.7 L 334.8 121.2 M 334.8 121.2 L 330.3 116.7 M 330.3 116.7 L 334.8 112.2 M 334.8 112.2 L 334.8 107.7 M 334.8 107.7 L 330.3 103.2 M 330.3 103.2 L 321.3 103.2 M 321.3 103.2 L 316.8 107.7 M 325.8 116.7 L 330.3 116.7 M 334.8 125.7 L 330.3 130.2 M 330.3 130.2 L 321.3 130.2 M 321.3 130.2 L 316.8 125.7 M 368 293 L 455.5 293 M 455.5 293 L 455.5 418 M 455.5 418 L 368 418 M 368 418 L 368 293 M 172.5 430.5 L 152.5 430.5 M 152.5 430.5 L 152.5 400.5 M 140.2 400.5 L 140.2 420.5 M 152.5 415.5 L 162.5 415.5 M 140.2 400.5 L 125.2 400.5 M 125.2 400.5 L 120.2 405.5 M 120.2 405.5 L 120.2 420.5 M 108 400.5 L 88 400.5 M 98 400.5 L 98 430.5 M 98 430.5 L 88 420.5 M 50.5 438 L 45.5 433 M 45.5 433 L 25.5 433 M 25.5 433 L 20.5 438 M 20.5 438 L 20.5 448 M 20.5 448 L 25.5 453 M 30.5 465.2 L 20.5 475.2 M 20.5 475.2 L 50.5 475.2 M 50.5 485.2 L 50.5 465.2 M 45.5 453 L 50.5 448 M 50.5 448 L 50.5 438 M 75.5 505.5 L 93.5 505.5 M 84.5 505.5 L 84.5 532.5 M 84.5 532.5 L 75.5 523.5 M 50 541.1 L 50 550.1 M 50 550.1 L 45.5 554.6 M 50 566 L 32 584.1 M 32 584.1 L 27.5 584.1 M 27.5 584.1 L 23 579.6 M 23 579.6 L 23 570.5 M 23 570.5 L 27.5 566 M 27.5 554.6 L 23 550.1 M 23 550.1 L 23 541.1 M 23 541.1 L 27.5 536.6 M 27.5 536.6 L 45.5 536.6 M 45.5 536.6 L 50 541.1 M 50 566 L 50 584.1 M 105 528 L 109.5 532.5 M 109.5 532.5 L 118.5 532.5 M 118.5 532.5 L 123 528 M 123 528 L 105 510 M 105 510 L 109.5 505.5 M 109.5 505.5 L 118.5 505.5 M 118.5 505.5 L 123 510 M 123 510 L 123 528 M 134.4 523.5 L 134.4 510 M 134.4 510 L 138.9 505.5 M 138.9 505.5 L 152.5 505.5 M 152.5 505.5 L 152.5 523.5 M 163.9 519 L 172.9 519 M 163.9 505.5 L 163.9 532.5 M 163.9 532.5 L 181.9 532.5 M 105 528 L 105 510 M 278 820.5 L 908.3 820.5 M 928.1 878.2 L 928.1 908.2 M 928.1 908.2 L 943.1 908.2 M 943.1 908.2 L 948.1 903.2 M 948.1 903.2 L 948.1 893.2 M 948.1 893.2 L 943.1 888.2 M 943.1 888.2 L 928.1 888.2 M 938.1 888.2 L 948.1 878.2 M 960.3 878.2 L 980.3 908.2 M 960.3 908.2 L 980.3 878.2 M 1033.1 908.2 L 1053.1 908.2 M 1043.1 908.2 L 1043.1 878.2 M 1065.3 878.2 L 1085.3 908.2 M 1065.3 908.2 L 1085.3 878.2 M 866.8 883.2 L 861.8 878.2 M 861.8 878.2 L 851.8 878.2 M 851.8 878.2 L 846.8 883.2 M 846.8 893.2 L 856.8 898.2 M 856.8 898.2 L 861.8 898.2 M 861.8 898.2 L 866.8 893.2 M 866.8 893.2 L 866.8 883.2 M 846.8 893.2 L 846.8 908.2 M 846.8 908.2 L 866.8 908.2 M 768.1 893.2 L 748.1 893.2 M 748.1 893.2 L 763.1 908.2 M 763.1 908.2 L 763.1 878.2 M 668.1 879.5 L 663.1 874.5 M 663.1 874.5 L 653.1 874.5 M 653.1 874.5 L 648.1 879.5 M 648.1 879.5 L 668.1 899.5 M 668.1 899.5 L 668.1 879.5 M 668.1 899.5 L 663.1 904.5 M 663.1 904.5 L 653.1 904.5 M 653.1 904.5 L 648.1 899.5 M 648.1 899.5 L 648.1 879.5 M 566.8 878.2 L 546.8 878.2 M 546.8 878.2 L 566.8 898.2 M 566.8 898.2 L 566.8 903.2 M 566.8 903.2 L 561.8 908.2 M 561.8 908.2 L 551.8 908.2 M 551.8 908.2 L 546.8 903.2 M 495 900.7 L 495 882.7 M 495 882.7 L 490.5 878.2 M 490.5 878.2 L 477 878.2 M 477 878.2 L 477 905.2 M 477 905.2 L 490.5 905.2 M 490.5 905.2 L 495 900.7 M 465.6 905.2 L 465.6 878.2 M 465.6 878.2 L 447.5 905.2 M 447.5 905.2 L 447.5 878.2 M 436.1 882.7 L 436.1 891.7 M 436.1 891.7 L 427.1 891.7 M 436.1 900.7 L 431.6 905.2 M 431.6 905.2 L 422.6 905.2 M 422.6 905.2 L 418.1 900.7 M 418.1 900.7 L 418.1 882.7 M 418.1 882.7 L 422.6 878.2 M 422.6 878.2 L 431.6 878.2 M 431.6 878.2 L 436.1 882.7 M 380.6 887.2 L 380.6 905.2 M 380.6 887.2 L 371.5 878.2 M 371.5 878.2 L 362.5 887.2 M 362.5 887.2 L 362.5 905.2 M 351.1 905.2 L 333.1 905.2 M 333.1 905.2 L 333.1 891.7 M 333.1 891.7 L 342.1 896.2 M 342.1 896.2 L 346.6 896.2 M 346.6 896.2 L 351.1 891.7 M 351.1 891.7 L 351.1 882.7 M 351.1 882.7 L 346.6 878.2 M 346.6 878.2 L 337.6 878.2 M 337.6 878.2 L 333.1 882.7 M 109.3 867.5 L 109.3 852.5 M 109.3 867.5 L 104.3 872.5 M 104.3 872.5 L 89.3 872.5 M 89.3 872.5 L 89.3 852.5 M 77.1 857.5 L 67.1 857.5 M 77.1 872.5 L 77.1 842.5 M 77.1 842.5 L 57.1 842.5 M 44.9 842.5 L 44.9 872.5 M 44.9 872.5 L 24.9 872.5 M 580.5 468 L 580.5 268 M 580.5 268 L 793 268 M 793 268 L 793 468 M 793 468 L 580.5 468 M 931.8 123.2 L 941.8 133.2 M 941.8 133.2 L 951.8 123.2 M 951.8 123.2 L 951.8 103.2 M 964.1 108.2 L 984.1 128.2 M 984.1 128.2 L 984.1 108.2 M 984.1 108.2 L 979.1 103.2 M 979.1 103.2 L 969.1 103.2 M 969.1 103.2 L 964.1 108.2 M 964.1 108.2 L 964.1 128.2 M 964.1 128.2 L 969.1 133.2 M 969.1 133.2 L 979.1 133.2 M 979.1 133.2 L 984.1 128.2 M 951.8 118.2 L 931.8 118.2 M 931.8 123.2 L 931.8 103.2 M 1018.1 103.2 L 1018.1 130.2 M 1018.1 130.2 L 1031.6 130.2 M 1031.6 130.2 L 1036.1 125.7 M 1036.1 125.7 L 1036.1 116.7 M 1036.1 116.7 L 1031.6 112.2 M 1031.6 112.2 L 1018.1 112.2 M 1027.1 112.2 L 1036.1 103.2 M 1047.5 107.7 L 1052 103.2 M 1052 103.2 L 1061.1 103.2 M 1061.1 103.2 L 1065.6 107.7 M 1065.6 107.7 L 1065.6 112.2 M 1065.6 112.2 L 1061.1 116.7 M 1061.1 116.7 L 1052 116.7 M 1052 116.7 L 1047.5 121.2 M 1047.5 121.2 L 1047.5 125.7 M 1047.5 125.7 L 1052 130.2 M 1052 130.2 L 1061.1 130.2 M 1061.1 130.2 L 1065.6 125.7 M 1077 130.2 L 1095 130.2 M 1086 130.2 L 1086 103.2"/><path stroke-width="10" fill="none" d="M 1118 43 L 1117.8 41.7 M 1117.8 41.7 L 1117.6 40.4 M 1117.6 40.4 L 1117.3 39.1 M 1117.3 39.1 L 1117 37.9 M 1117 37.9 L 1116.6 36.6 M 1116.6 36.6 L 1116.2 35.4 M 1116.2 35.4 L 1115.8 34.1 M 1115.8 34.1 L 1115.3 32.9 M 1115.3 32.9 L 1114.8 31.7 M 1114.8 31.7 L 1114.3 30.5 M 1114.3 30.5 L 1113.7 29.3 M 1113.7 29.3 L 1113.1 28.2 M 1113.1 28.2 L 1112.4 27 M 1112.4 27 L 1111.8 25.9 M 1111.8 25.9 L 1111.1 24.8 M 1111.1 24.8 L 1110.3 23.7 M 1110.3 23.7 L 1109.5 22.7 M 1109.5 22.7 L 1108.7 21.6 M 1108.7 21.6 L 1107.9 20.6 M 1107.9 20.6 L 1107 19.6 M 1107 19.6 L 1106.2 18.7 M 1106.2 18.7 L 1105.2 17.7 M 1105.2 17.7 L 1104.3 16.8 M 1104.3 16.8 L 1103.3 16 M 1103.3 16 L 1102.3 15.1 M 1102.3 15.1 L 1101.3 14.3 M 1101.3 14.3 L 1100.2 13.5 M 1100.2 13.5 L 1099.2 12.8 M 1099.2 12.8 L 1098.1 12 M 1098.1 12 L 1097 11.3 M 1097 11.3 L 1095.8 10.7 M 1095.8 10.7 L 1094.7 10.1 M 1094.7 10.1 L 1093.5 9.5 M 1093.5 9.5 L 1092.3 8.9 M 1092.3 8.9 L 1091.1 8.4 M 1091.1 8.4 L 1089.9 7.9 M 1089.9 7.9 L 1088.7 7.5 M 1088.7 7.5 L 1087.4 7.1 M 1087.4 7.1 L 1086.2 6.7 M 1086.2 6.7 L 1084.9 6.4 M 1084.9 6.4 L 1083.6 6.1 M 1083.6 6.1 L 1082.3 5.8 M 1082.3 5.8 L 1081.1 5.6 M 1081.1 5.6 L 1079.8 5.4 M 1079.8 5.4 L 1078.5 5.3 M 1078.5 5.3 L 1077.2 5.2 M 1077.2 5.2 L 1075.8 5.1 M 1075.8 5.1 L 1074.5 5.1 M 1074.5 5.1 L 1073.2 5.1 M 1073.2 5.1 L 1071.9 5.1 M 1071.9 5.1 L 1070.6 5.2 M 1070.6 5.2 L 1069.3 5.3 M 1069.3 5.3 L 1068 5.5 M 1068 5.5 L 405.5 5.5 M 405.5 5.5 L 330.5 5.5 M 330.5 5.5 L 305.5 30.5 M 305.5 30.5 L 255.5 80.5 M 255.5 80.5 L 55.5 80.5 M 55.5 80.5 L 54.1 80.5 M 54.1 80.5 L 52.7 80.6 M 52.7 80.6 L 51.3 80.7 M 51.3 80.7 L 49.9 80.8 M 49.9 80.8 L 48.5 81 M 48.5 81 L 47.1 81.2 M 47.1 81.2 L 45.8 81.5 M 45.8 81.5 L 44.4 81.7 M 44.4 81.7 L 43 82.1 M 43 82.1 L 41.7 82.5 M 41.7 82.5 L 40.3 82.9 M 40.3 82.9 L 39 83.3 M 39 83.3 L 37.7 83.8 M 37.7 83.8 L 36.4 84.3 M 36.4 84.3 L 35.1 84.9 M 35.1 84.9 L 33.8 85.5 M 33.8 85.5 L 32.6 86.1 M 32.6 86.1 L 31.3 86.7 M 31.3 86.7 L 30.1 87.4 M 30.1 87.4 L 28.9 88.2 M 28.9 88.2 L 27.7 88.9 M 27.7 88.9 L 26.6 89.7 M 26.6 89.7 L 25.4 90.6 M 25.4 90.6 L 24.3 91.4 M 24.3 91.4 L 23.2 92.3 M 23.2 92.3 L 22.2 93.2 M 22.2 93.2 L 21.2 94.2 M 21.2 94.2 L 20.1 95.1 M 20.1 95.1 L 19.2 96.2 M 19.2 96.2 L 18.2 97.2 M 18.2 97.2 L 17.3 98.2 M 17.3 98.2 L 16.4 99.3 M 16.4 99.3 L 15.6 100.4 M 15.6 100.4 L 14.7 101.6 M 14.7 101.6 L 13.9 102.7 M 13.9 102.7 L 13.2 103.9 M 13.2 103.9 L 12.4 105.1 M 12.4 105.1 L 11.7 106.3 M 11.7 106.3 L 11.1 107.6 M 11.1 107.6 L 10.5 108.8 M 10.5 108.8 L 9.9 110.1 M 9.9 110.1 L 9.3 111.4 M 9.3 111.4 L 8.8 112.7 M 8.8 112.7 L 8.3 114 M 8.3 114 L 7.9 115.3 M 7.9 115.3 L 7.5 116.7 M 7.5 116.7 L 7.1 118 M 7.1 118 L 6.8 119.4 M 6.8 119.4 L 6.5 120.8 M 6.5 120.8 L 6.2 122.1 M 6.2 122.1 L 6 123.5 M 6 123.5 L 5.8 124.9 M 5.8 124.9 L 5.7 126.3 M 5.7 126.3 L 5.6 127.7 M 5.6 127.7 L 5.5 129.1 M 5.5 129.1 L 5.5 130.5 M 5.5 130.5 L 5.5 955.5 M 5.5 955.5 L 5.5 956.9 M 5.5 956.9 L 5.6 958.3 M 5.6 958.3 L 5.7 959.7 M 5.7 959.7 L 5.8 961.1 M 5.8 961.1 L 6 962.5 M 6 962.5 L 6.2 963.9 M 6.2 963.9 L 6.5 965.3 M 6.5 965.3 L 6.8 966.6 M 6.8 966.6 L 7.1 968 M 7.1 968 L 7.5 969.3 M 7.5 969.3 L 7.9 970.7 M 7.9 970.7 L 8.3 972 M 8.3 972 L 8.8 973.3 M 8.8 973.3 L 9.3 974.6 M 9.3 974.6 L 9.9 975.9 M 9.9 975.9 L 10.5 977.2 M 10.5 977.2 L 11.1 978.5 M 11.1 978.5 L 11.7 979.7 M 11.7 979.7 L 12.4 980.9 M 12.4 980.9 L 13.2 982.1 M 13.2 982.1 L 13.9 983.3 M 13.9 983.3 L 14.7 984.4 M 14.7 984.4 L 15.6 985.6 M 15.6 985.6 L 16.4 986.7 M 16.4 986.7 L 17.3 987.8 M 17.3 987.8 L 18.2 988.8 M 18.2 988.8 L 19.2 989.9 M 19.2 989.9 L 20.1 990.9 M 20.1 990.9 L 21.2 991.8 M 21.2 991.8 L 22.2 992.8 M 22.2 992.8 L 23.2 993.7 M 23.2 993.7 L 24.3 994.6 M 24.3 994.6 L 25.4 995.5 M 25.4 995.5 L 26.6 996.3 M 26.6 996.3 L 27.7 997.1 M 27.7 997.1 L 28.9 997.8 M 28.9 997.8 L 30.1 998.6 M 30.1 998.6 L 31.3 999.3 M 31.3 999.3 L 32.6 999.9 M 32.6 999.9 L 33.8 1000.6 M 33.8 1000.6 L 35.1 1001.1 M 35.1 1001.1 L 36.4 1001.7 M 36.4 1001.7 L 37.7 1002.2 M 37.7 1002.2 L 39 1002.7 M 39 1002.7 L 40.3 1003.1 M 40.3 1003.1 L 41.7 1003.6 M 41.7 1003.6 L 43 1003.9 M 43 1003.9 L 44.4 1004.3 M 44.4 1004.3 L 45.8 1004.5 M 45.8 1004.5 L 47.1 1004.8 M 47.1 1004.8 L 48.5 1005 M 48.5 1005 L 49.9 1005.2 M 49.9 1005.2 L 51.3 1005.3 M 51.3 1005.3 L 52.7 1005.4 M 52.7 1005.4 L 54.1 1005.5 M 54.1 1005.5 L 55.5 1005.5 M 55.5 1005.5 L 1093 1005.5 M 1093 1005.5 L 1094.1 1005.3 M 1094.1 1005.3 L 1095.2 1005 M 1095.2 1005 L 1096.2 1004.7 M 1096.2 1004.7 L 1097.3 1004.3 M 1097.3 1004.3 L 1098.3 1003.9 M 1098.3 1003.9 L 1099.4 1003.5 M 1099.4 1003.5 L 1100.4 1003.1 M 1100.4 1003.1 L 1101.4 1002.6 M 1101.4 1002.6 L 1102.4 1002 M 1102.4 1002 L 1103.3 1001.5 M 1103.3 1001.5 L 1104.3 1000.9 M 1104.3 1000.9 L 1105.2 1000.3 M 1105.2 1000.3 L 1106.1 999.6 M 1106.1 999.6 L 1106.9 998.9 M 1106.9 998.9 L 1107.8 998.2 M 1107.8 998.2 L 1108.6 997.4 M 1108.6 997.4 L 1109.4 996.7 M 1109.4 996.7 L 1110.2 995.9 M 1110.2 995.9 L 1110.9 995 M 1110.9 995 L 1111.6 994.2 M 1111.6 994.2 L 1112.3 993.3 M 1112.3 993.3 L 1113 992.4 M 1113 992.4 L 1113.6 991.5 M 1113.6 991.5 L 1114.2 990.5 M 1114.2 990.5 L 1114.7 989.6 M 1114.7 989.6 L 1115.2 988.6 M 1115.2 988.6 L 1115.7 987.6 M 1115.7 987.6 L 1116.2 986.5 M 1116.2 986.5 L 1116.6 985.5 M 1116.6 985.5 L 1116.9 984.5 M 1116.9 984.5 L 1117.3 983.4 M 1117.3 983.4 L 1117.6 982.3 M 1117.6 982.3 L 1117.8 981.3 M 1117.8 981.3 L 1118.1 980.2 M 1118.1 980.2 L 1118.3 979.1 M 1118.3 979.1 L 1118.4 978 M 1118.4 978 L 1118.5 976.9 M 1118.5 976.9 L 1118.6 975.8 M 1118.6 975.8 L 1118.6 974.6 M 1118.6 974.6 L 1118.6 973.5 M 1118.6 973.5 L 1118.6 972.4 M 1118.6 972.4 L 1118.5 971.3 M 1118.5 971.3 L 1118.4 970.2 M 1118.4 970.2 L 1118.2 969.1 M 1118.2 969.1 L 1118 968 M 1118 968 L 1118 43 M 180.5 778 L 180.5 823 M 180.5 888 L 180.5 933"/><path stroke-width="6" fill="none" d="M 470.8 499.1 L 470.8 476.4 M 470.8 476.4 L 487.8 476.4 M 487.8 476.4 L 482.1 487.7 M 482.1 487.7 L 482.1 493.4 M 482.1 493.4 L 487.8 499.1 M 487.8 499.1 L 499.1 499.1 M 499.1 499.1 L 504.8 493.4 M 504.8 493.4 L 504.8 482.1 M 504.8 482.1 L 499.1 476.4 M 499.1 462.2 L 476.4 462.2 M 476.4 462.2 L 470.8 456.6 M 470.8 456.6 L 470.8 445.2 M 470.8 445.2 L 476.4 439.6 M 476.4 439.6 L 482.1 439.6 M 482.1 439.6 L 487.8 445.2 M 487.8 445.2 L 487.8 462.2 M 499.1 462.2 L 504.8 456.6 M 504.8 456.6 L 504.8 445.2 M 504.8 445.2 L 499.1 439.6 M 470.8 425.4 L 504.8 402.7 M 504.8 388.6 L 504.8 365.9 M 504.8 365.9 L 482.1 388.6 M 482.1 388.6 L 476.4 388.6 M 476.4 388.6 L 470.8 382.9 M 470.8 382.9 L 470.8 371.6 M 470.8 371.6 L 476.4 365.9 M 476.4 351.8 L 470.8 346.1 M 470.8 346.1 L 470.8 334.7 M 470.8 334.7 L 476.4 329.1 M 476.4 329.1 L 482.1 329.1 M 482.1 329.1 L 487.8 334.7 M 487.8 334.7 L 487.8 351.8 M 499.1 351.8 L 476.4 351.8 M 499.1 351.8 L 504.8 346.1 M 504.8 346.1 L 504.8 334.7 M 504.8 334.7 L 499.1 329.1 M 504.8 314.9 L 470.8 314.9 M 470.8 314.9 L 482.1 303.6 M 482.1 303.6 L 470.8 292.2 M 470.8 292.2 L 504.8 292.2 M 530.8 292.2 L 542.1 303.6 M 542.1 303.6 L 530.8 314.9 M 530.8 314.9 L 564.8 314.9 M 559.1 329.1 L 564.8 334.7 M 564.8 334.7 L 564.8 346.1 M 564.8 346.1 L 559.1 351.8 M 559.1 351.8 L 536.4 351.8 M 536.4 351.8 L 530.8 346.1 M 530.8 346.1 L 530.8 334.7 M 530.8 334.7 L 536.4 329.1 M 536.4 329.1 L 542.1 329.1 M 542.1 329.1 L 547.8 334.7 M 547.8 334.7 L 547.8 351.8 M 547.8 365.9 L 547.8 382.9 M 547.8 382.9 L 553.5 388.6 M 553.5 388.6 L 559.1 388.6 M 559.1 388.6 L 564.8 382.9 M 564.8 382.9 L 564.8 371.6 M 564.8 371.6 L 559.1 365.9 M 559.1 365.9 L 547.8 365.9 M 547.8 365.9 L 536.4 377.2 M 536.4 377.2 L 530.8 388.6 M 530.8 425.4 L 564.8 402.7 M 559.1 439.6 L 564.8 445.2 M 564.8 445.2 L 564.8 456.6 M 564.8 456.6 L 559.1 462.2 M 559.1 462.2 L 536.4 462.2 M 536.4 462.2 L 530.8 456.6 M 530.8 456.6 L 530.8 445.2 M 530.8 445.2 L 536.4 439.6 M 536.4 439.6 L 542.1 439.6 M 542.1 439.6 L 547.8 445.2 M 547.8 445.2 L 547.8 462.2 M 553.5 476.4 L 547.8 482.1 M 547.8 482.1 L 547.8 493.4 M 547.8 493.4 L 553.5 499.1 M 553.5 499.1 L 559.1 499.1 M 559.1 499.1 L 564.8 493.4 M 564.8 493.4 L 564.8 482.1 M 564.8 482.1 L 559.1 476.4 M 559.1 476.4 L 553.5 476.4 M 547.8 482.1 L 542.1 476.4 M 542.1 476.4 L 536.4 476.4 M 536.4 476.4 L 530.8 482.1 M 530.8 482.1 L 530.8 493.4 M 530.8 493.4 L 536.4 499.1 M 536.4 499.1 L 542.1 499.1 M 542.1 499.1 L 547.8 493.4 M 564.8 292.2 L 530.8 292.2 M 530.8 278.1 L 530.8 255.4 M 530.8 255.4 L 564.8 255.4 M 564.8 241.3 L 553.5 229.9 M 553.5 235.6 L 547.8 241.3 M 547.8 241.3 L 536.4 241.3 M 536.4 241.3 L 530.8 235.6 M 530.8 235.6 L 530.8 218.6 M 530.8 218.6 L 564.8 218.6 M 553.5 218.6 L 553.5 235.6 M 547.8 255.4 L 547.8 266.7 M 504.8 255.4 L 470.8 255.4 M 470.8 255.4 L 470.8 278.1 M 487.8 266.7 L 487.8 255.4 M 487.8 241.3 L 476.4 241.3 M 476.4 241.3 L 470.8 235.6 M 470.8 235.6 L 470.8 218.6 M 470.8 218.6 L 504.8 218.6 M 493.5 218.6 L 493.5 235.6 M 493.5 235.6 L 487.8 241.3 M 493.5 229.9 L 504.8 241.3 M 205.5 80.5 L 205.5 40.5 M 205.5 40.5 L 100.5 40.5 M 100.5 40.5 L 100.5 80.5"/><path stroke-width="8" fill="none" d="M 305.5 30.5 L 305.5 130.5 M 305.5 130.5 L 330.5 155.5 M 330.5 155.5 L 380.5 155.5 M 380.5 155.5 L 405.5 130.5 M 405.5 130.5 L 405.5 5.5 M 405.5 5.5 L 505.5 5.5 M 505.5 5.5 L 505.5 130.5 M 505.5 130.5 L 480.5 155.5 M 480.5 155.5 L 430.5 155.5 M 430.5 155.5 L 405.5 130.5 M 505.5 130.5 L 530.5 155.5 M 530.5 155.5 L 580.5 155.5 M 580.5 155.5 L 605.5 130.5 M 605.5 130.5 L 605.5 5.5 M 605.5 5.5 L 705.5 5.5 M 705.5 5.5 L 705.5 130.5 M 705.5 130.5 L 680.5 155.5 M 680.5 155.5 L 630.5 155.5 M 630.5 155.5 L 605.5 130.5 M 705.5 130.5 L 730.5 155.5 M 730.5 155.5 L 780.5 155.5 M 780.5 155.5 L 805.5 130.5 M 805.5 130.5 L 805.5 5.5 M 805.5 5.5 L 905.5 5.5 M 905.5 5.5 L 905.5 130.5 M 905.5 130.5 L 880.5 155.5 M 880.5 155.5 L 830.5 155.5 M 830.5 155.5 L 805.5 130.5 M 905.5 130.5 L 930.5 155.5 M 930.5 155.5 L 980.5 155.5 M 980.5 155.5 L 1005.5 130.5 M 1005.5 130.5 L 1005.5 5.5 M 1005.5 5.5 L 1068 5.5 M 1105.5 30.5 L 1105.5 130.5 M 1105.5 130.5 L 1080.5 155.5 M 1080.5 155.5 L 1030.5 155.5 M 1030.5 155.5 L 1005.5 130.5 M 1005.5 5.5 L 905.5 5.5 M 805.5 5.5 L 705.5 5.5 M 605.5 5.5 L 505.5 5.5 M 597 584.5 L 597 632.5 M 597 632.5 L 613 616.5 M 613 616.5 L 629 632.5 M 629 632.5 L 629 584.5 M 648.6 584.5 L 664.6 584.5 M 656.6 584.5 L 656.6 616.5 M 656.6 616.5 L 648.6 616.5 M 656.6 632.5 L 656.6 640.5 M 682.9 608.5 L 682.9 592.5 M 682.9 592.5 L 690.9 584.5 M 690.9 584.5 L 715 584.5 M 734.5 584.5 L 734.5 616.5 M 734.5 600.5 L 750.5 616.5 M 750.5 616.5 L 758.5 616.5 M 777.5 608.5 L 777.5 592.5 M 777.5 592.5 L 785.5 584.5 M 785.5 584.5 L 801.5 584.5 M 801.5 584.5 L 809.5 592.5 M 809.5 592.5 L 809.5 608.5 M 809.5 608.5 L 801.5 616.5 M 801.5 616.5 L 785.5 616.5 M 785.5 616.5 L 777.5 608.5 M 775.7 668.5 L 759.7 668.5 M 759.7 668.5 L 751.7 676.5 M 751.7 676.5 L 751.7 692.5 M 751.7 692.5 L 759.7 700.5 M 759.7 700.5 L 775.7 700.5 M 775.7 700.5 L 783.7 692.5 M 783.7 692.5 L 783.7 684.5 M 783.7 684.5 L 751.7 684.5 M 732.2 668.5 L 708.1 668.5 M 708.1 668.5 L 700.1 676.5 M 700.1 676.5 L 700.1 692.5 M 700.1 692.5 L 708.1 700.5 M 708.1 700.5 L 732.2 700.5 M 732.2 716.5 L 732.2 668.5 M 680.6 676.5 L 680.6 692.5 M 680.6 692.5 L 672.6 700.5 M 672.6 700.5 L 656.6 700.5 M 656.6 700.5 L 648.6 692.5 M 648.6 692.5 L 648.6 676.5 M 648.6 676.5 L 656.6 668.5 M 656.6 668.5 L 672.6 668.5 M 672.6 668.5 L 680.6 676.5 M 629 668.5 L 629 716.5 M 597 716.5 L 629 668.5 M 597 668.5 L 597 716.5 M 597 752.5 L 629 752.5 M 648.6 760.5 L 656.6 752.5 M 656.6 752.5 L 672.6 752.5 M 672.6 752.5 L 680.6 760.5 M 680.6 760.5 L 680.6 776.5 M 680.6 776.5 L 672.6 784.5 M 672.6 784.5 L 656.6 784.5 M 656.6 784.5 L 648.6 776.5 M 648.6 776.5 L 648.6 760.5 M 597 752.5 L 597 800.5 M 580.5 855.5 L 605.5 880.5 M 605.5 880.5 L 605.5 1005.5 M 505.5 1005.5 L 505.5 880.5 M 505.5 880.5 L 530.5 855.5 M 530.5 855.5 L 580.5 855.5 M 605.5 880.5 L 630.5 855.5 M 630.5 855.5 L 680.5 855.5 M 680.5 855.5 L 705.5 880.5 M 705.5 880.5 L 705.5 1005.5 M 805.5 1005.5 L 805.5 880.5 M 805.5 880.5 L 830.5 855.5 M 830.5 855.5 L 880.5 855.5 M 880.5 855.5 L 905.5 880.5 M 905.5 880.5 L 905.5 1005.5 M 1005.5 1005.5 L 1005.5 880.5 M 1005.5 880.5 L 1030.5 855.5 M 1030.5 855.5 L 1080.5 855.5 M 1080.5 855.5 L 1105.5 880.5 M 1105.5 880.5 L 1105.5 993 M 1093 1005.5 L 1005.5 1005.5 M 1005.5 1005.5 L 505.5 1005.5 M 505.5 1005.5 L 405.5 1005.5 M 405.5 1005.5 L 405.5 880.5 M 405.5 880.5 L 380.5 855.5 M 380.5 855.5 L 330.5 855.5 M 330.5 855.5 L 305.5 880.5 M 305.5 880.5 L 305.5 1005.5 M 305.5 1005.5 L 405.5 1005.5 M 405.5 880.5 L 430.5 855.5 M 430.5 855.5 L 480.5 855.5 M 480.5 855.5 L 505.5 880.5 M 705.5 880.5 L 730.5 855.5 M 730.5 855.5 L 780.5 855.5 M 780.5 855.5 L 805.5 880.5 M 905.5 880.5 L 930.5 855.5 M 930.5 855.5 L 980.5 855.5 M 980.5 855.5 L 1005.5 880.5 M 775.1 776.5 L 775.1 752.5 M 775.1 752.5 L 751.1 752.5 M 751.1 752.5 L 743.1 760.5 M 743.1 760.5 L 751.1 768.5 M 751.1 768.5 L 775.1 768.5 M 775.1 776.5 L 767.1 784.5 M 767.1 784.5 L 751.1 784.5 M 724.2 784.5 L 716.1 784.5 M 716.1 784.5 L 700.1 768.5 M 700.1 752.5 L 700.1 784.5 M 690.9 616.5 L 682.9 608.5 M 690.9 616.5 L 715 616.5 M 139.6 772.8 L 131.7 772.8 M 131.7 772.8 L 131.7 827.9 M 131.7 827.9 L 139.6 827.9 M 139.6 827.9 L 139.6 772.8 M 135.6 776.8 L 135.6 827.9 M 135.6 883.1 L 135.6 934.2 M 139.6 938.2 L 131.7 938.2 M 131.7 938.2 L 29.3 938.2 M 29.3 938.2 L 29.3 883.1 M 29.3 827.9 L 29.3 772.8 M 29.3 772.8 L 131.7 772.8 M 131.7 883.1 L 139.6 883.1 M 139.6 883.1 L 139.6 938.2 M 131.7 938.2 L 131.7 883.1"/><path stroke-width="1" fill="none" d="M 53 75.5 L 253 75.5 M 253 75.5 L 328 0.5 M 328 0.5 L 1083 0.5 M 1083 0.5 L 1084.4 0.7 M 1084.4 0.7 L 1085.7 1 M 1085.7 1 L 1087 1.3 M 1087 1.3 L 1088.4 1.7 M 1088.4 1.7 L 1089.7 2.1 M 1089.7 2.1 L 1091 2.5 M 1091 2.5 L 1092.3 2.9 M 1092.3 2.9 L 1093.6 3.4 M 1093.6 3.4 L 1094.8 4 M 1094.8 4 L 1096.1 4.5 M 1096.1 4.5 L 1097.3 5.1 M 1097.3 5.1 L 1098.5 5.8 M 1098.5 5.8 L 1099.7 6.5 M 1099.7 6.5 L 1100.9 7.2 M 1100.9 7.2 L 1102.1 7.9 M 1102.1 7.9 L 1103.2 8.7 M 1103.2 8.7 L 1104.3 9.5 M 1104.3 9.5 L 1105.4 10.3 M 1105.4 10.3 L 1106.5 11.2 M 1106.5 11.2 L 1107.5 12.1 M 1107.5 12.1 L 1108.5 13 M 1108.5 13 L 1109.5 14 M 1109.5 14 L 1110.5 15 M 1110.5 15 L 1111.4 16 M 1111.4 16 L 1112.3 17 M 1112.3 17 L 1113.2 18.1 M 1113.2 18.1 L 1114 19.2 M 1114 19.2 L 1114.8 20.3 M 1114.8 20.3 L 1115.6 21.4 M 1115.6 21.4 L 1116.3 22.6 M 1116.3 22.6 L 1117 23.7 M 1117 23.7 L 1117.7 24.9 M 1117.7 24.9 L 1118.3 26.2 M 1118.3 26.2 L 1118.9 27.4 M 1118.9 27.4 L 1119.5 28.6 M 1119.5 28.6 L 1120.1 29.9 M 1120.1 29.9 L 1120.6 31.2 M 1120.6 31.2 L 1121 32.5 M 1121 32.5 L 1121.4 33.8 M 1121.4 33.8 L 1121.8 35.1 M 1121.8 35.1 L 1122.2 36.4 M 1122.2 36.4 L 1122.5 37.8 M 1122.5 37.8 L 1122.8 39.1 M 1122.8 39.1 L 1123 40.5 M 1123 40.5 L 1123.2 41.8 M 1123.2 41.8 L 1123.4 43.2 M 1123.4 43.2 L 1123.5 44.6 M 1123.5 44.6 L 1123.5 45.9 M 1123.5 45.9 L 1123.6 47.3 M 1123.6 47.3 L 1123.6 48.7 M 1123.6 48.7 L 1123.6 50 M 1123.6 50 L 1123.5 51.4 M 1123.5 51.4 L 1123.4 52.8 M 1123.4 52.8 L 1123.2 54.1 M 1123.2 54.1 L 1123 55.5 M 1123 55.5 L 1123 955.5 M 1123 955.5 L 1123.3 956.8 M 1123.3 956.8 L 1123.6 958.1 M 1123.6 958.1 L 1123.9 959.4 M 1123.9 959.4 L 1124.1 960.7 M 1124.1 960.7 L 1124.3 962 M 1124.3 962 L 1124.4 963.3 M 1124.4 963.3 L 1124.5 964.6 M 1124.5 964.6 L 1124.6 966 M 1124.6 966 L 1124.6 967.3 M 1124.6 967.3 L 1124.6 968.6 M 1124.6 968.6 L 1124.5 969.9 M 1124.5 969.9 L 1124.4 971.3 M 1124.4 971.3 L 1124.3 972.6 M 1124.3 972.6 L 1124.1 973.9 M 1124.1 973.9 L 1123.9 975.2 M 1123.9 975.2 L 1123.7 976.5 M 1123.7 976.5 L 1123.4 977.8 M 1123.4 977.8 L 1123 979.1 M 1123 979.1 L 1122.7 980.4 M 1122.7 980.4 L 1122.3 981.6 M 1122.3 981.6 L 1121.8 982.9 M 1121.8 982.9 L 1121.4 984.1 M 1121.4 984.1 L 1120.8 985.3 M 1120.8 985.3 L 1120.3 986.5 M 1120.3 986.5 L 1119.7 987.7 M 1119.7 987.7 L 1119.1 988.9 M 1119.1 988.9 L 1118.4 990 M 1118.4 990 L 1117.7 991.2 M 1117.7 991.2 L 1117 992.3 M 1117 992.3 L 1116.3 993.4 M 1116.3 993.4 L 1115.5 994.4 M 1115.5 994.4 L 1114.7 995.5 M 1114.7 995.5 L 1113.8 996.5 M 1113.8 996.5 L 1112.9 997.5 M 1112.9 997.5 L 1112 998.5 M 1112 998.5 L 1111.1 999.4 M 1111.1 999.4 L 1110.1 1000.3 M 1110.1 1000.3 L 1109.1 1001.2 M 1109.1 1001.2 L 1108.1 1002.1 M 1108.1 1002.1 L 1107.1 1002.9 M 1107.1 1002.9 L 1106 1003.7 M 1106 1003.7 L 1104.9 1004.4 M 1104.9 1004.4 L 1103.8 1005.2 M 1103.8 1005.2 L 1102.7 1005.8 M 1102.7 1005.8 L 1101.5 1006.5 M 1101.5 1006.5 L 1100.4 1007.1 M 1100.4 1007.1 L 1099.2 1007.7 M 1099.2 1007.7 L 1098 1008.3 M 1098 1008.3 L 1096.8 1008.8 M 1096.8 1008.8 L 1095.5 1009.3 M 1095.5 1009.3 L 1094.3 1009.7 M 1094.3 1009.7 L 1093 1010.1 M 1093 1010.1 L 1091.7 1010.5 M 1091.8 1010.5 L 55.5 1010.5 M 55.5 1010.5 L 54.3 1010.5 M 55.5 1010.5 L 54 1010.5 M 54 1010.5 L 52.6 1010.4 M 52.6 1010.4 L 51.1 1010.3 M 51.1 1010.3 L 49.7 1010.2 M 49.7 1010.2 L 48.2 1010 M 48.2 1010 L 46.8 1009.8 M 46.8 1009.8 L 45.3 1009.6 M 45.3 1009.6 L 43.9 1009.3 M 43.9 1009.3 L 42.5 1008.9 M 42.5 1008.9 L 41 1008.6 M 41 1008.6 L 39.6 1008.2 M 39.6 1008.2 L 38.2 1007.7 M 38.2 1007.7 L 36.8 1007.2 M 36.8 1007.2 L 35.5 1006.7 M 35.5 1006.7 L 34.1 1006.2 M 34.1 1006.2 L 32.8 1005.6 M 32.8 1005.6 L 31.5 1005 M 31.5 1005 L 30.1 1004.3 M 30.1 1004.3 L 28.9 1003.6 M 28.9 1003.6 L 27.6 1002.9 M 27.6 1002.9 L 26.3 1002.1 M 26.3 1002.1 L 25.1 1001.3 M 25.1 1001.3 L 23.9 1000.5 M 23.9 1000.5 L 22.7 999.7 M 22.7 999.7 L 21.5 998.8 M 21.5 998.8 L 20.4 997.8 M 20.4 997.8 L 19.3 996.9 M 19.3 996.9 L 18.2 995.9 M 18.2 995.9 L 17.1 994.9 M 17.1 994.9 L 16.1 993.9 M 16.1 993.9 L 15.1 992.8 M 15.1 992.8 L 14.1 991.7 M 14.1 991.7 L 13.2 990.6 M 13.2 990.6 L 12.2 989.5 M 12.2 989.5 L 11.4 988.3 M 11.4 988.3 L 10.5 987.1 M 10.5 987.1 L 9.7 985.9 M 9.7 985.9 L 8.9 984.7 M 8.9 984.7 L 8.1 983.4 M 8.1 983.4 L 7.4 982.2 M 7.4 982.2 L 6.7 980.9 M 6.7 980.9 L 6 979.6 M 6 979.6 L 5.4 978.2 M 5.4 978.2 L 4.8 976.9 M 4.8 976.9 L 4.3 975.5 M 4.3 975.5 L 3.8 974.2 M 3.8 974.2 L 3.3 972.8 M 3.3 972.8 L 2.8 971.4 M 2.8 971.4 L 2.4 970 M 2.4 970 L 2.1 968.5 M 2.1 968.5 L 1.7 967.1 M 1.7 967.1 L 1.5 965.7 M 1.5 965.7 L 1.2 964.3 M 1.2 964.3 L 1 962.8 M 1 962.8 L 0.8 961.4 M 0.8 961.4 L 0.7 959.9 M 0.7 959.9 L 0.6 958.4 M 0.6 958.4 L 0.5 957 M 0.5 957 L 0.5 955.5 M 0.5 955.5 L 0.5 128 M 0.5 128 L 0.5 125.5 M 0.5 128 L 0.5 126.6 M 0.5 126.6 L 0.6 125.2 M 0.6 125.2 L 0.7 123.7 M 0.7 123.7 L 0.8 122.3 M 0.8 122.3 L 1 120.9 M 1 120.9 L 1.2 119.5 M 1.2 119.5 L 1.4 118.1 M 1.4 118.1 L 1.7 116.7 M 1.7 116.7 L 2.1 115.3 M 2.1 115.3 L 2.4 114 M 2.4 114 L 2.8 112.6 M 2.8 112.6 L 3.3 111.2 M 3.3 111.2 L 3.7 109.9 M 3.7 109.9 L 4.2 108.6 M 4.2 108.6 L 4.8 107.3 M 4.8 107.3 L 5.4 106 M 5.4 106 L 6 104.7 M 6 104.7 L 6.6 103.4 M 6.6 103.4 L 7.3 102.2 M 7.3 102.2 L 8 100.9 M 8 100.9 L 8.8 99.7 M 8.8 99.7 L 9.6 98.5 M 9.6 98.5 L 10.4 97.4 M 10.4 97.4 L 11.2 96.2 M 11.2 96.2 L 12.1 95.1 M 12.1 95.1 L 13 94 M 13 94 L 13.9 92.9 M 13.9 92.9 L 14.9 91.9 M 14.9 91.9 L 15.9 90.9 M 15.9 90.9 L 16.9 89.9 M 16.9 89.9 L 17.9 88.9 M 17.9 88.9 L 19 88 M 19 88 L 20.1 87.1 M 20.1 87.1 L 21.2 86.2 M 21.2 86.2 L 22.4 85.4 M 22.4 85.4 L 23.5 84.6 M 23.5 84.6 L 24.7 83.8 M 24.7 83.8 L 25.9 83 M 25.9 83 L 27.2 82.3 M 27.2 82.3 L 28.4 81.6 M 28.4 81.6 L 29.7 81 M 29.7 81 L 31 80.4 M 31 80.4 L 32.3 79.8 M 32.3 79.8 L 33.6 79.2 M 33.6 79.2 L 34.9 78.7 M 34.9 78.7 L 36.2 78.3 M 36.2 78.3 L 37.6 77.8 M 37.6 77.8 L 39 77.4 M 39 77.4 L 40.3 77.1 M 40.3 77.1 L 41.7 76.7 M 41.7 76.7 L 43.1 76.4 M 43.1 76.4 L 44.5 76.2 M 44.5 76.2 L 45.9 76 M 45.9 76 L 47.3 75.8 M 47.3 75.8 L 48.7 75.7 M 48.7 75.7 L 50.2 75.6 M 50.2 75.6 L 51.6 75.5 M 51.6 75.5 L 53 75.5"/><path stroke-width="7.9" fill="none" d="M 122.6 448.3 L 122.6 487.7 M 138.4 487.7 L 138.4 448.3 M 142.3 468 L 150.2 468 M 118.7 468 L 110.8 468 M 122.6 548.3 L 122.6 587.7 M 138.4 587.7 L 138.4 548.3 M 142.3 568 L 150.2 568 M 118.7 568 L 110.8 568"/><path stroke-width="11" fill="none" d="M 326.4 467.5 L 355.8 467.5 M 341.1 482.2 L 341.1 452.9"/><path stroke-width="7" fill="none" d="M 348.6 769.4 L 348.6 788.1 M 348.6 788.1 L 339.2 797.4 M 339.2 797.4 L 329.9 788.1 M 329.9 788.1 L 329.9 769.4 M 329.9 783.4 L 348.6 783.4"/><path stroke-width="13" fill="none" d="M 354.2 702.5 L 329.5 702.5 M 819.5 232.5 L 844.2 232.5"/><path stroke-width="14" fill="none" d="M 842.8 780 L 815.4 780"/></g></g><use class="pcb_board-cf" mask="url(#pcb_top-cu_finish-mask)" xlink:href="#pcb_top-sm"/></g><g id="pcb_top-out" class="pcb_board-out" fill="currentColor" stroke="currentColor"><path stroke-width="1" fill="none" d="M 53 75.5 L 51.6 75.5 L 50.2 75.6 L 48.7 75.7 L 47.3 75.8 L 45.9 76 L 44.5 76.2 L 43.1 76.4 L 41.7 76.7 L 40.3 77.1 L 39 77.4 L 37.6 77.8 L 36.2 78.3 L 34.9 78.7 L 33.6 79.2 L 32.3 79.8 L 31 80.4 L 29.7 81 L 28.4 81.6 L 27.2 82.3 L 25.9 83 L 24.7 83.8 L 23.5 84.6 L 22.4 85.4 L 21.2 86.2 L 20.1 87.1 L 19 88 L 17.9 88.9 L 16.9 89.9 L 15.9 90.9 L 14.9 91.9 L 13.9 92.9 L 13 94 L 12.1 95.1 L 11.2 96.2 L 10.4 97.4 L 9.6 98.5 L 8.8 99.7 L 8 100.9 L 7.3 102.2 L 6.6 103.4 L 6 104.7 L 5.4 106 L 4.8 107.3 L 4.2 108.6 L 3.7 109.9 L 3.3 111.2 L 2.8 112.6 L 2.4 114 L 2.1 115.3 L 1.7 116.7 L 1.4 118.1 L 1.2 119.5 L 1 120.9 L 0.8 122.3 L 0.7 123.7 L 0.6 125.2 L 0.5 126.6 L 0.5 128 L 0.5 125.5 M 53 75.5 L 253 75.5 L 328 0.5 L 1083 0.5 L 1084.4 0.7 L 1085.7 1 L 1087 1.3 L 1088.4 1.7 L 1089.7 2.1 L 1091 2.5 L 1092.3 2.9 L 1093.6 3.4 L 1094.8 4 L 1096.1 4.5 L 1097.3 5.1 L 1098.5 5.8 L 1099.7 6.5 L 1100.9 7.2 L 1102.1 7.9 L 1103.2 8.7 L 1104.3 9.5 L 1105.4 10.3 L 1106.5 11.2 L 1107.5 12.1 L 1108.5 13 L 1109.5 14 L 1110.5 15 L 1111.4 16 L 1112.3 17 L 1113.2 18.1 L 1114 19.2 L 1114.8 20.3 L 1115.6 21.4 L 1116.3 22.6 L 1117 23.7 L 1117.7 24.9 L 1118.3 26.2 L 1118.9 27.4 L 1119.5 28.6 L 1120.1 29.9 L 1120.6 31.2 L 1121 32.5 L 1121.4 33.8 L 1121.8 35.1 L 1122.2 36.4 L 1122.5 37.8 L 1122.8 39.1 L 1123 40.5 L 1123.2 41.8 L 1123.4 43.2 L 1123.5 44.6 L 1123.5 45.9 L 1123.6 47.3 L 1123.6 48.7 L 1123.6 50 L 1123.5 51.4 L 1123.4 52.8 L 1123.2 54.1 L 1123 55.5 L 1123 955.5 L 1123.3 956.8 L 1123.6 958.1 L 1123.9 959.4 L 1124.1 960.7 L 1124.3 962 L 1124.4 963.3 L 1124.5 964.6 L 1124.6 966 L 1124.6 967.3 L 1124.6 968.6 L 1124.5 969.9 L 1124.4 971.3 L 1124.3 972.6 L 1124.1 973.9 L 1123.9 975.2 L 1123.7 976.5 L 1123.4 977.8 L 1123 979.1 L 1122.7 980.4 L 1122.3 981.6 L 1121.8 982.9 L 1121.4 984.1 L 1120.8 985.3 L 1120.3 986.5 L 1119.7 987.7 L 1119.1 988.9 L 1118.4 990 L 1117.7 991.2 L 1117 992.3 L 1116.3 993.4 L 1115.5 994.4 L 1114.7 995.5 L 1113.8 996.5 L 1112.9 997.5 L 1112 998.5 L 1111.1 999.4 L 1110.1 1000.3 L 1109.1 1001.2 L 1108.1 1002.1 L 1107.1 1002.9 L 1106 1003.7 L 1104.9 1004.4 L 1103.8 1005.2 L 1102.7 1005.8 L 1101.5 1006.5 L 1100.4 1007.1 L 1099.2 1007.7 L 1098 1008.3 L 1096.8 1008.8 L 1095.5 1009.3 L 1094.3 1009.7 L 1093 1010.1 L 1091.7 1010.5 M 1091.8 1010.5 L 55.5 1010.5 L 54 1010.5 L 52.6 1010.4 L 51.1 1010.3 L 49.7 1010.2 L 48.2 1010 L 46.8 1009.8 L 45.3 1009.6 L 43.9 1009.3 L 42.5 1008.9 L 41 1008.6 L 39.6 1008.2 L 38.2 1007.7 L 36.8 1007.2 L 35.5 1006.7 L 34.1 1006.2 L 32.8 1005.6 L 31.5 1005 L 30.1 1004.3 L 28.9 1003.6 L 27.6 1002.9 L 26.3 1002.1 L 25.1 1001.3 L 23.9 1000.5 L 22.7 999.7 L 21.5 998.8 L 20.4 997.8 L 19.3 996.9 L 18.2 995.9 L 17.1 994.9 L 16.1 993.9 L 15.1 992.8 L 14.1 991.7 L 13.2 990.6 L 12.2 989.5 L 11.4 988.3 L 10.5 987.1 L 9.7 985.9 L 8.9 984.7 L 8.1 983.4 L 7.4 982.2 L 6.7 980.9 L 6 979.6 L 5.4 978.2 L 4.8 976.9 L 4.3 975.5 L 3.8 974.2 L 3.3 972.8 L 2.8 971.4 L 2.4 970 L 2.1 968.5 L 1.7 967.1 L 1.5 965.7 L 1.2 964.3 L 1 962.8 L 0.8 961.4 L 0.7 959.9 L 0.6 958.4 L 0.5 957 L 0.5 955.5 L 0.5 128 M 55.5 1010.5 L 54.3 1010.5"/></g></g></svg>